<svg width="146" height="106" viewBox="0 0 146 106" fill="none" xmlns="http://www.w3.org/2000/svg">
<path d="M52.1553 92.4951C51.9361 94.1667 51.8302 95.8527 51.834 97.5384C51.8374 98.8862 51.9134 100.234 52.0571 101.574C51.0268 101.473 50.0028 101.31 48.9922 101.086C48.4642 100.969 47.9162 100.835 47.3901 100.959C47.1255 101.021 46.8753 101.151 46.6954 101.352C46.514 101.554 46.4119 101.831 46.4497 102.099C46.4875 102.305 46.5858 102.494 46.7256 102.648C46.8655 102.802 47.0356 102.925 47.2087 103.039C48.0625 103.598 49.067 103.977 50.0863 103.926C50.5591 103.903 51.0343 103.783 51.4338 103.529C51.8336 103.275 52.1523 102.879 52.2608 102.418C52.2986 102.264 52.3099 102.105 52.2986 101.948" fill="#131313"/>
<path d="M50.637 90.0059C49.5799 90.869 49.7144 95.665 49.8198 97.545C49.8576 98.0967 50.1298 99.2568 50.1525 99.8088C49.0099 99.8013 48.048 99.7699 47.3185 99.9491C46.7255 100.095 45.5509 100.493 44.9284 100.982C44.3641 101.426 43.7529 101.858 43.8471 102.816C43.9718 104.101 47.1858 105.435 50.2627 105.508C52.2878 105.7 57.0274 104.078 55.7484 101.571C54.5435 99.3988 53.8825 99.2463 53.839 97.5304C53.7974 95.9404 53.8768 92.6811 54.2514 91.0625L50.637 90.0059Z" fill="#131313"/>
<path d="M52.9353 89.4314C50.1755 88.5135 47.8624 86.922 45.4174 84.2592C43.5269 82.2004 42.8908 81.194 43.1395 80.6553C43.3285 80.2442 43.572 78.8505 43.6785 77.5582C43.8373 75.6558 43.7238 75.1501 43.0866 74.903C42.031 74.493 40.9149 75.4822 41.1965 76.5782C42.0556 79.9187 37.5379 81.5422 32.0156 79.8771C26.2583 78.141 23.5998 74.9622 23.2207 69.3613C23.0166 66.3242 23.0355 66.2559 24.1199 66.2604C26.0077 66.2717 28.6189 64.0854 28.6541 62.47C28.6919 61.0086 27.3627 61.0594 25.6086 62.5868C24.1966 63.8166 23.6617 64.014 22.34 63.794C17.5597 62.9982 13.0001 55.7123 13.7016 49.9901C14.2961 45.1417 18.0465 40.2976 22.3835 38.778C24.4653 38.0486 24.6456 37.8725 24.3852 36.8254C22.6715 29.9398 23.845 24.4024 27.8566 20.4442C30.3707 17.9634 33.4616 16.5615 37.0216 16.2871C39.8925 16.0657 39.8975 16.0676 39.8922 17.2993C39.8922 18.7951 41.8212 20.9064 42.8432 20.519C43.6422 20.2163 43.8188 18.7178 43.1078 18.2743C42.327 17.7873 42.5903 16.7036 44.4317 12.8283C46.5237 8.42466 48.7513 6.21966 53.2278 4.12115C55.9415 2.84885 56.7133 2.69656 60.1889 2.74766C63.0334 2.78961 64.8007 3.08138 66.6761 3.81873C70.213 5.20922 70.9572 6.13972 70.7958 8.96783C70.724 10.2181 70.7965 11.6594 70.9583 12.1706C71.3366 13.3801 73.7363 13.3825 73.3545 12.2009C72.763 10.3692 73.2185 10.6007 74.4329 11.7454C76.3359 13.538 80.9269 11.5167 80.2409 9.70751C79.9348 8.8979 78.9479 8.8823 77.0861 9.65763C76.1767 10.0363 73.784 7.91948 74.0882 7.0054C74.4057 6.04778 77.1167 4.48948 80.2534 3.4599C89.8284 0.316881 99.7463 6.01381 102.73 16.3711C102.859 16.8237 103.297 16.8854 104.403 16.6077C109.131 15.4217 114.264 17.233 118.068 21.4302C122.433 26.2453 123.781 35.2398 120.553 38.0024C119.17 39.1857 119.007 40.6909 120.228 41.0151C120.733 41.1493 121.425 42.1418 121.91 43.426C122.615 45.2956 122.653 45.9026 122.174 47.6581C121.553 49.9457 121.731 50.5625 123.019 50.5678C125.113 50.5792 125.697 45.4545 124.034 41.653C123.498 40.43 123.176 39.2449 123.317 39.0193C124.066 37.8176 129.464 42.8856 130.893 46.1324C132.348 49.4379 132.351 54.186 130.893 56.9114C129.612 59.3169 127.282 61.9827 125.549 63.0273C124.288 63.7871 124.199 63.7824 123.338 62.9142C122.734 62.3061 121.959 62.0542 120.972 62.1456C119.753 62.2586 119.503 62.476 119.499 63.4254C119.499 64.2053 119.786 64.6243 120.414 64.7433C121.867 65.0192 122.386 65.665 122.704 67.5938C123.12 70.1257 121.903 73.8744 119.915 76.1775C117.819 78.6064 113.315 80.884 110.631 80.873C108.782 80.8617 105.405 79.6622 105.407 79.0119C105.408 78.8528 106.125 78.3843 107 77.9711C108.95 77.0513 110.123 74.9423 109.944 72.6786C109.827 71.2121 109.653 70.9803 108.66 70.9762C107.681 70.9762 107.502 71.1917 107.458 72.4509C107.398 74.1705 106.708 75.1253 104.836 76.0837C103.632 76.7001 103.41 76.6961 102.697 76.0448C101.676 75.1138 100.413 75.1081 100.054 76.0335C99.8763 76.495 100.409 77.4107 101.538 78.5767L103.303 80.3987L102.428 82.007C101.213 84.2423 97.4838 87.5897 94.8884 88.7755C93.1385 89.5751 91.8636 89.7651 88.3457 89.7507C82.9855 89.728 81.0626 88.948 76.9788 85.1362C74.1506 82.496 74.1392 82.4756 74.8218 81.1691C75.7667 79.3596 75.7399 76.3136 74.7765 75.9389C73.6936 75.5182 72.7627 76.4859 72.7563 78.0382C72.7563 79.9258 71.6262 81.8685 68.8778 84.7507C65.4365 88.3599 62.8199 89.5481 57.9904 89.6953C55.8402 89.7614 53.5639 89.6423 52.9323 89.4326L52.9353 89.4314ZM76.5804 40.265C78.6973 39.1962 79.2 38.545 78.474 37.8134C78.0719 37.4076 77.5079 37.5265 76.1442 38.3037C73.8568 39.6078 70.9542 39.6269 68.6011 38.3536C66.5994 37.27 65.3718 37.7216 66.5219 39.1186C68.262 41.2331 73.4854 41.8284 76.5804 40.2652V40.265ZM106.749 34.8597C109.052 33.9948 107.812 33.2571 104.028 33.2417C100.586 33.2266 100.421 33.1755 99.1288 31.7196C97.3342 29.6958 97.3905 28.845 99.3177 28.8529C101.105 28.8642 102.694 27.876 102.199 27.0678C101.976 26.7015 101.358 26.6187 100.405 26.827C96.9498 27.5812 93.6103 26.4361 91.9904 23.9417C91.2378 22.7826 89.5435 22.4212 89.5393 23.419C89.5393 24.4983 92.1883 27.2616 94.0395 28.1055C95.4837 28.7639 95.9301 29.2549 96.1441 30.4204C96.4389 32.0325 98.2572 34.0498 100.071 34.7798C101.588 35.39 105.22 35.4336 106.748 34.8599L106.749 34.8597ZM58.2845 26.1394C59.0091 25.7686 60.1814 24.7445 60.8904 23.8636C61.9487 22.5484 62.4858 22.2631 63.8944 22.2688C66.3666 22.2802 69.3131 21.0142 69.3177 19.9414C69.3177 18.9017 68.1951 18.8235 66.5586 19.7501C64.6658 20.8219 61.0858 20.5816 58.3385 19.1985C56.6649 18.3561 55.7715 18.1274 55.4396 18.4567C54.7113 19.1792 55.4018 19.9225 57.8823 21.0839L60.133 22.1378L58.5596 23.5078C56.3728 25.4123 54.1977 25.7315 51.5316 24.5391C48.9029 23.3634 48.6062 23.3584 48.6017 24.49C48.6017 26.8542 54.8172 27.9147 58.2845 26.1395V26.1394Z" fill="#FF7F2A" stroke="#FF7F2A" stroke-width="1.85134" stroke-linecap="round" stroke-linejoin="round"/>
<path d="M93.6714 92.6504C93.8906 94.322 93.9964 96.008 93.9926 97.6937C93.9892 99.0414 93.9133 100.389 93.7696 101.729C94.7999 101.628 95.8237 101.465 96.8344 101.241C97.3624 101.124 97.9105 100.99 98.4366 101.114C98.7012 101.176 98.9513 101.306 99.1312 101.508C99.3126 101.71 99.4147 101.987 99.3769 102.254C99.3391 102.46 99.2408 102.649 99.101 102.803C98.9611 102.958 98.7911 103.08 98.618 103.194C97.7642 103.754 96.7596 104.132 95.7403 104.081C95.2674 104.058 94.7923 103.938 94.3928 103.684C93.993 103.431 93.6744 103.034 93.5659 102.573C93.5282 102.42 93.5168 102.26 93.5281 102.103" fill="#131313"/>
<path d="M95.1899 90.1602C96.2471 91.0233 96.1125 95.8193 96.007 97.6993C95.9692 98.251 95.6972 99.4111 95.6745 99.9631C96.817 99.9556 97.7789 99.9242 98.5083 100.103C99.1013 100.249 100.276 100.647 100.899 101.136C101.463 101.58 102.074 102.013 101.98 102.97C101.855 104.256 98.641 105.589 95.5641 105.662C93.539 105.855 88.7996 104.232 90.0786 101.726C91.2835 99.5531 91.9445 99.4006 91.9879 97.6847C92.0295 96.0947 91.9501 92.8353 91.5756 91.2168L95.1899 90.1602Z" fill="#131313"/>
<path d="M108.667 72.0176C109.037 73.1927 108.796 74.5438 108.039 75.5166C107.589 76.0959 106.98 76.5344 106.335 76.8862C105.691 77.238 105.007 77.5096 104.337 77.8103C103.986 77.9686 103.636 78.1351 103.291 78.3097" stroke="#FF6600" stroke-width="2.13543" stroke-linecap="round"/>
<path d="M27.3584 62.6092C26.9249 63.4452 26.2391 64.1488 25.4151 64.6046C24.3206 65.2101 23.0004 65.366 21.7759 65.11C20.6035 64.8651 19.5334 64.2646 18.5647 63.5605C15.9591 61.6669 13.9577 58.9415 12.9822 55.8718C11.7916 52.1252 12.1748 47.9043 14.0249 44.4356C15.246 42.146 17.08 40.1912 19.2706 38.8C20.4483 38.052 21.7272 37.4641 23.0622 37.0577C22.9185 36.5495 22.7905 36.0366 22.6801 35.5199C21.9099 31.9133 22.0093 28.0644 23.374 24.6383C24.7604 21.1576 27.4528 18.2147 30.7965 16.5245C34.1403 14.8343 38.106 14.4118 41.731 15.3593M42.4452 76.0516C42.8042 77.0567 42.7322 78.2068 42.256 79.1612C41.7949 80.0837 40.9804 80.801 40.0571 81.2607C38.3189 82.1262 36.2717 82.1067 34.3509 81.8228C32.0405 81.4815 29.7718 80.7786 27.7377 79.6313C25.9632 78.6305 24.3509 77.2629 23.3399 75.4942C22.2835 73.6466 21.9405 71.4789 21.7999 69.3553C21.7054 67.9424 21.694 66.5243 21.762 65.11M74.1679 77.0795C74.2964 77.6343 74.3273 78.2119 74.2593 78.7773C74.0892 80.1672 73.3346 81.4111 72.5356 82.561C71.5219 84.0197 70.4029 85.4121 69.1141 86.6344C67.6212 88.0506 65.8983 89.2345 64.004 90.0377C61.6992 91.015 59.1658 91.4154 56.6645 91.3171C54.3087 91.2245 51.9597 90.6893 49.8473 89.6421C47.1862 88.3228 44.97 86.2306 43.1335 83.8962C42.3364 82.8829 41.6035 81.8191 40.9402 80.7135M101.252 76.5787C101.956 77.1269 102.636 77.7047 103.291 78.31C103.563 78.5602 103.831 78.8169 104.049 79.1144C104.268 79.4118 104.434 79.7544 104.48 80.1204C104.536 80.5613 104.412 81.005 104.257 81.4212C103.659 83.0197 102.569 84.3863 101.395 85.625C100.096 86.995 98.6603 88.2537 97.0222 89.192C94.9329 90.3889 92.557 91.0363 90.1608 91.271C87.0434 91.5763 83.8157 91.179 80.9962 89.8147C79.0104 88.8539 77.2749 87.4435 75.6803 85.9191C74.5714 84.8588 73.5209 83.7372 72.5356 82.561M120.459 63.4078C121.009 63.2494 121.623 63.3215 122.121 63.6039C122.673 63.9168 123.061 64.4588 123.34 65.0297C123.763 65.8998 123.967 66.8632 124.057 67.8268C124.287 70.3145 123.754 72.8771 122.496 75.0352C121.22 77.2228 119.248 78.9431 117.071 80.2371C115.122 81.3953 112.935 82.2509 110.669 82.2897C108.436 82.3279 106.199 81.5439 104.48 80.1204M123.01 36.9306C124.225 37.4401 125.385 38.0774 126.467 38.8289C127.811 39.7629 129.035 40.8749 130.069 42.1438C131.144 43.4622 132.015 44.9523 132.584 46.5549C132.853 47.3075 133.053 48.0833 133.196 48.8692C133.559 50.8668 133.544 52.9424 133.057 54.9138C132.354 57.7648 130.693 60.3148 128.645 62.4193C127.703 63.3873 126.642 64.2922 125.366 64.7363C124.717 64.9623 124.026 65.0625 123.34 65.03M121.352 39.1502C121.876 40.0596 122.351 40.9977 122.773 41.9588C123.314 43.191 123.773 44.4848 123.837 45.829C123.894 47.0698 123.606 48.3254 123.01 49.4154M72.2625 11.8753C71.9223 10.8844 71.825 9.81201 71.9792 8.77604C72.1681 7.51587 72.7321 6.31084 73.5995 5.3776C74.708 4.18486 76.2357 3.48231 77.749 2.88137C79.8712 2.03857 82.0736 1.33138 84.3485 1.13394C87.8184 0.832708 91.3361 1.74877 94.3851 3.4327C97.3622 5.07695 99.9402 7.46444 101.714 10.3659C102.676 11.9394 103.402 13.6577 103.858 15.4447C104.678 15.1192 105.541 14.9062 106.418 14.8135C108.704 14.572 111.012 15.1516 113.117 16.074C116.021 17.3468 118.664 19.3175 120.451 21.937C122.18 24.4718 123.048 27.5044 123.498 30.5397C123.702 31.9112 123.823 33.3081 123.649 34.6835C123.471 36.0588 122.98 37.4209 122.068 38.4653C121.613 38.986 121.061 39.4208 120.448 39.7398M42.4535 19.3093C42.102 19.1097 41.8027 18.819 41.5925 18.4735C41.3847 18.1281 41.2644 17.7285 41.2493 17.3245C41.2493 16.9168 41.3246 16.511 41.4569 16.1256C41.5892 15.7403 41.7704 15.3722 41.9386 15.001C42.7096 13.3118 43.3068 11.5371 44.2426 9.93315C46.0477 6.8387 49.0232 4.56129 52.2483 3.00155C53.895 2.20509 55.6348 1.57233 57.4433 1.2968C60.7292 0.796201 64.0953 1.49605 67.2206 2.62715C68.1965 2.98054 69.1627 3.37876 70.035 3.94044C70.9077 4.50211 71.688 5.23708 72.1831 6.14901C72.7156 7.12927 72.9031 8.27728 73.5045 9.21688C73.8484 9.75572 74.3248 10.2108 74.8812 10.5269C75.4375 10.8429 76.0733 11.0188 76.7128 11.0289C77.5507 11.0402 78.3912 10.766 79.0575 10.2582" stroke="#FF6600" stroke-width="2.13543" stroke-linecap="round"/>
<path d="M55.0792 37.4694C57.1251 38.0752 58.8475 39.4671 59.8689 41.3404C60.8904 43.2136 61.1278 45.4154 60.5289 47.4633C59.9301 49.5112 58.544 51.2382 56.6742 52.266C54.8044 53.2938 52.6034 53.5386 50.5535 52.9467C48.5035 52.3547 46.7719 50.9744 45.7378 49.1081C44.7037 47.2418 44.4515 45.0417 45.0365 42.9898C45.6215 40.9379 46.996 39.2015 48.8588 38.1612C50.7217 37.1208 52.9209 36.8612 54.9747 37.4393" fill="#131313"/>
<path opacity="0.96" d="M50.9538 39.6198C51.6504 39.826 52.2369 40.3 52.5847 40.9378C52.9325 41.5756 53.0134 42.3253 52.8095 43.0226C52.6056 43.7199 52.1335 44.308 51.4969 44.6579C50.8602 45.0079 50.1109 45.0912 49.4129 44.8897C48.7149 44.6881 48.1253 44.2181 47.7732 43.5827C47.4211 42.9472 47.3352 42.1981 47.5344 41.4995C47.7336 40.8008 48.2015 40.2096 48.8358 39.8553C49.4701 39.5011 50.219 39.4127 50.9183 39.6095" fill="white"/>
<path opacity="0.96" d="M56.1361 47.2049C56.5631 47.3313 56.9224 47.6219 57.1356 48.0128C57.3488 48.4038 57.3983 48.8633 57.2733 49.2907C57.1484 49.7181 56.8592 50.0786 56.4689 50.2931C56.0787 50.5076 55.6194 50.5587 55.1915 50.4351C54.7637 50.3116 54.4023 50.0235 54.1864 49.634C53.9706 49.2445 53.918 48.7853 54.0401 48.3571C54.1622 47.9288 54.449 47.5665 54.8378 47.3493C55.2266 47.1322 55.6856 47.078 56.1143 47.1987" fill="white"/>
<path d="M73.0878 60.0084C72.4075 60.0348 71.7117 59.9279 71.0575 59.6543C70.4013 59.3795 69.8099 58.9424 69.3597 58.355C68.7694 57.5842 68.4859 56.6285 68.5626 55.6606C68.608 55.0741 69.1201 54.635 69.7067 54.6788C70.2933 54.7245 70.8586 55.2817 70.8148 55.8685C70.8526 56.855 71.1436 57.1753 71.8867 57.5267C72.223 57.6673 72.6094 57.7275 73.0013 57.7112C73.3755 57.6961 73.747 57.6254 74.0422 57.4527C74.7901 57.0147 74.9364 56.6208 75.0668 55.8892C75.0101 55.3021 75.4409 54.7798 76.0264 54.7229C76.616 54.6658 77.1394 55.0997 77.1927 55.6899C77.2759 56.5722 77.0491 57.4519 76.5506 58.185C76.1515 58.773 75.6088 59.2244 75.0003 59.5285C74.3945 59.8312 73.7346 59.9814 73.0886 60.0084H73.0878Z" fill="#131313"/>
<path d="M95.4372 37.5798C97.483 38.1856 99.2054 39.5776 100.227 41.4508C101.248 43.3241 101.486 45.5258 100.887 47.5737C100.288 49.6216 98.9019 51.3487 97.0321 52.3765C95.1623 53.4043 92.9613 53.649 90.9114 53.0571C88.8615 52.4652 87.1298 51.0848 86.0957 49.2185C85.0616 47.3522 84.8094 45.1521 85.3944 43.1002C85.9794 41.0483 87.3539 39.3119 89.2168 38.2716C91.0796 37.2312 93.2788 36.9715 95.3327 37.5496" fill="#131313"/>
<path opacity="0.96" d="M91.3113 39.7301C92.0079 39.9364 92.5943 40.4103 92.9421 41.0482C93.2899 41.686 93.3708 42.4357 93.1669 43.133C92.963 43.8303 92.4909 44.4183 91.8543 44.7683C91.2177 45.1182 90.4683 45.2015 89.7703 45C89.0723 44.7985 88.4827 44.3285 88.1306 43.693C87.7785 43.0575 87.6926 42.3084 87.8918 41.6098C88.091 40.9111 88.559 40.3199 89.1932 39.9657C89.8275 39.6114 90.5764 39.523 91.2757 39.7199" fill="white"/>
<path opacity="0.96" d="M96.4935 47.3153C96.9205 47.4417 97.2799 47.7322 97.493 48.1232C97.7062 48.5141 97.7559 48.9736 97.6309 49.4011C97.5059 49.8285 97.2166 50.1889 96.8264 50.4034C96.4361 50.6179 95.9768 50.669 95.549 50.5455C95.1211 50.4219 94.7597 50.1338 94.5439 49.7443C94.328 49.3548 94.2754 48.8957 94.3975 48.4674C94.5196 48.0392 94.8064 47.6768 95.1952 47.4597C95.584 47.2425 96.043 47.1884 96.4717 47.309" fill="white"/>
<path d="M28.9685 57.4209C25.6667 57.1049 22.4113 56.302 19.3416 55.046C15.8716 53.6262 12.6075 51.6004 10.0681 48.842C7.33697 45.8756 5.50536 42.0915 4.87305 38.1092" stroke="#131313" stroke-width="2.51339" stroke-linecap="round"/>
<path d="M10.8464 38.8271C11.4662 38.6437 11.9883 38.2219 12.2978 37.6543C12.6073 37.0868 12.6795 36.4197 12.4981 35.7992C12.3166 35.1787 11.8964 34.6554 11.3299 34.344C10.7633 34.0326 10.0963 33.9586 9.47518 34.138C8.85415 34.3174 8.3296 34.7355 8.01633 35.3009C7.70307 35.8663 7.62685 36.533 7.8041 37.1547C7.98134 37.7763 8.39781 38.3022 8.96214 38.6175C9.52646 38.9327 10.1928 39.0114 10.815 38.8364M6.50028 39.1722C7.70267 38.8162 8.71522 37.998 9.31555 36.897C9.91587 35.796 10.0551 34.5022 9.70309 33.2986C9.35114 32.095 8.53669 31.08 7.43778 30.4759C6.33886 29.8719 5.04482 29.7278 3.84003 30.0757C2.63524 30.4236 1.61776 31.2349 1.01 32.3318C0.402232 33.4287 0.2537 34.7217 0.597533 35.9277C0.941369 37.1336 1.74959 38.1541 2.8444 38.7656C3.9392 39.377 5.23136 39.5297 6.43845 39.19" fill="#131313"/>
<path d="M116.678 56.7637C119.98 56.4477 123.234 55.6448 126.304 54.3888C129.774 52.969 133.039 50.9429 135.578 48.1845C138.309 45.2181 140.14 41.4343 140.773 37.452" stroke="#131313" stroke-width="2.51339" stroke-linecap="round"/>
<path d="M134.799 38.1699C134.179 37.9864 133.657 37.5647 133.348 36.9971C133.038 36.4296 132.967 35.7624 133.148 35.142C133.329 34.5215 133.749 33.9982 134.316 33.6868C134.882 33.3754 135.549 33.3012 136.17 33.4806C136.792 33.6599 137.316 34.0782 137.629 34.6437C137.943 35.2091 138.019 35.8756 137.842 36.4972C137.664 37.1188 137.248 37.645 136.684 37.9602C136.12 38.2754 135.453 38.354 134.831 38.1789M139.145 38.515C137.943 38.159 136.93 37.3408 136.33 36.2398C135.73 35.1388 135.591 33.8447 135.943 32.6411C136.295 31.4375 137.109 30.4225 138.208 29.8185C139.307 29.2144 140.6 29.0706 141.805 29.4185C143.01 29.7664 144.028 30.5776 144.636 31.6745C145.243 32.7714 145.391 34.0645 145.048 35.2705C144.704 36.4764 143.896 37.4969 142.801 38.1083C141.706 38.7198 140.414 38.8725 139.207 38.5328" fill="#131313"/>
<g style="mix-blend-mode:color-dodge" opacity="0.9">
<path d="M47.6204 23.9119C48.1446 25.3867 47.9359 27.3608 47.0401 29.4015C46.1443 31.4423 44.6344 33.3835 42.8412 34.7997C41.048 36.2159 39.1177 36.9917 37.4733 36.9571C35.8289 36.9226 34.6045 36.0805 34.0682 34.6153C33.5319 33.1501 33.7276 31.1813 34.6123 29.1403C35.497 27.0993 36.9987 25.1525 38.7882 23.7263C40.5778 22.3002 42.5094 21.5111 44.1598 21.5319C45.8101 21.5527 47.0447 22.3817 47.5931 23.8372" fill="white"/>
</g>
<g style="mix-blend-mode:color-dodge" opacity="0.9">
<path d="M34.7913 36.7124C35.4338 37.1752 35.8508 37.9855 35.9507 38.9657C36.0507 39.9458 35.8254 41.0159 35.3244 41.9416C34.8234 42.8672 34.0875 43.5729 33.2779 43.904C32.4683 44.2351 31.651 44.1646 31.0051 43.708C30.3592 43.2514 29.9373 42.4459 29.8319 41.468C29.7265 40.4901 29.9461 39.4195 30.4427 38.4907C30.9394 37.562 31.6725 36.8509 32.4814 36.5132C33.2903 36.1755 34.1091 36.2388 34.7584 36.6891" fill="white"/>
</g>
<path d="M42.5508 66.3193C43.2572 68.3961 44.8212 70.1663 46.7951 71.1232C48.9193 72.1528 51.5033 72.2146 53.6493 71.2312C55.241 70.5019 56.5722 69.2184 57.359 67.6544" stroke="#0F1EB3" stroke-width="1.37953" stroke-linecap="round"/>
<path d="M96.7303 28.0898C96.598 29.3996 96.953 30.753 97.7093 31.8299C98.7207 33.2685 100.398 34.1593 102.135 34.4385C103.711 34.6921 105.36 34.4724 106.815 33.8124" stroke="#FF6F11" stroke-width="1.37953" stroke-linecap="round"/>
<path d="M49.3442 24.5687C50.6187 25.558 52.2042 26.1406 53.8158 26.2117C55.4206 26.2824 57.0445 25.8461 58.3972 24.9801C59.7503 24.1142 60.8267 22.8228 61.4349 21.3359" stroke="#FF6F11" stroke-width="1.37953" stroke-linecap="round"/>
<path d="M56.0264 18.999C57.2275 19.8954 58.591 20.5732 60.031 20.9891C61.3595 21.3728 62.7566 21.5339 64.1335 21.4074C65.7107 21.2622 67.2522 20.737 68.5894 19.8883" stroke="#FF6F11" stroke-width="1.37953" stroke-linecap="round"/>
<path d="M90.5693 23.5771C91.524 25.3906 93.149 26.8415 95.0584 27.5857C97.0828 28.3748 99.4087 28.3583 101.422 27.5408" stroke="#FF6F11" stroke-width="1.37953" stroke-linecap="round"/>
<path d="M67.0801 38.5032C68.4747 39.6911 70.2839 40.3824 72.1154 40.4271C74.2017 40.4781 76.297 39.681 77.8217 38.2563" stroke="#FF6F11" stroke-width="1.37953" stroke-linecap="round"/>
<path d="M78.6494 73.4614C80.3442 75.1592 82.7124 76.1661 85.1109 76.2086C87.9844 76.2596 90.8361 74.9127 92.6782 72.7068C93.7705 71.3986 94.5302 69.7557 94.5283 68.0514C94.5276 67.4068 94.4189 66.7623 94.2072 66.1533" stroke="#FF6F11" stroke-width="1.37953" stroke-linecap="round"/>
<path d="M93.2827 71.9065C94.2147 72.9095 95.5276 73.5492 96.892 73.665C98.2908 73.7837 99.7328 73.3471 100.818 72.4565C101.629 71.7911 102.233 70.8913 102.613 69.9134C103.031 68.8358 103.183 67.6563 103.052 66.5078" stroke="#FF6F11" stroke-width="1.37953" stroke-linecap="round"/>
<path d="M42.5508 66.3193C43.2572 68.3961 44.8209 70.1663 46.7949 71.1231C48.919 72.1528 51.503 72.2144 53.649 71.2311C55.2406 70.5018 56.572 69.2183 57.3589 67.6543" stroke="#FF6F11" stroke-width="1.37953" stroke-linecap="round"/>
<path d="M47.3638 54.6187C48.9661 54.8155 50.3147 55.268 51.1147 55.8768C51.9148 56.4857 52.1005 57.2011 51.6315 57.8667C51.1625 58.5323 50.0767 59.0937 48.6123 59.4278C47.1479 59.7618 45.4241 59.8414 43.8187 59.649C42.2132 59.4566 40.8573 59.0078 40.0474 58.4012C39.2376 57.7946 39.0402 57.0796 39.4984 56.4127C39.9566 55.7458 41.0328 55.1815 42.4918 54.8434C43.9507 54.5052 45.6731 54.4209 47.2817 54.6088" fill="#FF6F11"/>
<path d="M47.3638 54.6187C48.9661 54.8155 50.3147 55.268 51.1147 55.8768C51.9148 56.4857 52.1005 57.2011 51.6315 57.8667C51.1625 58.5323 50.0767 59.0937 48.6123 59.4278C47.1479 59.7618 45.4241 59.8414 43.8187 59.649C42.2132 59.4566 40.8573 59.0078 40.0474 58.4012C39.2376 57.7946 39.0402 57.0796 39.4984 56.4127C39.9566 55.7458 41.0328 55.1815 42.4918 54.8434C43.9507 54.5052 45.6731 54.4209 47.2817 54.6088" stroke="#FF6600" stroke-width="0.888189" stroke-linecap="round" stroke-linejoin="round"/>
<path d="M102.253 54.7329C103.856 54.9297 105.204 55.3822 106.004 55.991C106.804 56.5998 106.99 57.3153 106.521 57.9809C106.052 58.6465 104.967 59.2079 103.503 59.5419C102.038 59.876 100.315 59.9555 98.7092 59.7632C97.1038 59.5708 95.7469 59.1219 94.9371 58.5154C94.1272 57.9088 93.9299 57.194 94.388 56.5271C94.8462 55.8603 95.9225 55.2959 97.3814 54.9578C98.8403 54.6196 100.563 54.5351 102.171 54.7229" fill="#FF6F11"/>
<path d="M102.253 54.7329C103.856 54.9297 105.204 55.3822 106.004 55.991C106.804 56.5998 106.99 57.3153 106.521 57.9809C106.052 58.6465 104.967 59.2079 103.503 59.5419C102.038 59.876 100.315 59.9555 98.7092 59.7632C97.1038 59.5708 95.7469 59.1219 94.9371 58.5154C94.1272 57.9088 93.9299 57.194 94.388 56.5271C94.8462 55.8603 95.9225 55.2959 97.3814 54.9578C98.8403 54.6196 100.563 54.5351 102.171 54.7229" stroke="#FF6600" stroke-width="0.888189" stroke-linecap="round" stroke-linejoin="round"/>
<path d="M97.2797 30.126C101.052 31.2428 104.227 33.8093 106.11 37.2631C107.994 40.7169 108.431 44.7763 107.327 48.5521C106.223 52.3279 103.667 55.5124 100.22 57.4074C96.7721 59.3024 92.7149 59.7534 88.9354 58.6621C85.1559 57.5707 81.9625 55.0257 80.0559 51.5847C78.1493 48.1436 77.6845 44.0872 78.7631 40.304C79.8418 36.5209 82.3755 33.3194 85.8101 31.4012C89.2446 29.483 93.3 29.0044 97.0868 30.0702" fill="url(#paint0_linear_101_1368)"/>
<path d="M97.2797 30.126C101.052 31.2428 104.227 33.8093 106.11 37.2631C107.994 40.7169 108.431 44.7763 107.327 48.5521C106.223 52.3279 103.667 55.5124 100.22 57.4074C96.7721 59.3024 92.7149 59.7534 88.9354 58.6621C85.1559 57.5707 81.9625 55.0257 80.0559 51.5847C78.1493 48.1436 77.6845 44.0872 78.7631 40.304C79.8418 36.5209 82.3755 33.3194 85.8101 31.4012C89.2446 29.483 93.3 29.0044 97.0868 30.0702" stroke="black" stroke-width="0.944882" stroke-linecap="round" stroke-linejoin="round"/>
<path d="M56.9213 30.015C60.6934 31.1318 63.8685 33.6985 65.7519 37.1523C67.6352 40.6062 68.0731 44.6655 66.969 48.4413C65.8649 52.2172 63.3086 55.4016 59.8611 57.2966C56.4137 59.1916 52.3556 59.6429 48.5761 58.5515C44.7965 57.4601 41.6041 54.9149 39.6975 51.4739C37.7909 48.0328 37.3261 43.9764 38.4047 40.1932C39.4834 36.41 42.018 33.2086 45.4526 31.2904C48.8872 29.3722 52.9416 28.8935 56.7284 29.9594" fill="url(#paint1_linear_101_1368)"/>
<path d="M56.9213 30.015C60.6934 31.1318 63.8685 33.6985 65.7519 37.1523C67.6352 40.6062 68.0731 44.6655 66.969 48.4413C65.8649 52.2172 63.3086 55.4016 59.8611 57.2966C56.4137 59.1916 52.3556 59.6429 48.5761 58.5515C44.7965 57.4601 41.6041 54.9149 39.6975 51.4739C37.7909 48.0328 37.3261 43.9764 38.4047 40.1932C39.4834 36.41 42.018 33.2086 45.4526 31.2904C48.8872 29.3722 52.9416 28.8935 56.7284 29.9594" stroke="black" stroke-width="0.944882" stroke-linecap="round" stroke-linejoin="round"/>
<path d="M67.5654 44.2689C68.7794 43.4046 70.2102 42.8476 71.6891 42.6638C73.9686 42.3807 76.3488 43.0085 78.1917 44.3799" stroke="black" stroke-width="0.999999"/>
<defs>
<linearGradient id="paint0_linear_101_1368" x1="79.0354" y1="25.6983" x2="101.093" y2="54.9936" gradientUnits="userSpaceOnUse">
<stop stop-color="#FF6600" stop-opacity="0.8"/>
<stop offset="1" stop-color="white" stop-opacity="0"/>
</linearGradient>
<linearGradient id="paint1_linear_101_1368" x1="35.8979" y1="24.0625" x2="60.7942" y2="55.2278" gradientUnits="userSpaceOnUse">
<stop stop-color="#FF6600" stop-opacity="0.8"/>
<stop offset="1" stop-color="white" stop-opacity="0"/>
</linearGradient>
</defs>
</svg>
