<svg width="146" height="107" viewBox="0 0 146 107" fill="none" xmlns="http://www.w3.org/2000/svg">
<path d="M52.419 93.1318C52.1997 94.8034 52.0939 96.4894 52.0977 98.1752C52.1011 99.5229 52.1771 100.87 52.3207 102.21C51.29 102.11 50.2661 101.947 49.2559 101.723C48.7275 101.605 48.1794 101.471 47.6533 101.596C47.3887 101.658 47.1385 101.788 46.959 101.989C46.7776 102.191 46.6756 102.468 46.7134 102.736C46.7512 102.942 46.8494 103.131 46.9893 103.285C47.1291 103.439 47.2992 103.562 47.4727 103.676C48.3261 104.235 49.331 104.613 50.35 104.562C50.8232 104.54 51.2983 104.419 51.6978 104.166C52.0977 103.912 52.4163 103.515 52.5248 103.054C52.5626 102.901 52.5739 102.742 52.5626 102.585" fill="#131313"/>
<path d="M50.9005 90.6426C49.8433 91.5057 49.9778 96.3017 50.0829 98.1817C50.1207 98.7334 50.3929 99.8935 50.4156 100.446C49.2726 100.438 48.3107 100.407 47.5817 100.586C46.9886 100.731 45.8136 101.13 45.1915 101.619C44.6272 102.062 44.0156 102.495 44.1097 103.452C44.2345 104.738 47.4486 106.071 50.5259 106.145C52.5509 106.337 57.2905 104.715 56.0111 102.208C54.8062 100.036 54.1452 99.883 54.1017 98.1671C54.0601 96.5772 54.1395 93.3178 54.5141 91.6992L50.9005 90.6426Z" fill="#131313"/>
<path d="M53.1985 90.0671C50.4387 89.1492 48.1257 87.5578 45.6811 84.895C43.7906 82.8362 43.1541 81.8297 43.4032 81.291C43.5922 80.8799 43.8356 79.4862 43.9418 78.1939C44.1005 76.2916 43.9871 75.7859 43.3502 75.5388C42.2942 75.1288 41.1785 76.118 41.4597 77.2139C42.3188 80.5545 37.8015 82.1779 32.2793 80.5128C26.5215 78.7768 23.863 75.598 23.4839 69.9971C23.2798 66.96 23.2987 66.8917 24.3831 66.8961C26.2709 66.9075 28.8822 64.7212 28.9174 63.1058C28.9552 61.6444 27.6263 61.6952 25.8718 63.2226C24.4602 64.4524 23.925 64.6498 22.6033 64.4298C17.8229 63.634 13.2633 56.348 13.9648 50.6259C14.5593 45.7774 18.3097 40.9334 22.6468 39.4138C24.7285 38.6844 24.9088 38.5083 24.6484 37.4611C22.9348 30.5756 24.1083 25.0381 28.1199 21.08C30.634 18.5992 33.7249 17.1972 37.2849 16.9229C40.1562 16.7014 40.1607 16.7033 40.1554 17.935C40.1554 19.4308 42.0845 21.5422 43.1065 21.1548C43.9055 20.852 44.082 19.3536 43.3711 18.9101C42.5902 18.4231 42.8536 17.3394 44.695 13.464C46.787 9.06041 49.0146 6.8554 53.4911 4.7569C56.2048 3.48459 56.9766 3.3323 60.4522 3.3834C63.2967 3.42536 65.064 3.71712 66.9394 4.45447C70.4762 5.84496 71.2205 6.77546 71.0591 9.60357C70.9873 10.8539 71.0599 12.2952 71.2217 12.8064C71.6 14.0159 73.9996 14.0182 73.6179 12.8367C73.0264 11.005 73.4818 11.2364 74.6961 12.3811C76.5991 14.1737 81.1901 12.1525 80.5042 10.3433C80.198 9.53364 79.2111 9.51804 77.3493 10.2934C76.44 10.672 74.0472 8.55522 74.3515 7.64114C74.669 6.68352 77.38 5.12522 80.5166 4.09564C90.0917 0.952623 100.01 6.64955 102.993 17.0069C103.122 17.4595 103.56 17.5212 104.666 17.2435C109.394 16.0575 114.527 17.8687 118.332 22.0659C122.696 26.881 124.045 35.8756 120.816 38.6381C119.433 39.8214 119.27 41.3266 120.491 41.6508C120.996 41.785 121.689 42.7776 122.173 44.0618C122.878 45.9314 122.917 46.5383 122.438 48.2938C121.816 50.5814 121.995 51.1982 123.282 51.2036C125.377 51.2149 125.96 46.0901 124.297 42.2887C123.762 41.0657 123.439 39.8807 123.58 39.6551C124.329 38.4534 129.728 43.5212 131.156 46.768C132.611 50.0736 132.614 54.8217 131.156 57.5472C129.875 59.9526 127.546 62.6185 125.812 63.663C124.552 64.4228 124.462 64.4182 123.601 63.55C122.998 62.9419 122.222 62.69 121.235 62.7814C120.016 62.8944 119.766 63.1117 119.762 64.0611C119.762 64.8411 120.05 65.2601 120.677 65.3791C122.13 65.655 122.649 66.3007 122.967 68.2295C123.384 70.7615 122.166 74.5102 120.178 76.8133C118.082 79.2422 113.578 81.5198 110.894 81.5088C109.045 81.4974 105.668 80.2979 105.671 79.6477C105.671 79.4886 106.388 79.0201 107.264 78.6069C109.213 77.6871 110.386 75.5781 110.207 73.3144C110.09 71.8479 109.916 71.6161 108.923 71.612C107.944 71.612 107.765 71.8274 107.721 73.0867C107.661 74.8063 106.971 75.761 105.099 76.7195C103.895 77.3359 103.674 77.3319 102.96 76.6806C101.94 75.7496 100.677 75.7439 100.317 76.6692C100.14 77.1308 100.673 78.0464 101.802 79.2124L103.566 81.0344L102.691 82.6428C101.476 84.8781 97.7471 88.2255 95.1517 89.4112C93.4018 90.2108 92.127 90.4008 88.609 90.3864C83.2489 90.3637 81.3258 89.5838 77.2421 85.772C74.4138 83.1318 74.4025 83.1113 75.085 81.8048C76.0299 79.9953 76.0031 76.9493 75.0397 76.5746C73.9569 76.154 73.0259 77.1216 73.0195 78.6739C73.0195 80.5615 71.8895 82.5042 69.141 85.3864C65.6997 88.9956 63.0832 90.1838 58.2537 90.331C56.1035 90.3971 53.8271 90.2781 53.1955 90.0683L53.1985 90.0671ZM76.8437 40.9007C78.961 39.8319 79.4633 39.1808 78.7376 38.4491C78.3354 38.0434 77.7716 38.1622 76.4076 38.9395C74.1202 40.2436 71.2174 40.2627 68.8646 38.9894C66.8626 37.9057 65.6351 38.3574 66.7856 39.7544C68.5257 41.8689 73.749 42.4642 76.8437 40.9009V40.9007ZM107.013 35.4955C109.316 34.6306 108.075 33.8928 104.292 33.8774C100.849 33.8622 100.684 33.8113 99.3923 32.3553C97.5978 30.3316 97.6537 29.4808 99.5813 29.4886C101.369 29.5 102.958 28.5117 102.463 27.7035C102.24 27.3373 101.622 27.2545 100.669 27.4627C97.2134 28.2169 93.8738 27.0719 92.2543 24.5774C91.5014 23.4183 89.8071 23.0569 89.8029 24.0547C89.8029 25.134 92.4524 27.8973 94.3032 28.7412C95.7478 29.3996 96.1937 29.8906 96.408 31.0561C96.7028 32.6682 98.5212 34.6855 100.335 35.4156C101.852 36.0258 105.484 36.0693 107.011 35.4957L107.013 35.4955ZM58.5477 26.7751C59.2722 26.4043 60.4446 25.3802 61.1537 24.4993C62.212 23.1841 62.749 22.8989 64.1577 22.9046C66.6298 22.9159 69.5764 21.65 69.5809 20.5771C69.5809 19.5374 68.4584 19.4592 66.8218 20.3859C64.929 21.4577 61.3491 21.2174 58.6018 19.8342C56.9282 18.9919 56.0347 18.7631 55.7029 19.0924C54.9745 19.8149 55.6651 20.5582 58.1456 21.7196L60.3963 22.7735L58.8229 24.1435C56.636 26.048 54.4609 26.3673 51.7948 25.1749C49.1662 23.9992 48.8695 23.9941 48.865 25.1257C48.865 27.4899 55.0804 28.5504 58.5477 26.7752V26.7751Z" fill="#FF7F2A" stroke="#FF7F2A" stroke-width="1.85134" stroke-linecap="round" stroke-linejoin="round"/>
<path d="M108.93 72.6553C109.301 73.8304 109.059 75.1814 108.302 76.1542C107.852 76.7335 107.242 77.1721 106.598 77.5239C105.954 77.8758 105.27 78.1475 104.601 78.4481C104.248 78.6065 103.899 78.7727 103.555 78.9474" stroke="#FF6600" stroke-width="2.13543" stroke-linecap="round"/>
<path d="M93.935 93.2861C94.1543 94.9577 94.26 96.6437 94.2563 98.3295C94.2529 99.6772 94.1769 101.025 94.0333 102.365C95.0632 102.264 96.087 102.101 97.0981 101.877C97.6257 101.76 98.1738 101.626 98.6999 101.75C98.9645 101.812 99.2147 101.942 99.395 102.143C99.5764 102.345 99.6783 102.622 99.6406 102.89C99.6028 103.096 99.5045 103.285 99.3647 103.439C99.2248 103.593 99.0548 103.716 98.8821 103.83C98.0283 104.389 97.0236 104.768 96.0039 104.717C95.5315 104.694 95.056 104.574 94.6565 104.32C94.2566 104.066 93.9381 103.67 93.8296 103.209C93.7918 103.055 93.7804 102.896 93.7918 102.739" fill="#131313"/>
<path d="M95.4538 90.7969C96.5113 91.66 96.3764 96.456 96.2713 98.336C96.2335 98.8877 95.9613 100.048 95.9387 100.6C97.0812 100.592 98.0432 100.561 98.7726 100.74C99.3656 100.886 100.54 101.284 101.163 101.773C101.727 102.217 102.338 102.649 102.244 103.607C102.119 104.892 98.9052 106.226 95.8283 106.299C93.8032 106.491 89.0637 104.869 90.3427 102.362C91.5476 100.19 92.2086 100.037 92.2521 98.3214C92.2937 96.7315 92.2143 93.4721 91.8397 91.8535L95.4538 90.7969Z" fill="#131313"/>
<path d="M27.6209 63.2457C27.1875 64.0817 26.5026 64.7853 25.6786 65.2411C24.5839 65.8467 23.2638 66.0027 22.0393 65.7467C20.8671 65.5014 19.7966 64.9012 18.8279 64.1972C16.2224 62.3036 14.2213 59.5781 13.2459 56.5084C12.0554 52.7617 12.4384 48.541 14.2883 45.0723C15.5094 42.7827 17.343 40.8279 19.5335 39.4368C20.7113 38.6887 21.9907 38.1009 23.3255 37.6945C23.1807 37.1863 23.0533 36.6733 22.943 36.1567C22.1729 32.55 22.2729 28.7011 23.6377 25.2749C25.0242 21.7942 27.7161 18.8515 31.0599 17.1613C34.4037 15.4711 38.3696 15.0483 41.9945 15.9959M42.7084 76.6884C43.0664 77.6935 42.9964 78.8434 42.5195 79.7978C42.0583 80.7203 41.2433 81.4376 40.3201 81.8973C38.582 82.7628 36.535 82.7434 34.6142 82.4595C32.3039 82.1182 30.035 81.4153 28.0008 80.2681C26.2263 79.2673 24.614 77.8996 23.6029 76.1309C22.5466 74.2832 22.2041 72.1157 22.0635 69.9921C21.9698 68.5792 21.9573 67.161 22.0257 65.7467M74.4315 77.7162C74.5607 78.271 74.5914 78.8485 74.5223 79.414C74.3522 80.8038 73.5974 82.0479 72.7984 83.1978C71.7848 84.6564 70.6662 86.0487 69.3775 87.2711C67.8845 88.6872 66.1611 89.8712 64.2665 90.6745C61.9619 91.6516 59.4294 92.052 56.9282 91.9538C54.5723 91.8612 52.2222 91.3261 50.1099 90.2788C47.4489 88.9595 45.2326 86.8672 43.3963 84.5328C42.5991 83.5195 41.866 82.4557 41.2027 81.35M101.515 77.2153C102.218 77.7635 102.899 78.3412 103.554 78.9465C103.825 79.1967 104.093 79.4536 104.311 79.751C104.529 80.0485 104.697 80.3911 104.743 80.7571C104.798 81.1979 104.676 81.6417 104.52 82.0578C103.921 83.6563 102.832 85.023 101.658 86.2616C100.359 87.6317 98.9232 88.8904 97.2851 89.8288C95.1959 91.0255 92.82 91.6729 90.4238 91.9076C87.3062 92.213 84.0786 91.8157 81.2588 90.4513C79.2731 89.4905 77.5374 88.0802 75.9429 86.5559C74.8338 85.4956 73.7834 84.3739 72.798 83.1978M120.722 64.0444C121.272 63.886 121.885 63.9586 122.383 64.2406C122.936 64.5535 123.324 65.0955 123.602 65.6665C124.026 66.5366 124.23 67.4998 124.319 68.4634C124.55 70.9511 124.017 73.5138 122.759 75.6719C121.483 77.8595 119.511 79.5798 117.334 80.8738C115.385 82.032 113.198 82.8876 110.932 82.9265C108.7 82.9646 106.463 82.1806 104.743 80.7571M123.273 37.5671C124.487 38.0766 125.648 38.7141 126.73 39.4655C128.075 40.3995 129.298 41.5115 130.332 42.7803C131.407 44.0987 132.278 45.589 132.847 47.1916C133.115 47.9442 133.316 48.7199 133.459 49.5058C133.823 51.5035 133.806 53.5791 133.32 55.5504C132.617 58.4015 130.956 60.9513 128.908 63.0559C127.966 64.0239 126.905 64.9288 125.629 65.3729C124.98 65.5989 124.288 65.6991 123.602 65.6666M121.615 39.7869C122.139 40.6962 122.614 41.6342 123.036 42.5953C123.577 43.8275 124.036 45.1215 124.1 46.4656C124.158 47.7065 123.869 48.962 123.273 50.052M72.5251 12.5121C72.1857 11.5212 72.0875 10.4486 72.2416 9.41265C72.4291 8.15248 72.9946 6.94757 73.8619 6.01433C74.9704 4.82158 76.4989 4.11887 78.0123 3.51792C80.1347 2.67512 82.3358 1.96811 84.6109 1.77066C88.0808 1.46943 91.5993 2.38533 94.6482 4.06926C97.6251 5.7135 100.203 8.10117 101.977 11.0026C102.94 12.5761 103.664 14.2943 104.12 16.0813C104.94 15.7558 105.804 15.5429 106.681 15.4502C108.967 15.2087 111.275 15.7881 113.38 16.7105C116.284 17.9834 118.926 19.9543 120.713 22.5738C122.443 25.1086 123.311 28.1411 123.761 31.1764C123.964 32.548 124.088 33.9447 123.912 35.3201C123.736 36.6954 123.242 38.0576 122.33 39.102C121.876 39.6227 121.323 40.0574 120.71 40.3764M42.7163 19.946C42.3648 19.7465 42.0654 19.4556 41.8555 19.1101C41.6453 18.7647 41.5252 18.3652 41.5097 17.9612C41.4946 17.5535 41.5833 17.1476 41.7171 16.7623C41.8509 16.377 42.0293 16.0089 42.1989 15.6378C42.97 13.9486 43.5668 12.1737 44.5025 10.5698C46.3076 7.47531 49.2835 5.19784 52.5086 3.63811C54.1555 2.84165 55.8951 2.209 57.7036 1.93347C60.9894 1.43287 64.3552 2.13261 67.4805 3.26371C68.4563 3.61709 69.4231 4.01549 70.2957 4.57716C71.1682 5.13884 71.9478 5.87381 72.443 6.78573C72.9753 7.76599 73.1634 8.91395 73.7647 9.85354C74.1094 10.3924 74.5853 10.8474 75.1415 11.1635C75.6978 11.4795 76.3335 11.6556 76.9732 11.6657C77.811 11.677 78.6508 11.4026 79.3173 10.8947" stroke="#FF6600" stroke-width="2.13543" stroke-linecap="round"/>
<path d="M55.343 38.1062C57.3888 38.7119 59.1112 40.1038 60.1327 41.9771C61.1541 43.8504 61.3914 46.0521 60.7926 48.1C60.1938 50.1479 58.8076 51.875 56.9378 52.9028C55.068 53.9306 52.867 54.1753 50.8171 53.5834C48.7672 52.9915 47.0356 51.6111 46.0015 49.7448C44.9674 47.8785 44.7152 45.6784 45.3002 43.6265C45.8852 41.5746 47.2597 39.8383 49.1225 38.7979C50.9853 37.7575 53.1846 37.4979 55.2385 38.076" fill="#131313"/>
<path opacity="0.96" d="M51.217 40.2565C51.9136 40.4628 52.5001 40.9367 52.8479 41.5745C53.1957 42.2123 53.2765 42.962 53.0726 43.6593C52.8688 44.3566 52.3968 44.9447 51.7601 45.2946C51.1235 45.6446 50.374 45.7279 49.6761 45.5264C48.9781 45.3248 48.3885 44.8548 48.0364 44.2194C47.6843 43.5839 47.5984 42.8348 47.7976 42.1361C47.9968 41.4375 48.4648 40.8463 49.0991 40.492C49.7333 40.1378 50.4821 40.0494 51.1814 40.2462" fill="white"/>
<path opacity="0.96" d="M56.3992 47.8417C56.8262 47.9682 57.1857 48.2586 57.3989 48.6496C57.612 49.0405 57.6615 49.5001 57.5366 49.9275C57.4116 50.3549 57.1223 50.7153 56.7321 50.9298C56.3418 51.1443 55.8825 51.1954 55.4547 51.0719C55.0268 50.9484 54.6654 50.6602 54.4496 50.2707C54.2338 49.8812 54.1812 49.4221 54.3033 48.9938C54.4253 48.5656 54.7122 48.2032 55.101 47.9861C55.4898 47.769 55.9488 47.7147 56.3774 47.8354" fill="white"/>
<path d="M73.3517 60.6451C72.671 60.6715 71.9753 60.5646 71.321 60.291C70.6649 60.0162 70.0738 59.5791 69.6233 58.9918C69.0333 58.2209 68.7498 57.2653 68.8262 56.2974C68.8715 55.7108 69.3836 55.2717 69.9706 55.3155C70.5568 55.3612 71.1227 55.9184 71.0788 56.5052C71.1166 57.4917 71.4075 57.812 72.1502 58.1634C72.4866 58.304 72.8733 58.3642 73.2652 58.3479C73.6394 58.3328 74.0109 58.2621 74.3061 58.0894C75.0537 57.6514 75.2 57.2575 75.3308 56.5259C75.2741 55.9388 75.7049 55.4165 76.29 55.3596C76.8796 55.3025 77.4031 55.7365 77.4568 56.3267C77.5399 57.209 77.3131 58.0886 76.8142 58.8217C76.4155 59.4097 75.8727 59.8611 75.2642 60.1652C74.6584 60.4679 73.9981 60.6181 73.3525 60.6451H73.3517Z" fill="#131313"/>
<path d="M95.7003 38.2165C97.7462 38.8223 99.4685 40.2142 100.49 42.0875C101.512 43.9607 101.749 46.1625 101.15 48.2104C100.551 50.2583 99.1651 51.9853 97.2953 53.0131C95.4255 54.0409 93.2244 54.2857 91.1745 53.6937C89.1246 53.1018 87.393 51.7215 86.3589 49.8552C85.3248 47.9888 85.0726 45.7887 85.6576 43.7368C86.2426 41.685 87.6171 39.9486 89.4799 38.9082C91.3428 37.8678 93.542 37.6083 95.5958 38.1864" fill="#131313"/>
<path opacity="0.96" d="M91.5749 40.3669C92.2715 40.5731 92.858 41.0471 93.2058 41.6849C93.5536 42.3227 93.6345 43.0724 93.4306 43.7697C93.2267 44.467 92.7546 45.055 92.118 45.405C91.4813 45.755 90.7319 45.8383 90.034 45.6367C89.336 45.4352 88.7464 44.9652 88.3943 44.3297C88.0422 43.6943 87.9563 42.9452 88.1555 42.2465C88.3547 41.5479 88.8226 40.9566 89.4569 40.6024C90.0912 40.2481 90.8401 40.1598 91.5394 40.3566" fill="white"/>
<path opacity="0.96" d="M96.7572 47.952C97.1841 48.0784 97.5435 48.3689 97.7567 48.7599C97.9699 49.1509 98.0195 49.6104 97.8946 50.0378C97.7696 50.4652 97.4803 50.8257 97.09 51.0402C96.6998 51.2547 96.2405 51.3057 95.8126 51.1822C95.3848 51.0587 95.0234 50.7705 94.8075 50.381C94.5917 49.9915 94.5391 49.5324 94.6612 49.1041C94.7833 48.6759 95.0701 48.3135 95.4589 48.0964C95.8477 47.8793 96.3067 47.8251 96.7354 47.9458" fill="white"/>
<path d="M29.2326 58.7939C25.9308 59.1099 22.676 59.913 19.6061 61.1689C16.1359 62.5886 12.8715 64.6146 10.332 67.373C7.60098 70.3394 5.76959 74.1234 5.1377 78.1057" stroke="#131313" stroke-width="2.51339" stroke-linecap="round"/>
<path d="M11.1108 77.3877C11.7308 77.5711 12.2528 77.9929 12.5623 78.5604C12.8719 79.128 12.9439 79.7951 12.7625 80.4156C12.5811 81.0362 12.161 81.5596 11.5944 81.871C11.0278 82.1824 10.3608 82.2564 9.73964 82.0769C9.11868 81.8974 8.59416 81.4792 8.28096 80.9138C7.96777 80.3484 7.89147 79.6818 8.06874 79.0602C8.24598 78.4387 8.6623 77.9128 9.22654 77.5976C9.79078 77.2824 10.4569 77.2036 11.0791 77.3786M6.76479 77.0426C7.96726 77.3985 8.97955 78.2167 9.57995 79.3176C10.1803 80.4186 10.3198 81.7127 9.9679 82.9164C9.61594 84.12 8.80124 85.1351 7.70224 85.7392C6.60323 86.3433 5.30956 86.4871 4.10472 86.1391C2.89992 85.7912 1.88216 84.9799 1.2744 83.883C0.666634 82.7861 0.518448 81.493 0.86228 80.2871C1.20612 79.0812 2.01394 78.0607 3.10874 77.4492C4.20354 76.8377 5.49605 76.6852 6.70314 77.0249" fill="#131313"/>
<path d="M116.942 58.7666C120.244 59.0826 123.498 59.8856 126.568 61.1416C130.038 62.5614 133.303 64.5873 135.842 67.3457C138.573 70.3121 140.405 74.0961 141.037 78.0784" stroke="#131313" stroke-width="2.51339" stroke-linecap="round"/>
<path d="M135.063 77.3604C134.443 77.544 133.921 77.9657 133.612 78.5332C133.303 79.1008 133.231 79.7679 133.412 80.3883C133.594 81.0088 134.014 81.5321 134.58 81.8435C135.147 82.1549 135.813 82.229 136.435 82.0496C137.056 81.8702 137.58 81.452 137.894 80.8866C138.207 80.3211 138.283 79.6545 138.106 79.0329C137.929 78.4113 137.512 77.8853 136.948 77.5701C136.384 77.2549 135.717 77.1762 135.095 77.3513M139.409 77.0153C138.207 77.3713 137.195 78.1894 136.595 79.2904C135.994 80.3914 135.855 81.6854 136.207 82.889C136.559 84.0926 137.373 85.1077 138.472 85.7117C139.571 86.3158 140.865 86.4596 142.07 86.1118C143.274 85.7639 144.292 84.9526 144.9 83.8557C145.508 82.7588 145.656 81.4657 145.312 80.2597C144.968 79.0538 144.16 78.0333 143.065 77.4219C141.971 76.8104 140.678 76.6578 139.471 76.9975" fill="#131313"/>
<g style="mix-blend-mode:color-dodge" opacity="0.9">
<path d="M47.8836 24.5486C48.4078 26.0234 48.1991 27.9973 47.3033 30.0381C46.4074 32.0789 44.8975 34.0201 43.1044 35.4363C41.3112 36.8525 39.3809 37.6284 37.7365 37.5938C36.0921 37.5593 34.8677 36.7172 34.3314 35.252C33.7951 33.7868 33.9908 31.818 34.8755 29.777C35.7602 27.736 37.2619 25.7891 39.0515 24.363C40.841 22.9369 42.7726 22.1478 44.423 22.1686C46.0733 22.1894 47.3079 23.0184 47.8563 24.4739" fill="white"/>
</g>
<g style="mix-blend-mode:color-dodge" opacity="0.9">
<path d="M35.0545 37.3491C35.697 37.812 36.114 38.6223 36.2139 39.6024C36.3138 40.5826 36.0886 41.6527 35.5876 42.5783C35.0866 43.5039 34.3507 44.2096 33.5411 44.5407C32.7314 44.8718 31.9141 44.8013 31.2682 44.3447C30.6222 43.8881 30.2005 43.0826 30.0951 42.1047C29.9897 41.1268 30.2093 40.0562 30.7059 39.1275C31.2026 38.1987 31.9356 37.4876 32.7446 37.1499C33.5535 36.8122 34.3723 36.8755 35.0216 37.3258" fill="white"/>
</g>
<path d="M42.8145 66.9551C43.5208 69.0319 45.0849 70.8022 47.0589 71.7589C49.183 72.7884 51.7667 72.8502 53.9127 71.867C55.5044 71.1377 56.8357 69.8541 57.6226 68.2901" stroke="#0F1EB3" stroke-width="1.37953" stroke-linecap="round"/>
<path d="M49.6074 25.2055C50.8819 26.1947 52.4674 26.7771 54.079 26.8482C55.6838 26.9188 57.3077 26.4828 58.6604 25.6168C60.0135 24.7509 61.0894 23.4595 61.6976 21.9727" stroke="#FF6F11" stroke-width="1.37953" stroke-linecap="round"/>
<path d="M56.2896 19.6357C57.4907 20.5321 58.8547 21.2097 60.2947 21.6256C61.6232 22.0093 63.0203 22.1704 64.3972 22.0439C65.9744 21.8987 67.5154 21.3735 68.8526 20.5248" stroke="#FF6F11" stroke-width="1.37953" stroke-linecap="round"/>
<path d="M90.8325 24.2139C91.7872 26.0273 93.4127 27.4784 95.3221 28.2227C97.3464 29.0117 99.6723 28.9953 101.685 28.1777" stroke="#FF6F11" stroke-width="1.37953" stroke-linecap="round"/>
<path d="M96.9925 28.7266C96.8602 30.0363 97.2157 31.3895 97.9719 32.4664C98.9833 33.905 100.66 34.7958 102.396 35.075C103.973 35.3286 105.623 35.1092 107.078 34.4491" stroke="#FF6F11" stroke-width="1.37953" stroke-linecap="round"/>
<path d="M67.3438 39.1394C68.7384 40.3274 70.5476 41.0186 72.3791 41.0633C74.4654 41.1143 76.5597 40.3173 78.0844 38.8926" stroke="#FF6F11" stroke-width="1.37953" stroke-linecap="round"/>
<path d="M78.9131 74.0976C80.6078 75.7955 82.9761 76.8024 85.3745 76.8448C88.2481 76.8959 91.0998 75.549 92.9419 73.3431C94.0342 72.0348 94.7939 70.392 94.792 68.6876C94.7912 68.043 94.6825 67.3985 94.4709 66.7896" stroke="#FF6F11" stroke-width="1.37953" stroke-linecap="round"/>
<path d="M93.5459 72.5432C94.4779 73.5462 95.7908 74.186 97.1552 74.3017C98.554 74.4204 99.9959 73.9838 101.081 73.0932C101.893 72.4278 102.496 71.528 102.876 70.5501C103.294 69.4725 103.446 68.293 103.315 67.1445" stroke="#FF6F11" stroke-width="1.37953" stroke-linecap="round"/>
<path d="M42.8145 66.9561C43.5208 69.0328 45.0845 70.803 47.0586 71.7598C49.1827 72.7895 51.7666 72.8511 53.9127 71.8678C55.5042 71.1385 56.8356 69.855 57.6225 68.291" stroke="#FF6F11" stroke-width="1.37953" stroke-linecap="round"/>
<path d="M47.6275 55.2554C49.2298 55.4523 50.5784 55.9047 51.3784 56.5136C52.1784 57.1224 52.3641 57.8378 51.8951 58.5034C51.4261 59.169 50.3403 59.7304 48.8759 60.0645C47.4115 60.3985 45.6878 60.4781 44.0823 60.2857C42.4769 60.0933 41.121 59.6445 40.3111 59.0379C39.5012 58.4314 39.3039 57.7163 39.7621 57.0494C40.2203 56.3826 41.2965 55.8182 42.7554 55.4801C44.2144 55.142 45.9368 55.0576 47.5454 55.2455" fill="#FF6F11"/>
<path d="M47.6275 55.2554C49.2298 55.4523 50.5784 55.9047 51.3784 56.5136C52.1784 57.1224 52.3641 57.8378 51.8951 58.5034C51.4261 59.169 50.3403 59.7304 48.8759 60.0645C47.4115 60.3985 45.6878 60.4781 44.0823 60.2857C42.4769 60.0933 41.121 59.6445 40.3111 59.0379C39.5012 58.4314 39.3039 57.7163 39.7621 57.0494C40.2203 56.3826 41.2965 55.8182 42.7554 55.4801C44.2144 55.142 45.9368 55.0576 47.5454 55.2455" stroke="#FF6600" stroke-width="0.888189" stroke-linecap="round" stroke-linejoin="round"/>
<path d="M102.517 55.3696C104.119 55.5664 105.468 56.0189 106.268 56.6277C107.068 57.2365 107.254 57.952 106.785 58.6176C106.316 59.2832 105.231 59.8446 103.767 60.1786C102.302 60.5127 100.578 60.5923 98.9729 60.3999C97.3675 60.2075 96.0106 59.7587 95.2007 59.1521C94.3909 58.5455 94.1936 57.8307 94.6517 57.1638C95.1099 56.497 96.1862 55.9326 97.6451 55.5945C99.1039 55.2564 100.826 55.1718 102.435 55.3597" fill="#FF6F11"/>
<path d="M102.517 55.3696C104.119 55.5664 105.468 56.0189 106.268 56.6277C107.068 57.2365 107.254 57.952 106.785 58.6176C106.316 59.2832 105.231 59.8446 103.767 60.1786C102.302 60.5127 100.578 60.5923 98.9729 60.3999C97.3675 60.2075 96.0106 59.7587 95.2007 59.1521C94.3909 58.5455 94.1936 57.8307 94.6517 57.1638C95.1099 56.497 96.1862 55.9326 97.6451 55.5945C99.1039 55.2564 100.826 55.1718 102.435 55.3597" stroke="#FF6600" stroke-width="0.888189" stroke-linecap="round" stroke-linejoin="round"/>
<path d="M97.5433 30.7627C101.315 31.8796 104.491 34.446 106.374 37.8998C108.257 41.3537 108.695 45.413 107.591 49.1888C106.487 52.9647 103.931 56.1491 100.483 58.0441C97.0357 59.9391 92.9786 60.3901 89.199 59.2988C85.4195 58.2074 82.2262 55.6624 80.3196 52.2214C78.4129 48.7804 77.9482 44.7239 79.0268 40.9407C80.1054 37.1576 82.6392 33.9561 86.0737 32.0379C89.5083 30.1197 93.5637 29.6411 97.3505 30.7069" fill="url(#paint0_linear_101_1367)"/>
<path d="M97.5433 30.7627C101.315 31.8796 104.491 34.446 106.374 37.8998C108.257 41.3537 108.695 45.413 107.591 49.1888C106.487 52.9647 103.931 56.1491 100.483 58.0441C97.0357 59.9391 92.9786 60.3901 89.199 59.2988C85.4195 58.2074 82.2262 55.6624 80.3196 52.2214C78.4129 48.7804 77.9482 44.7239 79.0268 40.9407C80.1054 37.1576 82.6392 33.9561 86.0737 32.0379C89.5083 30.1197 93.5637 29.6411 97.3505 30.7069" stroke="black" stroke-width="0.944882" stroke-linecap="round" stroke-linejoin="round"/>
<path d="M57.185 30.6517C60.957 31.7685 64.1322 34.3352 66.0155 37.7891C67.8989 41.2429 68.3367 45.3022 67.2326 49.078C66.1285 52.8539 63.5722 56.0383 60.1248 57.9333C56.6773 59.8283 52.6193 60.2796 48.8397 59.1882C45.0602 58.0968 41.8678 55.5517 39.9612 52.1106C38.0546 48.6696 37.5898 44.6131 38.6684 40.8299C39.747 37.0467 42.2816 33.8454 45.7163 31.9271C49.1509 30.0089 53.2053 29.5302 56.9921 30.5961" fill="url(#paint1_linear_101_1367)"/>
<path d="M57.185 30.6517C60.957 31.7685 64.1322 34.3352 66.0155 37.7891C67.8989 41.2429 68.3367 45.3022 67.2326 49.078C66.1285 52.8539 63.5722 56.0383 60.1248 57.9333C56.6773 59.8283 52.6193 60.2796 48.8397 59.1882C45.0602 58.0968 41.8678 55.5517 39.9612 52.1106C38.0546 48.6696 37.5898 44.6131 38.6684 40.8299C39.747 37.0467 42.2816 33.8454 45.7163 31.9271C49.1509 30.0089 53.2053 29.5302 56.9921 30.5961" stroke="black" stroke-width="0.944882" stroke-linecap="round" stroke-linejoin="round"/>
<path d="M67.8291 44.9056C69.0431 44.0413 70.4739 43.4843 71.9528 43.3005C74.2322 43.0174 76.6124 43.6452 78.4553 45.0166" stroke="black" stroke-width="0.999999"/>
<defs>
<linearGradient id="paint0_linear_101_1367" x1="79.2991" y1="26.3351" x2="101.357" y2="55.6304" gradientUnits="userSpaceOnUse">
<stop stop-color="#FF6600" stop-opacity="0.8"/>
<stop offset="1" stop-color="white" stop-opacity="0"/>
</linearGradient>
<linearGradient id="paint1_linear_101_1367" x1="36.1616" y1="24.6993" x2="61.0578" y2="55.8645" gradientUnits="userSpaceOnUse">
<stop stop-color="#FF6600" stop-opacity="0.8"/>
<stop offset="1" stop-color="white" stop-opacity="0"/>
</linearGradient>
</defs>
</svg>
