<svg width="151" height="118" viewBox="0 0 151 118" fill="none" xmlns="http://www.w3.org/2000/svg">
<path d="M55.0724 104.131C54.8532 105.803 54.7475 107.489 54.7513 109.175C54.7547 110.522 54.8305 111.87 54.9742 113.21C53.9439 113.109 52.9199 112.946 51.9093 112.722C51.3813 112.605 50.8335 112.471 50.3074 112.595C50.0429 112.657 49.7925 112.787 49.6126 112.988C49.4312 113.19 49.3289 113.468 49.3667 113.735C49.4045 113.941 49.5027 114.13 49.6426 114.284C49.7824 114.438 49.9525 114.561 50.1256 114.675C50.9794 115.235 51.9843 115.613 53.0037 115.562C53.4765 115.539 53.9514 115.419 54.3509 115.165C54.7507 114.911 55.0696 114.515 55.1781 114.054C55.2159 113.901 55.2273 113.741 55.2159 113.584" fill="#131313"/>
<path d="M53.554 101.642C52.4969 102.505 52.631 107.301 52.7365 109.181C52.7743 109.733 53.0464 110.893 53.0691 111.445C51.9266 111.437 50.9648 111.406 50.2354 111.585C49.6424 111.73 48.4675 112.129 47.845 112.618C47.2808 113.061 46.6699 113.494 46.7641 114.451C46.8888 115.737 50.1029 117.07 53.1798 117.144C55.2049 117.336 59.944 115.714 58.665 113.207C57.4601 111.035 56.7994 110.882 56.7559 109.166C56.7143 107.576 56.7938 104.317 57.1684 102.698L53.554 101.642Z" fill="#131313"/>
<path d="M55.8528 101.067C53.093 100.149 50.7799 98.5578 48.335 95.895C46.4444 93.8362 45.8084 92.8297 46.0571 92.291C46.2461 91.8799 46.4894 90.4861 46.596 89.1938C46.7548 87.2915 46.6414 86.7858 46.0041 86.5387C44.9485 86.1287 43.8325 87.1179 44.114 88.2138C44.9731 91.5544 40.4554 93.1779 34.9331 91.5127C29.1758 89.7767 26.5173 86.598 26.1382 80.9971C25.9341 77.96 25.953 77.8917 27.0374 77.8962C28.9252 77.9075 31.5365 75.7212 31.5717 74.1058C31.6095 72.6444 30.2802 72.6952 28.5261 74.2226C27.1141 75.4524 26.5793 75.6498 25.2576 75.4298C20.4772 74.634 15.9176 67.348 16.6191 61.6258C17.2136 56.7773 20.964 51.9334 25.301 50.4138C27.3828 49.6844 27.5631 49.5082 27.3027 48.461C25.5891 41.5755 26.7626 36.038 30.7741 32.0799C33.2883 29.5991 36.3792 28.1972 39.9392 27.9228C42.8101 27.7014 42.815 27.7032 42.8097 28.935C42.8097 30.4307 44.7388 32.5421 45.7608 32.1547C46.5598 31.852 46.7362 30.3536 46.0253 29.9101C45.2445 29.4231 45.5079 28.3393 47.3493 24.464C49.4413 20.0604 51.6689 17.8554 56.1454 15.7568C58.8591 14.4845 59.6309 14.3323 63.1065 14.3834C65.951 14.4253 67.7183 14.7171 69.5937 15.4545C73.1306 16.845 73.8748 17.7755 73.7134 20.6036C73.6416 21.8539 73.7141 23.2952 73.8759 23.8064C74.2542 25.0159 76.6539 25.0182 76.2721 23.8366C75.6806 22.0049 76.136 22.2364 77.3504 23.3811C79.2534 25.1737 83.8444 23.1524 83.1584 21.3432C82.8523 20.5336 81.8654 20.518 80.0036 21.2933C79.0943 21.672 76.7015 19.5552 77.0057 18.6411C77.3232 17.6835 80.0343 16.1252 83.1709 15.0956C92.746 11.9526 102.664 17.6495 105.648 28.0068C105.776 28.4594 106.214 28.5211 107.321 28.2434C112.049 27.0574 117.181 28.8687 120.986 33.0659C125.35 37.8811 126.699 46.8755 123.47 49.638C122.088 50.8213 121.924 52.3266 123.145 52.6508C123.651 52.785 124.343 53.7775 124.827 55.0617C125.533 56.9313 125.571 57.5383 125.092 59.2938C124.47 61.5814 124.649 62.1982 125.936 62.2035C128.031 62.2149 128.614 57.0901 126.951 53.2887C126.416 52.0657 126.093 50.8806 126.234 50.655C126.984 49.4533 132.382 54.5212 133.811 57.768C135.266 61.0736 135.268 65.8217 133.811 68.5472C132.529 70.9526 130.2 73.6184 128.467 74.6629C127.206 75.4227 127.116 75.4181 126.255 74.5499C125.652 73.9418 124.876 73.6899 123.89 73.7813C122.67 73.8943 122.421 74.1117 122.417 75.061C122.417 75.841 122.704 76.2601 123.331 76.3791C124.785 76.655 125.303 77.3006 125.621 79.2295C126.038 81.7614 124.82 85.5102 122.832 87.8133C120.736 90.2422 116.233 92.5197 113.548 92.5087C111.7 92.4974 108.322 91.2979 108.325 90.6476C108.326 90.4885 109.043 90.02 109.918 89.6068C111.867 88.687 113.04 86.5781 112.861 84.3144C112.744 82.8479 112.57 82.616 111.577 82.6119C110.599 82.6119 110.419 82.8274 110.376 84.0866C110.315 85.8062 109.626 86.7609 107.753 87.7194C106.55 88.3358 106.328 88.3318 105.614 87.6805C104.594 86.7495 103.331 86.7438 102.971 87.6691C102.794 88.1307 103.327 89.0464 104.456 90.2124L106.221 92.0344L105.346 93.6428C104.13 95.8781 100.401 99.2254 97.806 100.411C96.0561 101.211 94.7812 101.401 91.2633 101.386C85.9031 101.364 83.9801 100.584 79.8963 96.772C77.0681 94.1318 77.0568 94.1113 77.7393 92.8047C78.6842 90.9953 78.6574 87.9493 77.694 87.5746C76.6111 87.1539 75.6802 88.1216 75.6738 89.6738C75.6738 91.5615 74.5437 93.5042 71.7952 96.3863C68.354 99.9956 65.7374 101.184 60.9079 101.331C58.7578 101.397 56.4814 101.278 55.8498 101.068L55.8528 101.067ZM79.498 51.9007C81.6149 50.8318 82.1175 50.1807 81.3915 49.4491C80.9893 49.0433 80.4255 49.1622 79.0618 49.9394C76.7744 51.2435 73.8717 51.2627 71.5186 49.9894C69.517 48.9057 68.2894 49.3573 69.4395 50.7543C71.1796 52.8688 76.4029 53.4642 79.498 51.9009V51.9007ZM109.667 46.4954C111.97 45.6305 110.729 44.8928 106.946 44.8774C103.504 44.8622 103.338 44.8112 102.046 43.3553C100.252 41.3315 100.308 40.4808 102.235 40.4887C104.023 40.5 105.611 39.5117 105.117 38.7034C104.894 38.3372 104.276 38.2544 103.323 38.4627C99.8674 39.2169 96.5277 38.0718 94.9078 35.5774C94.1553 34.4183 92.461 34.0569 92.4568 35.0547C92.4568 36.134 95.1059 38.8973 96.9571 39.7412C98.4013 40.3996 98.8476 40.8906 99.0615 42.0561C99.3563 43.6682 101.175 45.6855 102.989 46.4155C104.506 47.0257 108.137 47.0693 109.665 46.4956L109.667 46.4954ZM61.202 37.7751C61.9265 37.4043 63.0989 36.3801 63.808 35.4992C64.8663 34.184 65.4033 33.8988 66.812 33.9045C69.2841 33.9159 72.2307 32.6499 72.2352 31.577C72.2352 30.5374 71.1127 30.4592 69.4762 31.3858C67.5834 32.4576 64.0034 32.2173 61.256 30.8342C59.5825 29.9918 58.689 29.7631 58.3572 30.0924C57.6288 30.8149 58.3194 31.5582 60.7999 32.7196L63.0506 33.7735L61.4772 35.1435C59.2903 37.048 57.1152 37.3672 54.4491 36.1748C51.8205 34.9991 51.5238 34.9941 51.5192 36.1257C51.5192 38.4899 57.7347 39.5504 61.202 37.7752V37.7751Z" fill="#FF7F2A" stroke="#FF7F2A" stroke-width="1.85134" stroke-linecap="round" stroke-linejoin="round"/>
<path d="M111.584 83.6553C111.955 84.8304 111.713 86.1815 110.956 87.1543C110.505 87.7336 109.896 88.1722 109.252 88.524C108.608 88.8758 107.924 89.1474 107.254 89.4481C106.902 89.6065 106.553 89.7727 106.208 89.9474" stroke="#FF6600" stroke-width="2.13543" stroke-linecap="round"/>
<path d="M96.5887 104.287C96.8079 105.958 96.9136 107.644 96.9098 109.33C96.9064 110.678 96.8306 112.025 96.687 113.365C97.7173 113.264 98.7412 113.102 99.7518 112.877C100.28 112.76 100.828 112.626 101.354 112.75C101.618 112.812 101.869 112.942 102.049 113.144C102.23 113.346 102.332 113.623 102.294 113.891C102.257 114.096 102.158 114.285 102.019 114.439C101.879 114.594 101.709 114.716 101.535 114.83C100.682 115.39 99.6768 115.768 98.6575 115.717C98.1847 115.694 97.7098 115.574 97.3103 115.32C96.9104 115.067 96.5915 114.67 96.483 114.209C96.4453 114.056 96.4339 113.897 96.4452 113.74" fill="#131313"/>
<path d="M98.1071 101.797C99.1643 102.66 99.0301 107.456 98.9247 109.336C98.8869 109.888 98.6147 111.048 98.592 111.6C99.7346 111.592 100.696 111.561 101.426 111.74C102.019 111.886 103.194 112.284 103.816 112.773C104.38 113.217 104.991 113.649 104.897 114.607C104.772 115.892 101.558 117.226 98.4813 117.299C96.4562 117.491 91.7171 115.869 92.9961 113.362C94.201 111.19 94.8618 111.037 94.9052 109.321C94.9468 107.731 94.8673 104.472 94.4928 102.854L98.1071 101.797Z" fill="#131313"/>
<path d="M30.2746 74.2458C29.841 75.0818 29.1561 75.7853 28.332 76.2411C27.2373 76.8466 25.9171 77.0027 24.6926 76.7467C23.5204 76.5014 22.4499 75.9012 21.4812 75.1972C18.8757 73.3036 16.8746 70.5781 15.8992 67.5084C14.7087 63.7617 15.0917 59.5411 16.9416 56.0724C18.1627 53.7828 19.9964 51.8279 22.1868 50.4368C23.3647 49.6887 24.644 49.1009 25.9788 48.6945C25.8341 48.1863 25.7067 47.6733 25.5963 47.1567C24.8262 43.55 24.9262 39.7011 26.291 36.2749C27.6775 32.7942 30.3695 29.8515 33.7133 28.1613C37.057 26.4711 41.0229 26.0483 44.6478 26.9959M45.3618 87.6884C45.7197 88.6935 45.6498 89.8435 45.1728 90.7979C44.7116 91.7203 43.8967 92.4376 42.9735 92.8973C41.2354 93.7628 39.1884 93.7434 37.2675 93.4596C34.9572 93.1183 32.6883 92.4153 30.6541 91.2681C28.8796 90.2673 27.2673 88.8996 26.2562 87.131C25.2 85.2833 24.8574 83.1157 24.7168 80.9921C24.6231 79.5792 24.6106 78.161 24.679 76.7467M77.0849 88.7162C77.2141 89.271 77.2447 89.8485 77.1755 90.414C77.0054 91.8038 76.2507 93.0479 75.4517 94.1978C74.4381 95.6564 73.3195 97.0487 72.0309 98.2711C70.5379 99.6872 68.8146 100.871 66.9202 101.674C64.6155 102.652 62.0829 103.052 59.5815 102.954C57.2257 102.861 54.8758 102.326 52.7635 101.279C50.1025 99.9596 47.8864 97.8672 46.05 95.5328C45.2528 94.5195 44.5197 93.4558 43.8564 92.3501M104.169 88.2153C104.872 88.7635 105.553 89.3412 106.208 89.9465C106.479 90.1967 106.747 90.4536 106.965 90.751C107.183 91.0485 107.351 91.3911 107.397 91.7571C107.452 92.1979 107.329 92.6417 107.174 93.0579C106.575 94.6563 105.486 96.023 104.312 97.2617C103.013 98.6317 101.577 99.8904 99.9389 100.829C97.8496 102.026 95.4735 102.673 93.0771 102.908C89.9597 103.213 86.7322 102.816 83.9125 101.451C81.9268 100.491 80.1911 99.0802 78.5966 97.5559C77.4876 96.4956 76.4371 95.3739 75.4517 94.1978M123.375 75.0445C123.926 74.8861 124.539 74.9583 125.037 75.2406C125.589 75.5535 125.978 76.0955 126.256 76.6665C126.68 77.5366 126.884 78.4998 126.973 79.4634C127.204 81.9511 126.671 84.5138 125.413 86.6719C124.137 88.8595 122.164 90.5798 119.987 91.8738C118.039 93.032 115.852 93.8877 113.585 93.9265C111.353 93.9647 109.116 93.1806 107.397 91.7571M125.927 48.5672C127.141 49.0767 128.302 49.7141 129.384 50.4656C130.728 51.3996 131.951 52.5115 132.986 53.7803C134.061 55.0987 134.931 56.5891 135.501 58.1917C135.769 58.9442 135.97 59.7199 136.113 60.5058C136.477 62.5035 136.459 64.5791 135.973 66.5504C135.27 69.4015 133.609 71.9513 131.561 74.0559C130.619 75.0239 129.558 75.9288 128.283 76.373C127.634 76.599 126.942 76.6991 126.256 76.6666M124.269 50.7869C124.793 51.6962 125.268 52.6342 125.69 53.5953C126.231 54.8275 126.69 56.1215 126.754 57.4657C126.812 58.7066 126.523 59.962 125.927 61.0521M75.1788 23.5121C74.8394 22.5212 74.7412 21.4486 74.8954 20.4126C75.0828 19.1525 75.6484 17.9476 76.5156 17.0144C77.6241 15.8216 79.1526 15.1189 80.6659 14.518C82.7883 13.6752 84.9896 12.9681 87.2646 12.7707C90.7345 12.4694 94.2531 13.3853 97.3019 15.0693C100.279 16.7135 102.857 19.1012 104.631 22.0027C105.593 23.5762 106.318 25.2943 106.774 27.0813C107.594 26.7558 108.458 26.543 109.335 26.4503C111.62 26.2088 113.929 26.7882 116.034 27.7106C118.938 28.9834 121.58 30.9543 123.367 33.5738C125.096 36.1086 125.964 39.1412 126.414 42.1765C126.618 43.548 126.741 44.9447 126.565 46.3201C126.39 47.6954 125.896 49.0576 124.984 50.102C124.53 50.6227 123.977 51.0575 123.364 51.3765M45.37 30.946C45.0185 30.7461 44.7192 30.4556 44.5092 30.1101C44.2991 29.7647 44.1789 29.3652 44.1634 28.9612C44.1482 28.5535 44.2371 28.1476 44.3709 27.7623C44.5047 27.377 44.6831 27.0089 44.8526 26.6378C45.6238 24.9486 46.2205 23.1737 47.1562 21.5698C48.9613 18.4753 51.9373 16.1979 55.1624 14.6382C56.8093 13.8417 58.5488 13.209 60.3573 12.9335C63.6432 12.4329 67.0089 13.1327 70.1342 14.2638C71.11 14.6168 72.0768 15.0155 72.9493 15.5772C73.8219 16.1388 74.6015 16.8739 75.0967 17.7858C75.6291 18.7661 75.8171 19.914 76.4184 20.8536C76.7631 21.3924 77.2391 21.8475 77.7953 22.1635C78.3515 22.4795 78.9872 22.6556 79.6269 22.6657C80.4648 22.677 81.3044 22.4026 81.9709 21.8948" stroke="#FF6600" stroke-width="2.13543" stroke-linecap="round"/>
<path d="M76.0053 66.3164C75.325 66.2899 74.6292 66.3969 73.9749 66.6705C73.3188 66.9453 72.7273 67.3823 72.2772 67.9697C71.6868 68.7406 71.4034 69.6962 71.4801 70.6641C71.5255 71.2507 72.0375 71.6898 72.6241 71.646C73.2107 71.6002 73.7762 71.0431 73.7323 70.4563C73.7701 69.4698 74.0611 69.1494 74.8042 68.798C75.1406 68.6574 75.5268 68.5974 75.9187 68.6136C76.2929 68.6287 76.6645 68.6994 76.9597 68.8721C77.7076 69.3101 77.8539 69.704 77.9843 70.4356C77.9276 71.0227 78.3584 71.545 78.9439 71.6019C79.5335 71.659 80.057 71.2251 80.1103 70.6349C80.1934 69.7526 79.9666 68.8729 79.4681 68.1398C79.069 67.5518 78.5262 67.1003 77.9177 66.7963C77.3119 66.4935 76.652 66.3434 76.0061 66.3164H76.0053Z" fill="#131313"/>
<path d="M31.8865 69.7939C28.5847 70.1099 25.3293 70.9128 22.2595 72.1688C18.7896 73.5886 15.5255 75.6147 12.986 78.3731C10.255 81.3395 8.42382 85.1234 7.7915 89.1057" stroke="#131313" stroke-width="2.51339" stroke-linecap="round"/>
<path d="M13.765 88.3877C14.3849 88.5712 14.9069 88.9929 15.2164 89.5605C15.526 90.128 15.5976 90.7952 15.4162 91.4157C15.2348 92.0362 14.815 92.5594 14.2485 92.8708C13.682 93.1822 13.0149 93.2564 12.3938 93.077C11.7728 92.8977 11.2482 92.4794 10.9349 91.9139C10.6217 91.3485 10.5455 90.682 10.7227 90.0604C10.9 89.4388 11.316 88.9126 11.8803 88.5974C12.4446 88.2822 13.1109 88.2036 13.7331 88.3787M9.41889 88.0426C10.6213 88.3987 11.6334 89.2169 12.2337 90.3178C12.834 91.4188 12.9737 92.7129 12.6217 93.9165C12.2698 95.1201 11.4553 96.1351 10.3564 96.7392C9.25748 97.3432 7.96389 97.487 6.75911 97.1392C5.55431 96.7912 4.53638 95.98 3.92861 94.8831C3.32085 93.7862 3.17278 92.4931 3.51661 91.2872C3.86045 90.0812 4.66821 89.0608 5.76301 88.4493C6.85782 87.8378 8.15043 87.6851 9.35753 88.0248" fill="#131313"/>
<path d="M119.595 69.7666C122.897 70.0826 126.153 70.8855 129.222 72.1415C132.692 73.5613 135.956 75.5874 138.496 78.3457C141.227 81.3122 143.058 85.096 143.69 89.0783" stroke="#131313" stroke-width="2.51339" stroke-linecap="round"/>
<path d="M137.717 88.3604C137.097 88.5438 136.575 88.9656 136.265 89.5332C135.956 90.1007 135.884 90.7678 136.066 91.3883C136.247 92.0088 136.667 92.5321 137.233 92.8435C137.8 93.1549 138.467 93.2291 139.088 93.0497C139.709 92.8703 140.234 92.452 140.547 91.8866C140.86 91.3212 140.936 90.6547 140.759 90.033C140.582 89.4114 140.166 88.8853 139.602 88.57C139.037 88.2548 138.371 88.1763 137.749 88.3514M142.063 88.0153C140.861 88.3713 139.849 89.1895 139.248 90.2905C138.648 91.3915 138.508 92.6856 138.86 93.8892C139.212 95.0928 140.027 96.1077 141.126 96.7118C142.224 97.3159 143.518 97.4597 144.723 97.1118C145.928 96.7639 146.946 95.9526 147.553 94.8557C148.161 93.7588 148.309 92.4658 147.965 91.2598C147.621 90.0539 146.814 89.0334 145.719 88.4219C144.624 87.8105 143.332 87.6578 142.124 87.9975" fill="#131313"/>
<g style="mix-blend-mode:color-dodge" opacity="0.9">
<path d="M50.5385 35.5497C51.0626 37.0244 50.8539 38.9984 49.9581 41.0392C49.0623 43.08 47.5524 45.0211 45.7592 46.4374C43.966 47.8536 42.0358 48.6294 40.3914 48.5949C38.747 48.5603 37.5225 47.7182 36.9862 46.253C36.4499 44.7878 36.6456 42.819 37.5303 40.778C38.415 38.7369 39.9167 36.7901 41.7062 35.364C43.4958 33.9379 45.4274 33.1488 47.0777 33.1696C48.7281 33.1904 49.9627 34.0194 50.5111 35.475" fill="white"/>
</g>
<g style="mix-blend-mode:color-dodge" opacity="0.9">
<path d="M37.7083 48.3491C38.3508 48.8119 38.7678 49.6222 38.8677 50.6024C38.9676 51.5825 38.7425 52.6526 38.2415 53.5783C37.7405 54.5039 37.0045 55.2096 36.1949 55.5407C35.3852 55.8718 34.568 55.8013 33.922 55.3447C33.2761 54.8881 32.8542 54.0826 32.7488 53.1047C32.6434 52.1268 32.8631 51.0562 33.3598 50.1275C33.8564 49.1987 34.5895 48.4876 35.3984 48.1499C36.2073 47.8122 37.0261 47.8755 37.6754 48.3258" fill="white"/>
</g>
<path d="M1.93115 28.9548L7.01681 26.7617L7.37576 30.6775L12.4623 28.5158M5.83525 11.6493L11.087 14.6436L8.58454 17.4473L14.168 20.7385M15.387 2.08008L13.4972 5.0965L18.3577 6.64509L15.4391 9.99831L20.2987 10.8874L19.3709 15.0145" stroke="#101FB4" stroke-opacity="0.949945" stroke-width="2.51339" stroke-linecap="round" stroke-linejoin="round"/>
<path d="M52.35 50.5199C53.5005 50.4295 54.654 50.7696 55.6719 51.3136C56.6897 51.8576 57.5873 52.5986 58.4544 53.3603C60.8491 55.464 63.0684 57.7678 65.081 60.2395C64.5878 60.148 64.0924 60.0683 63.5954 60.0003C62.0817 59.7932 60.5523 59.6964 59.0246 59.7221C57.5884 59.7448 56.1443 59.8813 54.7648 60.2817C53.2866 60.7109 51.898 61.4452 50.7112 62.4252C50.749 61.0123 51.3988 59.6241 52.4736 58.7066C53.5588 57.7803 54.9727 57.362 56.3159 56.8812C56.5692 56.7913 56.817 56.6984 57.0661 56.6028C56.8469 56.1632 56.5962 55.7406 56.3127 55.34C54.83 53.2441 52.4623 51.7964 49.9209 51.4318C50.6239 50.9086 51.4766 50.5886 52.35 50.5199V50.5199Z" fill="black"/>
<path d="M98.42 50.5424C97.2695 50.4517 96.1159 50.7922 95.0981 51.3362C94.0803 51.8802 93.1822 52.6211 92.3151 53.3828C89.9204 55.4866 87.7016 57.7903 85.689 60.2621C86.1822 60.1706 86.6776 60.0909 87.1746 60.0228C88.6883 59.8157 90.2181 59.7189 91.7458 59.7446C93.182 59.7673 94.6256 59.9039 96.0052 60.3043C97.4833 60.7335 98.872 61.468 100.059 62.448C100.021 61.0351 99.3712 59.6468 98.2963 58.7294C97.2112 57.8031 95.7973 57.3846 94.454 56.9038C94.2008 56.8138 93.9529 56.721 93.7039 56.6253C93.9231 56.1858 94.1733 55.7631 94.4568 55.3626C95.9395 53.2667 98.3082 51.819 100.85 51.4543C100.147 50.9312 99.2934 50.6112 98.42 50.5424Z" fill="black"/>
<path opacity="0.34" d="M48.2755 59.1044C46.3071 56.9645 43.3329 55.7916 40.4337 56.0116C38.8194 56.1341 37.1825 56.7063 36.0728 57.885C35.0697 58.9505 34.5786 60.4373 34.5669 61.9008C34.5669 62.7293 34.7102 63.5896 35.1925 64.2637C35.629 64.8742 36.3098 65.2845 37.0348 65.4791C37.9626 65.7282 38.9652 65.6397 39.8666 65.3075C40.7488 64.9821 41.5308 64.4374 42.292 63.8854C44.3594 62.3859 46.357 60.79 48.2755 59.1044V59.1044Z" fill="white"/>
<path opacity="0.8001" d="M39.6817 58.3609C40.3293 58.2726 40.8748 58.4342 41.1981 58.8106C41.5214 59.1871 41.5964 59.7476 41.4068 60.3691C41.2172 60.9906 40.7782 61.6226 40.1865 62.1265C39.5947 62.6305 38.8984 62.9654 38.2497 63.0579C37.6009 63.1505 37.0529 62.993 36.7256 62.62C36.3982 62.247 36.3184 61.6889 36.5035 61.068C36.6887 60.4472 37.1235 59.8144 37.7131 59.3079C38.3026 58.8014 38.9986 58.4626 39.6486 58.3659" fill="white"/>
<path opacity="0.339241" d="M103.964 57.0579C106.325 55.3604 109.475 54.8133 112.27 55.6154C113.826 56.0618 115.313 56.9534 116.161 58.3321C116.928 59.5785 117.108 61.134 116.824 62.5695C116.656 63.3809 116.342 64.1944 115.733 64.757C115.182 65.2666 114.432 65.5307 113.683 65.5747C112.724 65.6309 111.76 65.3414 110.945 64.8337C110.147 64.3366 109.491 63.645 108.857 62.9504C107.136 61.0637 105.502 59.0967 103.964 57.0579V57.0579Z" fill="white"/>
<path opacity="0.8001" d="M112.531 58.0683C111.915 57.8508 111.348 57.8987 110.955 58.202C110.562 58.5052 110.376 59.039 110.436 59.6861C110.496 60.333 110.798 61.0407 111.275 61.654C111.753 62.2672 112.367 62.7361 112.983 62.9579C113.6 63.1798 114.169 63.1364 114.565 62.8373C114.961 62.5383 115.152 62.0079 115.096 61.3624C115.04 60.7169 114.742 60.0092 114.268 59.3939C113.793 58.7786 113.18 58.3061 112.563 58.0799" fill="white"/>
<path opacity="0.339241" d="M104.351 50.703C104.528 48.5013 105.759 46.4077 107.597 45.1828C108.62 44.5007 109.867 44.0772 111.083 44.2633C112.182 44.4316 113.171 45.0915 113.863 45.9618C114.251 46.4576 114.568 47.0395 114.594 47.6685C114.619 48.2382 114.403 48.8023 114.061 49.2579C113.622 49.8412 112.981 50.2573 112.286 50.4803C111.606 50.6984 110.883 50.7384 110.169 50.7642C108.23 50.8343 106.288 50.8139 104.351 50.703V50.703Z" fill="white"/>
<path opacity="0.8001" d="M109.146 46.2368C108.717 46.4869 108.467 46.8388 108.449 47.2154C108.432 47.592 108.649 47.9625 109.054 48.2457C109.458 48.5289 110.016 48.7017 110.606 48.7264C111.196 48.7511 111.77 48.6256 112.201 48.3775C112.633 48.1292 112.887 47.7786 112.908 47.4022C112.93 47.0259 112.716 46.6545 112.315 46.3696C111.914 46.0847 111.357 45.9095 110.767 45.8823C110.178 45.855 109.603 45.9779 109.168 46.2242" fill="white"/>
<path d="M149.649 28.8383L144.563 26.6454L144.204 30.5613L139.117 28.3996M145.745 11.5329L140.493 14.5274L142.995 17.3311L137.412 20.6223M136.193 1.96387L138.083 4.98006L133.222 6.52887L136.14 9.8821L131.281 10.7712L132.21 14.8983" stroke="#0F1FB4" stroke-width="2.51339" stroke-linecap="round" stroke-linejoin="round"/>
<path d="M52.2612 36.2045C53.5357 37.1937 55.1212 37.7763 56.7328 37.8474C58.3376 37.9181 59.9615 37.4818 61.3142 36.6158C62.6673 35.7499 63.7428 34.4585 64.3509 32.9717" stroke="#FF6F11" stroke-width="1.37953" stroke-linecap="round"/>
<path d="M58.9438 30.6348C60.145 31.5312 61.5085 32.209 62.9485 32.6249C64.277 33.0086 65.6741 33.1697 67.051 33.0431C68.6282 32.898 70.1697 32.3728 71.5069 31.5241" stroke="#FF6F11" stroke-width="1.37953" stroke-linecap="round"/>
<path d="M93.4863 35.2129C94.441 37.0263 96.066 38.4772 97.9754 39.2215C99.9998 40.0105 102.326 39.9941 104.339 39.1765" stroke="#FF6F11" stroke-width="1.37953" stroke-linecap="round"/>
<path d="M99.6473 39.7256C99.515 41.0353 99.87 42.3888 100.626 43.4657C101.638 44.9043 103.314 45.795 105.051 46.0742C106.627 46.3278 108.277 46.1082 109.732 45.4482" stroke="#FF6F11" stroke-width="1.37953" stroke-linecap="round"/>
<path d="M69.9976 50.1389C71.3922 51.3269 73.2014 52.0182 75.0329 52.0628C77.1192 52.1139 79.2145 51.3168 80.7391 49.8921" stroke="#FF6F11" stroke-width="1.37953" stroke-linecap="round"/>
<path d="M81.5664 85.0971C83.2611 86.795 85.6294 87.8019 88.0279 87.8444C90.9014 87.8954 93.7531 86.5485 95.5952 84.3426C96.6875 83.0344 97.4472 81.3912 97.4453 79.6869C97.4446 79.0423 97.3359 78.398 97.1242 77.7891" stroke="#FF6F11" stroke-width="1.37953" stroke-linecap="round"/>
<path d="M96.1997 83.5423C97.1317 84.5453 98.4446 85.185 99.809 85.3008C101.208 85.4194 102.65 84.9829 103.735 84.0922C104.546 83.4269 105.15 82.527 105.529 81.5491C105.948 80.4715 106.1 79.292 105.969 78.1436" stroke="#FF6F11" stroke-width="1.37953" stroke-linecap="round"/>
<path d="M45.4678 77.9551C46.1742 80.0318 47.7383 81.8022 49.7124 82.7591C51.8365 83.7887 54.4204 83.8504 56.5664 82.867C58.158 82.1377 59.4894 80.8543 60.2763 79.2903" stroke="#FF6F11" stroke-width="1.37953" stroke-linecap="round"/>
<path d="M50.2813 66.2554C51.8836 66.4523 53.2322 66.9047 54.0322 67.5136C54.8322 68.1224 55.018 68.8378 54.5489 69.5034C54.0799 70.169 52.9942 70.7304 51.5298 71.0645C50.0653 71.3985 48.3416 71.4781 46.7361 71.2857C45.1307 71.0933 43.7748 70.6445 42.9649 70.0379C42.155 69.4314 41.9577 68.7163 42.4159 68.0494C42.8741 67.3826 43.9503 66.8182 45.4092 66.4801C46.8682 66.142 48.5906 66.0576 50.1992 66.2455" fill="#FF6F11"/>
<path d="M50.2813 66.2554C51.8836 66.4523 53.2322 66.9047 54.0322 67.5136C54.8322 68.1224 55.018 68.8378 54.5489 69.5034C54.0799 70.169 52.9942 70.7304 51.5298 71.0645C50.0653 71.3985 48.3416 71.4781 46.7361 71.2857C45.1307 71.0933 43.7748 70.6445 42.9649 70.0379C42.155 69.4314 41.9577 68.7163 42.4159 68.0494C42.8741 67.3826 43.9503 66.8182 45.4092 66.4801C46.8682 66.142 48.5906 66.0576 50.1992 66.2455" stroke="#FF6600" stroke-width="0.888189" stroke-linecap="round" stroke-linejoin="round"/>
<path d="M105.171 66.3696C106.774 66.5664 108.122 67.0189 108.922 67.6277C109.722 68.2365 109.908 68.952 109.439 69.6176C108.97 70.2832 107.885 70.8446 106.421 71.1786C104.956 71.5127 103.233 71.5923 101.627 71.3999C100.022 71.2075 98.6649 70.7587 97.855 70.1521C97.0452 69.5455 96.8479 68.8307 97.306 68.1638C97.7642 67.497 98.8405 66.9326 100.299 66.5945C101.758 66.2564 103.481 66.1718 105.089 66.3597" fill="#FF6F11"/>
<path d="M105.171 66.3696C106.774 66.5664 108.122 67.0189 108.922 67.6277C109.722 68.2365 109.908 68.952 109.439 69.6176C108.97 70.2832 107.885 70.8446 106.421 71.1786C104.956 71.5127 103.233 71.5923 101.627 71.3999C100.022 71.2075 98.6649 70.7587 97.855 70.1521C97.0452 69.5455 96.8479 68.8307 97.306 68.1638C97.7642 67.497 98.8405 66.9326 100.299 66.5945C101.758 66.2564 103.481 66.1718 105.089 66.3597" stroke="#FF6600" stroke-width="0.888189" stroke-linecap="round" stroke-linejoin="round"/>
<path d="M100.198 44.4185C103.97 45.5353 107.145 48.1018 109.028 51.5556C110.912 55.0094 111.349 59.0688 110.245 62.8446C109.141 66.6204 106.585 69.8049 103.137 71.6999C99.69 73.5949 95.6329 74.0459 91.8533 72.9546C88.0738 71.8632 84.8805 69.3182 82.9738 65.8772C81.0672 62.4361 80.6025 58.3797 81.6811 54.5965C82.7597 50.8133 85.2935 47.6119 88.728 45.6937C92.1626 43.7755 96.218 43.2969 100.005 44.3626" fill="url(#paint0_linear_101_1365)"/>
<path d="M100.198 44.4185C103.97 45.5353 107.145 48.1018 109.028 51.5556C110.912 55.0094 111.349 59.0688 110.245 62.8446C109.141 66.6204 106.585 69.8049 103.137 71.6999C99.69 73.5949 95.6329 74.0459 91.8533 72.9546C88.0738 71.8632 84.8805 69.3182 82.9738 65.8772C81.0672 62.4361 80.6025 58.3797 81.6811 54.5965C82.7597 50.8133 85.2935 47.6119 88.728 45.6937C92.1626 43.7755 96.218 43.2969 100.005 44.3626" stroke="black" stroke-width="0.944882" stroke-linecap="round" stroke-linejoin="round"/>
<path d="M59.8402 44.307C63.6123 45.4238 66.7874 47.9905 68.6708 51.4443C70.5542 54.8982 70.992 58.9575 69.8879 62.7333C68.7838 66.5091 66.2275 69.6936 62.7801 71.5886C59.3326 73.4836 55.2745 73.9349 51.495 72.8435C47.7155 71.7521 44.523 69.2069 42.6164 65.7659C40.7098 62.3248 40.245 58.2684 41.3237 54.4852C42.4023 50.702 44.9369 47.5006 48.3715 45.5824C51.8062 43.6642 55.8605 43.1855 59.6474 44.2514" fill="url(#paint1_linear_101_1365)"/>
<path d="M59.8402 44.307C63.6123 45.4238 66.7874 47.9905 68.6708 51.4443C70.5542 54.8982 70.992 58.9575 69.8879 62.7333C68.7838 66.5091 66.2275 69.6936 62.7801 71.5886C59.3326 73.4836 55.2745 73.9349 51.495 72.8435C47.7155 71.7521 44.523 69.2069 42.6164 65.7659C40.7098 62.3248 40.245 58.2684 41.3237 54.4852C42.4023 50.702 44.9369 47.5006 48.3715 45.5824C51.8062 43.6642 55.8605 43.1855 59.6474 44.2514" stroke="black" stroke-width="0.944882" stroke-linecap="round" stroke-linejoin="round"/>
<path d="M70.4844 58.5614C71.6984 57.697 73.1292 57.14 74.6081 56.9563C76.8875 56.6732 79.2677 57.3009 81.1106 58.6723" stroke="black" stroke-width="0.999999"/>
<defs>
<linearGradient id="paint0_linear_101_1365" x1="81.9534" y1="39.9908" x2="104.011" y2="69.2861" gradientUnits="userSpaceOnUse">
<stop stop-color="#FF6600" stop-opacity="0.8"/>
<stop offset="1" stop-color="white" stop-opacity="0"/>
</linearGradient>
<linearGradient id="paint1_linear_101_1365" x1="38.8169" y1="38.3545" x2="63.7131" y2="69.5198" gradientUnits="userSpaceOnUse">
<stop stop-color="#FF6600" stop-opacity="0.8"/>
<stop offset="1" stop-color="white" stop-opacity="0"/>
</linearGradient>
</defs>
</svg>
