<svg width="135" height="107" viewBox="0 0 135 107" fill="none" xmlns="http://www.w3.org/2000/svg">
<path d="M41.8545 92.8408C41.6353 94.5124 41.5295 96.1984 41.5333 97.8842C41.5367 99.2319 41.6126 100.579 41.7562 101.919C40.7259 101.819 39.7021 101.656 38.6914 101.432C38.1634 101.314 37.6154 101.18 37.0893 101.305C36.8247 101.367 36.5745 101.497 36.3946 101.698C36.2132 101.9 36.1111 102.177 36.1489 102.445C36.1867 102.65 36.285 102.839 36.4248 102.994C36.5647 103.148 36.7348 103.271 36.9079 103.385C37.7617 103.944 38.7663 104.322 39.7856 104.271C40.2584 104.249 40.7335 104.128 41.133 103.875C41.5328 103.621 41.8515 103.224 41.96 102.763C41.9978 102.61 42.0091 102.451 41.9978 102.294" fill="#131313"/>
<path d="M40.3362 90.3506C39.2791 91.2138 39.4136 96.0097 39.5191 97.8898C39.5569 98.4415 39.829 99.6016 39.8517 100.154C38.7091 100.146 37.7472 100.115 37.0178 100.294C36.4248 100.439 35.2501 100.838 34.6276 101.327C34.0633 101.77 33.4522 102.203 33.5463 103.16C33.671 104.446 36.8851 105.779 39.9621 105.853C41.9871 106.045 46.7267 104.423 45.4477 101.916C44.2428 99.7436 43.5817 99.591 43.5382 97.8751C43.4967 96.2852 43.576 93.0258 43.9506 91.4073L40.3362 90.3506Z" fill="#131313"/>
<path d="M42.6351 89.7761C39.8753 88.8582 37.5622 87.2668 35.1172 84.604C33.2267 82.5451 32.5906 81.5387 32.8393 81C33.0283 80.5889 33.2717 79.1952 33.3782 77.9029C33.537 76.0006 33.4236 75.4949 32.7864 75.2478C31.7307 74.8378 30.6147 75.827 30.8963 76.9229C31.7553 80.2635 27.2376 81.8869 21.7154 80.2218C15.958 78.4858 13.2995 75.307 12.9204 69.7061C12.7163 66.669 12.7352 66.6007 13.8196 66.6052C15.7075 66.6165 18.3187 64.4302 18.3538 62.8148C18.3916 61.3534 17.0624 61.4042 15.3083 62.9316C13.8963 64.1614 13.3615 64.3587 12.0398 64.1388C7.25945 63.343 2.69983 56.057 3.40131 50.3348C3.99583 45.4864 7.74627 40.6424 12.0833 39.1228C14.165 38.3934 14.3453 38.2173 14.0849 37.1701C12.3712 30.2846 13.5448 24.7471 17.5564 20.789C20.0705 18.3082 23.1615 16.9062 26.7214 16.6319C29.5923 16.4104 29.5972 16.4123 29.5919 17.644C29.5919 19.1398 31.521 21.2512 32.543 20.8638C33.342 20.561 33.5185 19.0626 32.8075 18.6191C32.0267 18.1321 32.2901 17.0484 34.1315 13.173C36.2234 8.76939 38.4511 6.56436 42.9276 4.46585C45.6413 3.19355 46.4131 3.04129 49.8888 3.09239C52.7332 3.13434 54.5005 3.42611 56.3759 4.16345C59.9128 5.55394 60.657 6.48447 60.4956 9.31258C60.4238 10.5629 60.4964 12.0042 60.6581 12.5154C61.0365 13.7249 63.4361 13.7272 63.0544 12.5456C62.4629 10.7139 62.9183 10.9454 64.1326 12.0901C66.0356 13.8827 70.6266 11.8615 69.9406 10.0522C69.6345 9.24263 68.6476 9.22702 66.7859 10.0024C65.8765 10.381 63.4837 8.2642 63.7879 7.35012C64.1054 6.3925 66.8165 4.83421 69.9531 3.80462C79.5282 0.661607 89.446 6.35853 92.43 16.7158C92.5585 17.1684 92.9965 17.2301 94.1028 16.9524C98.831 15.7664 103.964 17.5777 107.768 21.7749C112.133 26.5901 113.481 35.5845 110.253 38.3471C108.87 39.5304 108.707 41.0356 109.928 41.3598C110.433 41.494 111.125 42.4865 111.61 43.7708C112.315 45.6403 112.353 46.2473 111.874 48.0029C111.252 50.2904 111.431 50.9072 112.718 50.9126C114.813 50.9239 115.396 45.7992 113.733 41.9977C113.198 40.7747 112.875 39.5897 113.016 39.3641C113.766 38.1624 119.164 43.2303 120.593 46.4771C122.048 49.7826 122.05 54.5307 120.593 57.2561C119.311 59.6616 116.982 62.3274 115.249 63.372C113.988 64.1317 113.898 64.1271 113.037 63.2589C112.434 62.6509 111.659 62.3989 110.672 62.4903C109.453 62.6033 109.203 62.8207 109.199 63.7701C109.199 64.55 109.486 64.9691 110.113 65.088C111.567 65.3639 112.085 66.0097 112.403 67.9385C112.82 70.4704 111.602 74.2192 109.615 76.5223C107.519 78.9512 103.015 81.2288 100.331 81.2178C98.4818 81.2064 95.1043 80.0069 95.107 79.3566C95.1077 79.1975 95.8248 78.729 96.7001 78.3159C98.6496 77.396 99.8223 75.2871 99.6436 73.0234C99.5264 71.5569 99.3526 71.3251 98.3593 71.3209C97.3808 71.3209 97.2016 71.5364 97.1578 72.7957C97.0973 74.5153 96.4079 75.4699 94.5355 76.4284C93.3317 77.0448 93.1103 77.0408 92.3963 76.3895C91.3762 75.4585 90.1131 75.4528 89.7537 76.3782C89.576 76.8398 90.109 77.7554 91.2383 78.9214L93.0029 80.7434L92.128 82.3518C90.9125 84.5871 87.1836 87.9345 84.5882 89.1202C82.8383 89.9198 81.5635 90.1098 78.0455 90.0954C72.6854 90.0727 70.7623 89.2928 66.6785 85.481C63.8503 82.8407 63.839 82.8203 64.5216 81.5138C65.4665 79.7043 65.4396 76.6583 64.4762 76.2836C63.3934 75.8629 62.4624 76.8306 62.456 78.3829C62.456 80.2705 61.3259 82.2132 58.5775 85.0954C55.1362 88.7046 52.5196 89.8928 47.6902 90.04C45.54 90.1061 43.2636 89.9871 42.632 89.7773L42.6351 89.7761ZM66.2802 40.6097C68.3971 39.5409 68.8998 38.8898 68.1737 38.1581C67.7716 37.7524 67.2077 37.8712 65.844 38.6485C63.5567 39.9526 60.654 39.9716 58.3008 38.6984C56.2992 37.6147 55.0716 38.0663 56.2217 39.4633C57.9618 41.5778 63.1851 42.1732 66.2802 40.61V40.6097ZM96.4491 35.2045C98.752 34.3396 97.5116 33.6018 93.7283 33.5864C90.2859 33.5713 90.1203 33.5202 88.8285 32.0643C87.0339 30.0406 87.0903 29.1898 89.0175 29.1977C90.8052 29.209 92.3937 28.2207 91.8989 27.4125C91.6759 27.0462 91.058 26.9635 90.1048 27.1717C86.6495 27.9259 83.31 26.7808 81.6901 24.2864C80.9376 23.1273 79.2432 22.7659 79.239 23.7637C79.239 24.843 81.8881 27.6063 83.7393 28.4502C85.1835 29.1086 85.6298 29.5996 85.8438 30.7651C86.1386 32.3772 87.9569 34.3945 89.7711 35.1245C91.2878 35.7347 94.9195 35.7783 96.4476 35.2046L96.4491 35.2045ZM47.9842 26.4841C48.7088 26.1133 49.8812 25.0891 50.5902 24.2083C51.6485 22.8931 52.1855 22.6079 53.5942 22.6136C56.0664 22.6249 59.0129 21.3589 59.0174 20.286C59.0174 19.2464 57.8949 19.1682 56.2584 20.0948C54.3656 21.1666 50.7856 20.9263 48.0383 19.5432C46.3647 18.7008 45.4712 18.4721 45.1394 18.8014C44.4111 19.5239 45.1016 20.2672 47.5821 21.4286L49.8328 22.4825L48.2594 23.8525C46.0725 25.757 43.8974 26.0762 41.2314 24.8838C38.6027 23.7081 38.306 23.7031 38.3014 24.8347C38.3014 27.1989 44.5169 28.2594 47.9842 26.4842V26.4841Z" fill="#0E3BAE" stroke="#0E3BAE" stroke-width="1.85134" stroke-linecap="round" stroke-linejoin="round"/>
<path d="M98.3659 72.3633C98.737 73.5384 98.4947 74.8895 97.7381 75.8623C97.2875 76.4416 96.6783 76.8802 96.0341 77.232C95.39 77.5838 94.7059 77.8554 94.0364 78.1561C93.6838 78.3145 93.335 78.4807 92.9902 78.6554" stroke="#0E1CA4" stroke-width="2.13543" stroke-linecap="round"/>
<path d="M83.371 92.9951C83.5902 94.6667 83.6961 96.3527 83.6923 98.0384C83.6889 99.3862 83.6129 100.734 83.4693 102.074C84.4996 101.973 85.5235 101.81 86.5342 101.586C87.0622 101.469 87.6102 101.334 88.1363 101.459C88.4008 101.521 88.6511 101.651 88.831 101.852C89.0124 102.054 89.1144 102.331 89.0767 102.599C89.0389 102.805 88.9405 102.994 88.8007 103.148C88.6609 103.302 88.4908 103.425 88.3177 103.539C87.4639 104.098 86.4593 104.477 85.44 104.426C84.9672 104.403 84.492 104.283 84.0925 104.029C83.6927 103.775 83.3741 103.379 83.2656 102.918C83.2278 102.764 83.2165 102.605 83.2278 102.448" fill="#131313"/>
<path d="M84.8897 90.5059C85.9468 91.369 85.8123 96.165 85.7068 98.045C85.669 98.5967 85.3969 99.7568 85.3743 100.309C86.5168 100.301 87.4786 100.27 88.2081 100.449C88.8011 100.595 89.9758 100.993 90.5983 101.482C91.1626 101.926 91.7737 102.358 91.6796 103.316C91.5549 104.601 88.3408 105.934 85.2639 106.008C83.2388 106.2 78.4993 104.578 79.7783 102.071C80.9832 99.8988 81.6442 99.7463 81.6877 98.0304C81.7293 96.4404 81.6499 93.1811 81.2753 91.5625L84.8897 90.5059Z" fill="#131313"/>
<path d="M17.0568 62.9547C16.6233 63.7907 15.9383 64.4943 15.1141 64.9501C14.0194 65.5556 12.6994 65.7116 11.4749 65.4556C10.3026 65.2107 9.23217 64.6102 8.2634 63.9061C5.65791 62.0126 3.65681 59.287 2.68142 56.2173C1.49095 52.4707 1.8739 48.25 3.72383 44.7813C4.94492 42.4917 6.77864 40.5369 8.96906 39.1457C10.1469 38.3977 11.4263 37.8098 12.761 37.4034C12.6163 36.8952 12.4889 36.3823 12.3786 35.8656C11.6085 32.259 11.7085 28.41 13.0732 24.9839C14.4597 21.5032 17.1517 18.5605 20.4955 16.8702C23.8393 15.18 27.8051 14.7573 31.43 15.7048M32.144 76.3973C32.5019 77.4025 32.432 78.5524 31.955 79.5068C31.4938 80.4293 30.6789 81.1465 29.7557 81.6062C28.0175 82.4717 25.9706 82.4524 24.0497 82.1685C21.7394 81.8272 19.4705 81.1243 17.4363 79.977C15.6618 78.9762 14.0495 77.6086 13.0384 75.8399C11.9822 73.9922 11.6397 71.8246 11.499 69.701C11.4053 68.2881 11.3929 66.8699 11.4613 65.4556M63.867 77.4252C63.9963 77.98 64.0269 78.5575 63.9577 79.1229C63.7877 80.5128 63.0329 81.7568 62.2339 82.9067C61.2203 84.3654 60.1018 85.7576 58.8131 86.98C57.3202 88.3961 55.5968 89.5802 53.7024 90.3834C51.3977 91.3607 48.8651 91.761 46.3637 91.6627C44.0079 91.5701 41.658 91.0351 39.5458 89.9878C36.8848 88.6685 34.6686 86.5762 32.8322 84.2418C32.0351 83.2284 31.3019 82.1647 30.6386 81.059M90.9508 76.9242C91.6544 77.4724 92.335 78.0502 92.9902 78.6555C93.2612 78.9057 93.5292 79.1626 93.7473 79.46C93.9654 79.7575 94.1328 80.1001 94.1789 80.466C94.2344 80.9069 94.1116 81.3507 93.9559 81.7668C93.3575 83.3653 92.2683 84.732 91.094 85.9706C89.7952 87.3407 88.3593 88.5994 86.7211 89.5377C84.6318 90.7345 82.2557 91.3819 79.8594 91.6165C76.7419 91.9219 73.5144 91.5247 70.6948 90.1603C68.7091 89.1996 66.9733 87.7892 65.3789 86.2648C64.2698 85.2045 63.2193 84.0829 62.2339 82.9067M110.158 63.7534C110.708 63.595 111.321 63.6672 111.819 63.9496C112.372 64.2625 112.76 64.8045 113.038 65.3755C113.462 66.2455 113.666 67.2088 113.755 68.1724C113.986 70.6601 113.454 73.2227 112.195 75.3809C110.919 77.5684 108.947 79.2887 106.77 80.5828C104.821 81.7409 102.634 82.5966 100.367 82.6355C98.1354 82.6736 95.8985 81.8895 94.1789 80.466M112.709 37.2761C113.923 37.7856 115.084 38.4231 116.166 39.1745C117.51 40.1085 118.734 41.2204 119.768 42.4893C120.843 43.8077 121.713 45.298 122.283 46.9006C122.551 47.6532 122.752 48.4289 122.895 49.2148C123.259 51.2124 123.242 53.288 122.755 55.2594C122.052 58.1105 120.392 60.6603 118.344 62.7648C117.402 63.7328 116.34 64.6378 115.065 65.0819C114.416 65.3075 113.724 65.4081 113.038 65.3756M111.051 39.4958C111.575 40.4052 112.05 41.3432 112.472 42.3043C113.013 43.5365 113.472 44.8305 113.536 46.1746C113.594 47.4155 113.305 48.671 112.709 49.761M61.9611 12.221C61.6217 11.2302 61.5234 10.1576 61.6775 9.12161C61.865 7.86146 62.4306 6.65655 63.2979 5.72332C64.4064 4.53057 65.9348 3.82786 67.4482 3.22691C69.5706 2.38412 71.7718 1.67708 74.0468 1.47963C77.5167 1.17847 81.0353 2.09427 84.0841 3.77822C87.0611 5.42247 89.6393 7.81015 91.4134 10.7116C92.3754 12.2851 93.1004 14.0032 93.5564 15.7902C94.3761 15.4649 95.2404 15.2519 96.1174 15.1592C98.4026 14.9177 100.711 15.4971 102.816 16.4195C105.72 17.6924 108.362 19.6633 110.149 22.2827C111.879 24.8175 112.747 27.8501 113.197 30.8854C113.4 32.257 113.523 33.6537 113.347 35.029C113.172 36.4044 112.678 37.7666 111.766 38.811C111.312 39.3317 110.759 39.7664 110.146 40.0854M32.1522 19.655C31.8007 19.4552 31.5014 19.1646 31.2914 18.8191C31.0813 18.4736 30.9611 18.0741 30.9456 17.6701C30.9305 17.2624 31.0193 16.8566 31.1531 16.4712C31.2869 16.0859 31.4653 15.7178 31.6348 15.3467C32.406 13.6575 33.0028 11.8827 33.9384 10.2787C35.7435 7.18426 38.7195 4.90682 41.9446 3.3471C43.5915 2.55064 45.331 1.91792 47.1395 1.6424C50.4254 1.14181 53.7911 1.84145 56.9164 2.9727C57.8922 3.3259 58.859 3.72443 59.7316 4.2861C60.6041 4.84777 61.3837 5.58282 61.8789 6.49473C62.4113 7.47499 62.5994 8.62296 63.2006 9.56254C63.5453 10.1014 64.0213 10.5564 64.5775 10.8725C65.1337 11.1885 65.7695 11.3646 66.4091 11.3746C67.247 11.3878 68.0867 11.1116 68.7531 10.6037" stroke="#0F1FB4" stroke-width="2.13543" stroke-linecap="round"/>
<path d="M39.0435 24.9135C40.3179 25.9027 41.9033 26.4852 43.515 26.5563C45.1199 26.627 46.7433 26.1906 48.0964 25.3248C49.4494 24.4589 50.5258 23.1675 51.1338 21.6807" stroke="#0F1EB3" stroke-width="1.37953" stroke-linecap="round"/>
<path d="M45.7256 19.3438C46.9267 20.2401 48.2905 20.9178 49.7304 21.3337C51.0587 21.7174 52.4562 21.8785 53.833 21.7519C55.4102 21.607 56.9511 21.0816 58.2884 20.2329" stroke="#0F1EB3" stroke-width="1.37953" stroke-linecap="round"/>
<path d="M80.2686 23.9219C81.2235 25.7353 82.8483 27.1862 84.7579 27.9305C86.7823 28.7195 89.1081 28.7031 91.1211 27.8855" stroke="#0F1EB3" stroke-width="1.37953" stroke-linecap="round"/>
<path d="M86.4285 28.4346C86.2963 29.7443 86.6508 31.0977 87.4078 32.1746C88.4193 33.6132 90.0962 34.5039 91.8325 34.7832C93.4091 35.0367 95.0589 34.816 96.5135 34.1572" stroke="#0F1EB3" stroke-width="1.37953" stroke-linecap="round"/>
<path d="M56.7793 38.8484C58.174 40.0363 59.9832 40.7276 61.8147 40.7723C63.9009 40.8231 65.9955 40.0262 67.5204 38.6016" stroke="#0F1EB3" stroke-width="1.37953" stroke-linecap="round"/>
<path d="M44.7785 37.8142C46.8243 38.4199 48.5467 39.8119 49.5682 41.6852C50.5896 43.5584 50.827 45.7602 50.2281 47.8081C49.6293 49.856 48.2431 51.583 46.3734 52.6108C44.5036 53.6386 42.3026 53.8833 40.2527 53.2914C38.2028 52.6995 36.4711 51.3192 35.437 49.4528C34.4029 47.5865 34.1507 45.3864 34.7357 43.3345C35.3208 41.2826 36.6952 39.5463 38.5581 38.5059C40.4209 37.4655 42.6201 37.2059 44.674 37.784" fill="#131313"/>
<path opacity="0.96" d="M40.6526 39.9645C41.3492 40.1708 41.9357 40.6448 42.2835 41.2826C42.6313 41.9204 42.7121 42.6701 42.5082 43.3674C42.3043 44.0647 41.8324 44.6527 41.1957 45.0026C40.5591 45.3526 39.8096 45.4359 39.1116 45.2344C38.4137 45.0329 37.8241 44.5629 37.4719 43.9274C37.1198 43.2919 37.0339 42.5428 37.2331 41.8441C37.4323 41.1455 37.9004 40.5543 38.5346 40.2001C39.1689 39.8458 39.9177 39.7574 40.617 39.9542" fill="white"/>
<path opacity="0.96" d="M45.8348 47.5497C46.2618 47.6761 46.6212 47.9666 46.8344 48.3576C47.0476 48.7485 47.0971 49.2081 46.9721 49.6355C46.8471 50.0629 46.5578 50.4233 46.1676 50.6378C45.7774 50.8523 45.318 50.9034 44.8902 50.7799C44.4624 50.6563 44.101 50.3683 43.8852 49.9788C43.6693 49.5892 43.6167 49.1301 43.7388 48.7018C43.8609 48.2736 44.1477 47.9112 44.5365 47.6941C44.9253 47.4769 45.3843 47.4228 45.8129 47.5434" fill="white"/>
<path d="M62.787 60.3531C62.1067 60.3795 61.4109 60.2726 60.7567 59.9989C60.1006 59.7241 59.509 59.2871 59.0589 58.6997C58.4685 57.9288 58.1851 56.9732 58.2618 56.0053C58.3072 55.4187 58.8193 54.9797 59.4059 55.0235C59.9924 55.0693 60.5578 55.6264 60.514 56.2132C60.5518 57.1997 60.8428 57.5201 61.5859 57.8714C61.9223 58.012 62.3085 58.0721 62.7005 58.0559C63.0747 58.0407 63.4462 57.9701 63.7414 57.7974C64.4894 57.3594 64.6356 56.9655 64.766 56.2339C64.7093 55.6468 65.1402 55.1245 65.7256 55.0676C66.3152 55.0105 66.8387 55.4444 66.892 56.0346C66.9751 56.9169 66.7484 57.7965 66.2498 58.5297C65.8507 59.1177 65.308 59.5691 64.6995 59.8732C64.0936 60.1759 63.4337 60.3261 62.7878 60.353L62.787 60.3531Z" fill="#131313"/>
<path d="M37.0624 54.9633C38.6647 55.1602 40.0136 55.6126 40.8136 56.2214C41.6136 56.8302 41.7994 57.5458 41.3305 58.2114C40.8615 58.8769 39.7759 59.4382 38.3115 59.7723C36.8471 60.1063 35.1233 60.1859 33.5179 59.9935C31.9124 59.8011 30.5562 59.3525 29.7463 58.7459C28.9364 58.1394 28.7389 57.4243 29.1971 56.7574C29.6552 56.0906 30.7317 55.5262 32.1906 55.1881C33.6496 54.85 35.372 54.7656 36.9806 54.9535" fill="#0F1FB4"/>
<path d="M37.0624 54.9633C38.6647 55.1602 40.0136 55.6126 40.8136 56.2214C41.6136 56.8302 41.7994 57.5458 41.3305 58.2114C40.8615 58.8769 39.7759 59.4382 38.3115 59.7723C36.8471 60.1063 35.1233 60.1859 33.5179 59.9935C31.9124 59.8011 30.5562 59.3525 29.7463 58.7459C28.9364 58.1394 28.7389 57.4243 29.1971 56.7574C29.6552 56.0906 30.7317 55.5262 32.1906 55.1881C33.6496 54.85 35.372 54.7656 36.9806 54.9535" stroke="#0E1CA9" stroke-width="0.888189" stroke-linecap="round" stroke-linejoin="round"/>
<path d="M91.9526 55.0776C93.5549 55.2744 94.9038 55.7268 95.7038 56.3357C96.5038 56.9445 96.6896 57.6601 96.2206 58.3257C95.7516 58.9912 94.666 59.5525 93.2016 59.8866C91.7372 60.2206 90.0135 60.3002 88.4081 60.1078C86.8026 59.9154 85.4463 59.4668 84.6364 58.8602C83.8265 58.2536 83.629 57.5386 84.0872 56.8717C84.5454 56.2048 85.6219 55.6405 87.0808 55.3024C88.5397 54.9642 90.2622 54.8799 91.8707 55.0677" fill="#0F1FB4"/>
<path d="M91.9526 55.0776C93.5549 55.2744 94.9038 55.7268 95.7038 56.3357C96.5038 56.9445 96.6896 57.6601 96.2206 58.3257C95.7516 58.9912 94.666 59.5525 93.2016 59.8866C91.7372 60.2206 90.0135 60.3002 88.4081 60.1078C86.8026 59.9154 85.4463 59.4668 84.6364 58.8602C83.8265 58.2536 83.629 57.5386 84.0872 56.8717C84.5454 56.2048 85.6219 55.6405 87.0808 55.3024C88.5397 54.9642 90.2622 54.8799 91.8707 55.0677" stroke="#0E1CA9" stroke-width="0.888189" stroke-linecap="round" stroke-linejoin="round"/>
<path d="M85.1359 37.9255C87.1817 38.5313 88.9041 39.9232 89.9256 41.7965C90.9471 43.6697 91.1844 45.8715 90.5856 47.9194C89.9867 49.9673 88.6006 51.6944 86.7308 52.7221C84.861 53.7499 82.66 53.9947 80.6101 53.4028C78.5602 52.8108 76.8285 51.4305 75.7944 49.5642C74.7604 47.6979 74.5082 45.4977 75.0932 43.4458C75.6782 41.394 77.0527 39.6576 78.9155 38.6172C80.7783 37.5768 82.9775 37.3172 85.0314 37.8953" fill="#131313"/>
<path opacity="0.96" d="M81.0105 40.0759C81.7071 40.2821 82.2936 40.7561 82.6414 41.3939C82.9892 42.0317 83.0699 42.7814 82.866 43.4787C82.6621 44.176 82.1902 44.764 81.5535 45.114C80.9169 45.464 80.1675 45.5473 79.4695 45.3457C78.7715 45.1442 78.1819 44.6742 77.8298 44.0387C77.4777 43.4033 77.3919 42.6541 77.5911 41.9555C77.7902 41.2568 78.2582 40.6656 78.8925 40.3114C79.5268 39.9571 80.2756 39.8687 80.9749 40.0656" fill="white"/>
<path opacity="0.96" d="M86.1927 47.661C86.6197 47.7875 86.9791 48.078 87.1923 48.4689C87.4055 48.8599 87.455 49.3194 87.33 49.7468C87.2051 50.1742 86.9158 50.5346 86.5255 50.7491C86.1353 50.9637 85.676 51.0147 85.2482 50.8912C84.8203 50.7677 84.4589 50.4796 84.2431 50.0901C84.0273 49.7006 83.9746 49.2414 84.0967 48.8132C84.2188 48.3849 84.5057 48.0225 84.8945 47.8054C85.2833 47.5882 85.7423 47.5341 86.1709 47.6547" fill="white"/>
<path d="M106.377 58.4756C109.679 58.7916 112.934 59.5945 116.003 60.8505C119.473 62.2703 122.738 64.2964 125.277 67.0547C128.008 70.0212 129.84 73.805 130.472 77.7873" stroke="#131313" stroke-width="2.51339" stroke-linecap="round"/>
<path d="M124.499 77.0693C123.879 77.2528 123.357 77.6746 123.048 78.2421C122.738 78.8097 122.666 79.4768 122.848 80.0973C123.029 80.7178 123.449 81.2411 124.015 81.5525C124.582 81.8638 125.249 81.9381 125.87 81.7587C126.491 81.5793 127.016 81.161 127.329 80.5956C127.642 80.0301 127.719 79.3637 127.541 78.742C127.364 78.1204 126.948 77.5942 126.384 77.279C125.819 76.9638 125.153 76.8853 124.531 77.0603M128.845 76.7242C127.643 77.0803 126.63 77.8985 126.03 78.9995C125.429 80.1004 125.29 81.3945 125.642 82.5981C125.994 83.8017 126.809 84.8167 127.908 85.4208C129.007 86.0249 130.3 86.1687 131.505 85.8208C132.71 85.4729 133.728 84.6616 134.335 83.5647C134.943 82.4678 135.091 81.1748 134.747 79.9688C134.404 78.7629 133.596 77.7424 132.501 77.1309C131.406 76.5195 130.114 76.3668 128.906 76.7065" fill="#131313"/>
<g style="mix-blend-mode:color-dodge" opacity="0.9">
<path d="M37.3197 24.2577C37.8438 25.7324 37.6352 27.7064 36.7393 29.7472C35.8435 31.788 34.3336 33.7292 32.5404 35.1454C30.7472 36.5616 28.817 37.3375 27.1726 37.3029C25.5282 37.2683 24.3037 36.4262 23.7674 34.961C23.2312 33.4958 23.4268 31.527 24.3116 29.486C25.1963 27.445 26.6979 25.4981 28.4875 24.072C30.2771 22.6459 32.2086 21.8568 33.859 21.8776C35.5094 21.8984 36.744 22.7274 37.2923 24.183" fill="white"/>
</g>
<g style="mix-blend-mode:color-dodge" opacity="0.9">
<path d="M24.4905 37.0581C25.1331 37.521 25.55 38.3312 25.6499 39.3114C25.7498 40.2915 25.5246 41.3616 25.0237 42.2873C24.5227 43.2129 23.7867 43.9186 22.9771 44.2497C22.1675 44.5808 21.3502 44.5103 20.7043 44.0537C20.0583 43.5971 19.6365 42.7916 19.5311 41.8137C19.4257 40.8358 19.6453 39.7652 20.142 38.8365C20.6386 37.9077 21.3717 37.1966 22.1806 36.8589C22.9895 36.5212 23.8083 36.5845 24.4576 37.0348" fill="white"/>
</g>
<path d="M32.2505 66.6641C32.9569 68.7408 34.521 70.5111 36.4949 71.4679C38.6191 72.4975 41.203 72.5593 43.3491 71.576C44.9407 70.8467 46.2719 69.5631 47.0587 67.9991" stroke="#0F1EB3" stroke-width="1.37953" stroke-linecap="round"/>
<path d="M68.3486 73.8061C70.0434 75.504 72.4116 76.5109 74.8101 76.5533C77.6837 76.6044 80.5353 75.2575 82.3775 73.0516C83.4697 71.7433 84.2294 70.1005 84.2275 68.3961C84.2268 67.7515 84.1181 67.107 83.9064 66.498" stroke="#0F1EB3" stroke-width="1.37953" stroke-linecap="round"/>
<path d="M82.9814 72.2517C83.9135 73.2547 85.2263 73.8945 86.5907 74.0102C87.9895 74.1289 89.4315 73.6923 90.517 72.8017C91.3281 72.1363 91.9318 71.2365 92.3112 70.2586C92.7292 69.181 92.8817 68.0015 92.7509 66.853" stroke="#0F1EB3" stroke-width="1.37953" stroke-linecap="round"/>
<path d="M32.25 66.6646C32.9564 68.7413 34.5201 70.5115 36.4941 71.4683C38.6182 72.498 41.2022 72.5596 43.3482 71.5763C44.9398 70.847 46.2712 69.5635 47.0581 67.9995" stroke="#0F1EB3" stroke-width="1.37953" stroke-linecap="round"/>
<path d="M86.9778 30.4711C90.7499 31.5879 93.9254 34.1544 95.8088 37.6082C97.6922 41.0621 98.1298 45.1216 97.0257 48.8974C95.9216 52.6733 93.3657 55.8575 89.9183 57.7525C86.4708 59.6475 82.4128 60.0988 78.6333 59.0074C74.8537 57.916 71.6609 55.3711 69.7543 51.93C67.8476 48.489 67.3827 44.4324 68.4613 40.6492C69.5399 36.866 72.0742 33.6646 75.5088 31.7464C78.9434 29.8282 82.9983 29.3496 86.7851 30.4154" fill="url(#paint0_linear_101_1363)"/>
<path d="M86.9778 30.4711C90.7499 31.5879 93.9254 34.1544 95.8088 37.6082C97.6922 41.0621 98.1298 45.1216 97.0257 48.8974C95.9216 52.6733 93.3657 55.8575 89.9183 57.7525C86.4708 59.6475 82.4128 60.0988 78.6333 59.0074C74.8537 57.916 71.6609 55.3711 69.7543 51.93C67.8476 48.489 67.3827 44.4324 68.4613 40.6492C69.5399 36.866 72.0742 33.6646 75.5088 31.7464C78.9434 29.8282 82.9983 29.3496 86.7851 30.4154" stroke="black" stroke-width="0.944882" stroke-linecap="round" stroke-linejoin="round"/>
<path d="M46.6203 30.3607C50.3924 31.4776 53.568 34.0441 55.4514 37.4979C57.3348 40.9517 57.7723 45.0112 56.6682 48.7871C55.5641 52.5629 53.0083 55.7472 49.5609 57.6422C46.1134 59.5372 42.0554 59.9884 38.2759 58.897C34.4963 57.8057 31.3035 55.2607 29.3968 51.8196C27.4902 48.3786 27.0253 44.3221 28.1039 40.5389C29.1825 36.7557 31.7168 33.5543 35.1514 31.6361C38.586 29.7178 42.6408 29.2392 46.4277 30.3051" fill="url(#paint1_linear_101_1363)"/>
<path d="M46.6203 30.3607C50.3924 31.4776 53.568 34.0441 55.4514 37.4979C57.3348 40.9517 57.7723 45.0112 56.6682 48.7871C55.5641 52.5629 53.0083 55.7472 49.5609 57.6422C46.1134 59.5372 42.0554 59.9884 38.2759 58.897C34.4963 57.8057 31.3035 55.2607 29.3968 51.8196C27.4902 48.3786 27.0253 44.3221 28.1039 40.5389C29.1825 36.7557 31.7168 33.5543 35.1514 31.6361C38.586 29.7178 42.6408 29.2392 46.4277 30.3051" stroke="black" stroke-width="0.944882" stroke-linecap="round" stroke-linejoin="round"/>
<path d="M57.2661 44.6142C58.4799 43.7498 59.9109 43.1928 61.3896 43.0091C63.6692 42.7258 66.0493 43.3539 67.8922 44.7252" stroke="black" stroke-width="0.999999"/>
<path d="M19.3065 58.2434C20.5375 61.3234 22.2227 64.2221 24.2907 66.8152C26.6282 69.7465 29.4896 72.3099 32.8503 73.972C36.4646 75.7596 40.6109 76.4542 44.6104 75.9421" stroke="#131313" stroke-width="2.51339" stroke-linecap="round"/>
<path d="M42.2429 70.4099C42.2449 69.7634 42.5029 69.1439 42.9607 68.6873C43.4184 68.2308 44.0384 67.9742 44.6848 67.9739C45.3313 67.9737 45.9516 68.23 46.4096 68.6862C46.8676 69.1424 47.1261 69.7618 47.1284 70.4083C47.1308 71.0547 46.8769 71.6756 46.4223 72.1351C45.9676 72.5946 45.3492 72.8551 44.7028 72.8597C44.0564 72.8642 43.4347 72.6123 42.9736 72.1593C42.5125 71.7062 42.2497 71.0889 42.2429 70.4426M43.1329 74.6778C43.1367 73.4238 43.6375 72.2222 44.5254 71.3367C45.4134 70.4512 46.616 69.9541 47.87 69.9537C49.124 69.9533 50.327 70.4498 51.2155 71.3347C52.104 72.2196 52.6058 73.4211 52.6104 74.6751C52.615 75.9291 52.1223 77.1335 51.2404 78.025C50.3584 78.9165 49.1592 79.4223 47.9052 79.4312C46.6513 79.44 45.4448 78.9511 44.5504 78.0722C43.6559 77.1933 43.1463 75.9961 43.1332 74.7422" fill="#131313"/>
<defs>
<linearGradient id="paint0_linear_101_1363" x1="68.7343" y1="26.0436" x2="90.7924" y2="55.3389" gradientUnits="userSpaceOnUse">
<stop stop-color="#0E3BAE" stop-opacity="0.8"/>
<stop offset="1" stop-color="white" stop-opacity="0"/>
</linearGradient>
<linearGradient id="paint1_linear_101_1363" x1="31.4174" y1="30.6588" x2="50.4938" y2="55.5734" gradientUnits="userSpaceOnUse">
<stop stop-color="#0E3BAE" stop-opacity="0.8"/>
<stop offset="1" stop-color="white" stop-opacity="0"/>
</linearGradient>
</defs>
</svg>
