<svg width="135" height="107" viewBox="0 0 135 107" fill="none" xmlns="http://www.w3.org/2000/svg">
<path d="M40.9771 93.0283C40.7578 94.6999 40.652 96.3859 40.6558 98.0717C40.6592 99.4194 40.7352 100.767 40.8788 102.107C39.8485 102.006 38.8246 101.843 37.814 101.619C37.286 101.502 36.7379 101.368 36.2118 101.492C35.9472 101.554 35.6971 101.684 35.5172 101.886C35.3357 102.087 35.2337 102.365 35.2715 102.632C35.3093 102.838 35.4075 103.027 35.5474 103.181C35.6872 103.335 35.8573 103.458 36.0304 103.572C36.8842 104.132 37.8888 104.51 38.9082 104.459C39.381 104.436 39.856 104.316 40.2555 104.062C40.6554 103.809 40.974 103.412 41.0825 102.951C41.1203 102.798 41.1316 102.638 41.1203 102.481" fill="#131313"/>
<path d="M39.4583 90.5381C38.4012 91.4013 38.5357 96.1972 38.6412 98.0772C38.679 98.6289 38.9511 99.789 38.9737 100.341C37.8312 100.334 36.8693 100.302 36.1399 100.481C35.5468 100.627 34.3722 101.025 33.7497 101.514C33.1854 101.958 32.5742 102.39 32.6683 103.348C32.7931 104.634 36.0072 105.967 39.0841 106.04C41.1092 106.232 45.8487 104.61 44.5697 102.103C43.3648 99.931 42.7038 99.7785 42.6603 98.0626C42.6187 96.4727 42.6981 93.2133 43.0727 91.5948L39.4583 90.5381Z" fill="#131313"/>
<path d="M41.7571 89.9636C38.9973 89.0457 36.6842 87.4543 34.2393 84.7915C32.3487 82.7327 31.7126 81.7262 31.9613 81.1875C32.1503 80.7764 32.3937 79.3827 32.5003 78.0904C32.6591 76.1881 32.5457 75.6824 31.9084 75.4353C30.8528 75.0253 29.7367 76.0145 30.0183 77.1104C30.8774 80.451 26.3597 82.0744 20.8374 80.4093C15.0801 78.6733 12.4216 75.4945 12.0425 69.8936C11.8384 66.8565 11.8573 66.7882 12.9416 66.7927C14.8295 66.804 17.4408 64.6177 17.4759 63.0023C17.5137 61.5409 16.1844 61.5917 14.4304 63.1191C13.0183 64.3489 12.4836 64.5463 11.1619 64.3263C6.38152 63.5305 1.8219 56.2445 2.52338 50.5224C3.1179 45.6739 6.86828 40.8299 11.2053 39.3103C13.2871 38.5809 13.4673 38.4048 13.2069 37.3576C11.4933 30.4721 12.6669 24.9346 16.6784 20.9765C19.1926 18.4957 22.2835 17.0937 25.8434 16.8194C28.7143 16.5979 28.7193 16.5998 28.714 17.8315C28.714 19.3273 30.643 21.4387 31.665 21.0513C32.464 20.7485 32.6405 19.2501 31.9296 18.8066C31.1487 18.3196 31.4122 17.2359 33.2536 13.3605C35.3455 8.95689 37.5732 6.75189 42.0496 4.65338C44.7634 3.38108 45.5351 3.22879 49.0108 3.27989C51.8552 3.32184 53.6226 3.61361 55.498 4.35095C59.0348 5.74144 59.779 6.672 59.6176 9.50011C59.5458 10.7504 59.6184 12.1917 59.7802 12.7029C60.1585 13.9124 62.5581 13.9147 62.1764 12.7331C61.5849 10.9014 62.0403 11.1329 63.2547 12.2776C65.1577 14.0702 69.7487 12.049 69.0627 10.2397C68.7566 9.43013 67.7697 9.41452 65.9079 10.1899C64.9986 10.5685 62.6058 8.4517 62.91 7.53762C63.2275 6.58 65.9385 5.02171 69.0752 3.99212C78.6502 0.849107 88.5681 6.54603 91.552 16.9033C91.6805 17.3559 92.1186 17.4176 93.2248 17.14C97.953 15.9539 103.086 17.7653 106.89 21.9625C111.255 26.7776 112.603 35.7721 109.375 38.5346C107.992 39.7179 107.829 41.2232 109.05 41.5474C109.555 41.6815 110.247 42.674 110.732 43.9583C111.437 45.8278 111.475 46.4349 110.996 48.1904C110.374 50.478 110.553 51.0947 111.841 51.1001C113.935 51.1114 114.518 45.9867 112.855 42.1853C112.32 40.9623 111.997 39.7772 112.138 39.5516C112.888 38.3499 118.286 43.4178 119.715 46.6646C121.17 49.9702 121.173 54.7182 119.715 57.4436C118.434 59.8491 116.104 62.515 114.371 63.5595C113.11 64.3193 113.02 64.3146 112.159 63.4464C111.556 62.8384 110.781 62.5865 109.794 62.6779C108.575 62.7909 108.325 63.0082 108.321 63.9576C108.321 64.7376 108.608 65.1566 109.235 65.2756C110.689 65.5515 111.207 66.1972 111.525 68.126C111.942 70.658 110.724 74.4067 108.737 76.7098C106.641 79.1387 102.137 81.4163 99.4527 81.4053C97.6038 81.3939 94.2264 80.1944 94.2291 79.5442C94.2298 79.385 94.9468 78.9165 95.8221 78.5034C97.7716 77.5835 98.9444 75.4746 98.7656 73.2109C98.6485 71.7444 98.4746 71.5126 97.4814 71.5084C96.5028 71.5084 96.3237 71.7239 96.2798 72.9832C96.2194 74.7028 95.53 75.6575 93.6576 76.616C92.4538 77.2324 92.2324 77.2284 91.5184 76.577C90.4983 75.6461 89.2352 75.6403 88.8757 76.5657C88.6981 77.0273 89.231 77.9429 90.3603 79.1089L92.125 80.9309L91.25 82.5393C90.0345 84.7746 86.3057 88.122 83.7103 89.3077C81.9604 90.1073 80.6855 90.2973 77.1675 90.2829C71.8074 90.2602 69.8844 89.4803 65.8006 85.6685C62.9724 83.0283 62.961 83.0078 63.6436 81.7013C64.5885 79.8918 64.5617 76.8458 63.5983 76.4711C62.5154 76.0505 61.5845 77.0181 61.5781 78.5704C61.5781 80.458 60.448 82.4007 57.6995 85.2829C54.2583 88.8921 51.6417 90.0803 46.8122 90.2275C44.6621 90.2936 42.3856 90.1746 41.7541 89.9648L41.7571 89.9636ZM65.4022 40.7972C67.5191 39.7284 68.0218 39.0773 67.2958 38.3456C66.8936 37.9399 66.3297 38.0587 64.966 38.836C62.6787 40.1401 59.776 40.1591 57.4229 38.8859C55.4213 37.8022 54.1936 38.2539 55.3437 39.6509C57.0838 41.7654 62.3071 42.3607 65.4022 40.7975V40.7972ZM95.5712 35.392C97.874 34.5271 96.6336 33.7893 92.8503 33.7739C89.4079 33.7588 89.2424 33.7077 87.9505 32.2518C86.156 30.2281 86.2123 29.3773 88.1395 29.3852C89.9272 29.3965 91.5157 28.4082 91.021 27.6C90.798 27.2337 90.18 27.151 89.2269 27.3592C85.7716 28.1134 82.432 26.9683 80.8121 24.4739C80.0596 23.3148 78.3653 22.9535 78.3611 23.9513C78.3611 25.0306 81.0101 27.7938 82.8614 28.6377C84.3055 29.2961 84.7519 29.7871 84.9658 30.9526C85.2606 32.5647 87.0789 34.582 88.8931 35.312C90.4098 35.9222 94.0416 35.9658 95.5697 35.3921L95.5712 35.392ZM47.1063 26.6716C47.8308 26.3008 49.0032 25.2767 49.7123 24.3958C50.7706 23.0806 51.3076 22.7954 52.7163 22.8011C55.1884 22.8124 58.1349 21.5465 58.1395 20.4736C58.1395 19.4339 57.017 19.3557 55.3804 20.2823C53.4876 21.3541 49.9077 21.1138 47.1603 19.7307C45.4868 18.8883 44.5933 18.6596 44.2614 18.989C43.5331 19.7114 44.2237 20.4547 46.7042 21.6161L48.9548 22.67L47.3815 24.04C45.1946 25.9445 43.0195 26.2637 40.3534 25.0713C37.7248 23.8956 37.428 23.8906 37.4235 25.0222C37.4235 27.3864 43.639 28.4469 47.1063 26.6717V26.6716Z" fill="#FF7F2A" stroke="#FF7F2A" stroke-width="1.85134" stroke-linecap="round" stroke-linejoin="round"/>
<path d="M97.4884 72.5508C97.8596 73.7259 97.6173 75.077 96.8606 76.0498C96.41 76.6291 95.8008 77.0677 95.1566 77.4195C94.5125 77.7714 93.8285 78.0429 93.1589 78.3436C92.8063 78.502 92.4576 78.6682 92.1128 78.8429" stroke="#FF6600" stroke-width="2.13543" stroke-linecap="round"/>
<path d="M82.4931 93.1826C82.7124 94.8542 82.8182 96.5402 82.8144 98.2259C82.811 99.5737 82.735 100.921 82.5914 102.261C83.6217 102.161 84.6456 101.998 85.6562 101.773C86.1842 101.656 86.7323 101.522 87.2584 101.646C87.523 101.708 87.7731 101.838 87.953 102.04C88.1345 102.242 88.2365 102.519 88.1987 102.787C88.1609 102.992 88.0627 103.181 87.9228 103.336C87.783 103.49 87.6129 103.613 87.4398 103.726C86.586 104.286 85.5814 104.664 84.5621 104.613C84.0893 104.59 83.6142 104.47 83.2147 104.216C82.8148 103.963 82.4962 103.566 82.3877 103.105C82.3499 102.952 82.3386 102.793 82.3499 102.636" fill="#131313"/>
<path d="M84.0117 90.6934C85.0689 91.5565 84.9343 96.3525 84.8289 98.2325C84.7911 98.7842 84.5189 99.9443 84.4963 100.496C85.6388 100.489 86.6007 100.457 87.3302 100.637C87.9232 100.782 89.0979 101.18 89.7203 101.67C90.2846 102.113 90.8958 102.546 90.8017 103.503C90.6769 104.789 87.4629 106.122 84.3859 106.195C82.3609 106.388 77.6213 104.766 78.9003 102.259C80.1052 100.086 80.7662 99.9338 80.8097 98.2179C80.8513 96.6279 80.7719 93.3686 80.3974 91.7501L84.0117 90.6934Z" fill="#131313"/>
<path d="M16.1794 63.1423C15.7458 63.9783 15.0608 64.6818 14.2367 65.1376C13.142 65.7431 11.8219 65.8992 10.5974 65.6432C9.42523 65.3983 8.35475 64.7977 7.38598 64.0937C4.78049 62.2001 2.77938 59.4745 1.804 56.4048C0.613526 52.6582 0.99642 48.4376 2.84635 44.9689C4.06744 42.6793 5.90116 40.7244 8.09158 39.3332C9.2694 38.5852 10.5488 37.9974 11.8836 37.5909C11.7388 37.0828 11.6115 36.5698 11.5011 36.0531C10.731 32.4465 10.8311 28.5975 12.1958 25.1714C13.5823 21.6907 16.2743 18.748 19.6181 17.0578C22.9618 15.3675 26.9277 14.9448 30.5526 15.8923M31.2665 76.5849C31.6244 77.59 31.5545 78.74 31.0775 79.6944C30.6163 80.6168 29.8015 81.3341 28.8782 81.7938C27.1401 82.6593 25.0931 82.6399 23.1723 82.3561C20.8619 82.0148 18.5931 81.3118 16.5589 80.1646C14.7844 79.1637 13.1721 77.7961 12.161 76.0275C11.1048 74.1798 10.7622 72.0122 10.6216 69.8886C10.5279 68.4757 10.5154 67.0575 10.5838 65.6432M62.9896 77.6127C63.1189 78.1675 63.1495 78.745 63.0803 79.3104C62.9102 80.7003 62.1555 81.9444 61.3565 83.0942C60.3429 84.5529 59.2243 85.9452 57.9356 87.1675C56.4427 88.5837 54.7194 89.7677 52.825 90.5709C50.5203 91.5482 47.9876 91.9485 45.4862 91.8503C43.1304 91.7577 40.7806 91.2226 38.6684 90.1754C36.0073 88.8561 33.7911 86.7637 31.9548 84.4293C31.1576 83.416 30.4244 82.3522 29.7611 81.2466M90.0734 77.1117C90.777 77.66 91.4576 78.2377 92.1128 78.843C92.3838 79.0932 92.6518 79.3501 92.8699 79.6475C93.088 79.945 93.2554 80.2876 93.3014 80.6535C93.357 81.0944 93.2341 81.5382 93.0784 81.9544C92.48 83.5528 91.3908 84.9195 90.2165 86.1582C88.9177 87.5282 87.4818 88.7869 85.8436 89.7253C83.7543 90.9221 81.3783 91.5694 78.9819 91.8041C75.8645 92.1094 72.637 91.7122 69.8173 90.3479C67.8316 89.3871 66.0959 87.9767 64.5014 86.4524C63.3924 85.3921 62.3419 84.2704 61.3565 83.0942M109.28 63.9409C109.83 63.7826 110.443 63.8548 110.942 64.1371C111.494 64.45 111.883 64.992 112.161 65.563C112.585 66.433 112.789 67.3963 112.878 68.3599C113.108 70.8476 112.576 73.4103 111.317 75.5684C110.041 77.756 108.069 79.4762 105.892 80.7703C103.944 81.9285 101.756 82.7842 99.49 82.823C97.258 82.8612 95.021 82.0771 93.3014 80.6535M111.831 37.4637C113.046 37.9732 114.207 38.6106 115.288 39.3621C116.633 40.2961 117.856 41.408 118.891 42.6768C119.965 43.9952 120.836 45.4856 121.406 47.0881C121.674 47.8407 121.875 48.6164 122.018 49.4023C122.381 51.3999 122.364 53.4756 121.878 55.4469C121.175 58.298 119.514 60.8478 117.466 62.9524C116.524 63.9204 115.463 64.8253 114.187 65.2695C113.539 65.4951 112.847 65.5956 112.161 65.5631M110.174 39.6834C110.698 40.5927 111.172 41.5307 111.594 42.4918C112.135 43.724 112.595 45.018 112.658 46.3622C112.717 47.603 112.427 48.8585 111.832 49.9486M61.0836 12.4085C60.7442 11.4177 60.646 10.3451 60.8001 9.30913C60.9876 8.04896 61.5531 6.84411 62.4204 5.91087C63.5289 4.71813 65.0574 4.01541 66.5707 3.41446C68.6931 2.57167 70.8944 1.86459 73.1694 1.66715C76.6393 1.36592 80.1579 2.28181 83.2067 3.96574C86.1836 5.60999 88.7619 7.99771 90.5359 10.8992C91.498 12.4726 92.223 14.1907 92.6789 15.9777C93.4986 15.6523 94.3629 15.4395 95.2399 15.3468C97.5251 15.1053 99.8338 15.6847 101.938 16.6071C104.843 17.8799 107.485 19.8508 109.272 22.4702C111.001 25.0051 111.869 28.0377 112.319 31.073C112.523 32.4445 112.646 33.8412 112.47 35.2166C112.294 36.5919 111.801 37.9541 110.889 38.9985C110.434 39.5192 109.882 39.9539 109.268 40.2729M31.2748 19.8425C30.9233 19.6426 30.6239 19.3521 30.414 19.0066C30.2038 18.6612 30.0837 18.2616 30.0682 17.8576C30.053 17.45 30.1419 17.0441 30.2757 16.6588C30.4095 16.2735 30.5878 15.9054 30.7573 15.5343C31.5285 13.845 32.1253 12.0702 33.0609 10.4662C34.866 7.37179 37.842 5.09439 41.0671 3.53465C42.714 2.73819 44.4536 2.10548 46.2621 1.82995C49.548 1.32935 52.9137 2.02915 56.039 3.16025C57.0147 3.51326 57.9815 3.91197 58.8541 4.47365C59.7267 5.03532 60.5063 5.77035 61.0015 6.68228C61.5339 7.66253 61.7219 8.81049 62.3232 9.75009C62.6679 10.2889 63.1439 10.7439 63.7001 11.06C64.2563 11.376 64.892 11.5521 65.5316 11.5622C66.3695 11.5735 67.2092 11.2991 67.8757 10.7912" stroke="#FF6600" stroke-width="2.13543" stroke-linecap="round"/>
<path d="M43.9014 38.0026C45.9472 38.6083 47.6689 40.0002 48.6904 41.8735C49.7118 43.7467 49.9499 45.9486 49.351 47.9965C48.7522 50.0445 47.3657 51.7716 45.4958 52.7994C43.626 53.8272 41.4253 54.0719 39.3753 53.4799C37.3255 52.8879 35.5936 51.5074 34.5596 49.6411C33.5255 47.7748 33.2733 45.5747 33.8583 43.5229C34.4433 41.4711 35.8175 39.7348 37.6803 38.6944C39.543 37.6541 41.7424 37.3944 43.7962 37.9724" fill="#131313"/>
<path opacity="0.96" d="M39.7744 40.1531C40.471 40.3593 41.0579 40.8331 41.4058 41.471C41.7536 42.1088 41.8348 42.8586 41.6309 43.5559C41.427 44.2532 40.9545 44.8412 40.3179 45.1912C39.6812 45.5412 38.9323 45.6246 38.2343 45.423C37.5364 45.2215 36.9467 44.7515 36.5946 44.116C36.2425 43.4805 36.1564 42.7313 36.3556 42.0327C36.5548 41.334 37.0224 40.7428 37.6567 40.3886C38.291 40.0344 39.04 39.9459 39.7393 40.1427" fill="white"/>
<path opacity="0.96" d="M44.9572 47.7384C45.3842 47.8648 45.7434 48.1553 45.9565 48.5462C46.1697 48.9372 46.219 49.3966 46.094 49.824C45.9691 50.2514 45.6797 50.612 45.2894 50.8265C44.8991 51.041 44.4402 51.092 44.0123 50.9684C43.5845 50.8448 43.2233 50.5567 43.0075 50.1672C42.7917 49.7777 42.7387 49.3186 42.8608 48.8904C42.9829 48.4622 43.2701 48.0997 43.6589 47.8825C44.0477 47.6654 44.5064 47.6112 44.9351 47.7319" fill="white"/>
<path d="M61.9097 60.5406C61.2293 60.567 60.5335 60.4601 59.8793 60.1864C59.2232 59.9116 58.6317 59.4746 58.1815 58.8872C57.5912 58.1163 57.3077 57.1607 57.3844 56.1928C57.4297 55.6062 57.9419 55.1672 58.5285 55.211C59.1151 55.2568 59.6805 55.8139 59.6366 56.4007C59.6744 57.3872 59.9654 57.7076 60.7085 58.0589C61.0449 58.1995 61.4312 58.2596 61.8231 58.2434C62.1973 58.2282 62.5688 58.1576 62.8639 57.9848C63.6119 57.5469 63.7582 57.153 63.8886 56.4214C63.8319 55.8343 64.2628 55.312 64.8482 55.2551C65.4378 55.198 65.9613 55.6319 66.0146 56.2221C66.0977 57.1044 65.871 57.984 65.3725 58.7171C64.9733 59.3052 64.4306 59.7566 63.8221 60.0607C63.2162 60.3634 62.5563 60.5136 61.9104 60.5405L61.9097 60.5406Z" fill="#131313"/>
<path d="M84.2588 38.1131C86.3047 38.7188 88.0272 40.1107 89.0487 41.984C90.0702 43.8572 90.3073 46.0589 89.7085 48.1068C89.1096 50.1547 87.7231 51.882 85.8533 52.9098C83.9834 53.9377 81.7827 54.1824 79.7328 53.5904C77.6829 52.9984 75.9511 51.6181 74.917 49.7518C73.8829 47.8855 73.6307 45.6852 74.2157 43.6334C74.8007 41.5814 76.1749 39.8451 78.0377 38.8047C79.9005 37.7643 82.0997 37.5048 84.1536 38.0829" fill="#131313"/>
<path opacity="0.96" d="M80.1337 40.2634C80.8303 40.4696 81.4163 40.9435 81.7642 41.5813C82.112 42.2191 82.1932 42.9689 81.9893 43.6662C81.7854 44.3636 81.3129 44.9516 80.6763 45.3016C80.0396 45.6515 79.2907 45.735 78.5927 45.5334C77.8948 45.3318 77.3051 44.8618 76.953 44.2263C76.6009 43.5909 76.5148 42.8417 76.714 42.143C76.9132 41.4444 77.3808 40.8532 78.0151 40.4989C78.6494 40.1447 79.3984 40.0562 80.0977 40.253" fill="white"/>
<path opacity="0.96" d="M85.3156 47.8487C85.7427 47.9751 86.1017 48.2654 86.3149 48.6563C86.5282 49.0473 86.5774 49.5069 86.4524 49.9343C86.3275 50.3618 86.039 50.7224 85.6487 50.9369C85.2584 51.1514 84.7986 51.2024 84.3707 51.0788C83.9429 50.9552 83.5817 50.6671 83.3659 50.2776C83.1501 49.8881 83.0971 49.429 83.2192 49.0007C83.3413 48.5725 83.6285 48.21 84.0173 47.9929C84.4061 47.7758 84.8648 47.7216 85.2935 47.8423" fill="white"/>
<path d="M105.5 58.6631C108.802 58.9791 112.057 59.7821 115.126 61.0381C118.597 62.4579 121.861 64.4838 124.4 67.2422C127.131 70.2086 128.963 73.9926 129.595 77.9749" stroke="#131313" stroke-width="2.51339" stroke-linecap="round"/>
<path d="M123.622 77.2569C123.002 77.4404 122.48 77.8621 122.17 78.4297C121.861 78.9972 121.789 79.6643 121.97 80.2848C122.152 80.9053 122.572 81.4286 123.138 81.74C123.705 82.0514 124.372 82.1255 124.993 81.9461C125.614 81.7667 126.138 81.3485 126.452 80.783C126.765 80.2176 126.841 79.5511 126.664 78.9294C126.487 78.3078 126.07 77.7818 125.506 77.4665C124.942 77.1513 124.275 77.0727 123.653 77.2477M127.968 76.9118C126.765 77.2678 125.753 78.086 125.153 79.1869C124.552 80.2879 124.413 81.5819 124.765 82.7855C125.117 83.9891 125.931 85.0041 127.03 85.6082C128.129 86.2123 129.423 86.3561 130.628 86.0083C131.832 85.6603 132.85 84.8491 133.458 83.7522C134.066 82.6553 134.214 81.3622 133.87 80.1563C133.526 78.9503 132.718 77.9299 131.624 77.3184C130.529 76.7069 129.236 76.5543 128.029 76.894" fill="#131313"/>
<g style="mix-blend-mode:color-dodge" opacity="0.9">
<path d="M36.4422 24.4461C36.9664 25.9209 36.7577 27.8949 35.8619 29.9357C34.9661 31.9765 33.4562 33.9176 31.663 35.3338C29.8698 36.7501 27.9396 37.5259 26.2952 37.4913C24.6508 37.4568 23.4263 36.6146 22.89 35.1494C22.3537 33.6842 22.5494 31.7155 23.4341 29.6745C24.3189 27.6334 25.8205 25.6866 27.61 24.2605C29.3996 22.8344 31.3312 22.0453 32.9816 22.0661C34.6319 22.0869 35.8666 22.9159 36.4149 24.3714" fill="white"/>
</g>
<path d="M38.1655 25.101C39.4399 26.0903 41.0253 26.6727 42.637 26.7438C44.2419 26.8145 45.8654 26.3783 47.2184 25.5123C48.5715 24.6464 49.6478 23.355 50.2559 21.8682" stroke="#FF6F11" stroke-width="1.37953" stroke-linecap="round"/>
<path d="M44.8481 19.5312C46.0492 20.4276 47.4131 21.1053 48.8529 21.5212C50.1813 21.9049 51.5787 22.066 52.9556 21.9394C54.5328 21.7943 56.0737 21.2691 57.4109 20.4204" stroke="#FF6F11" stroke-width="1.37953" stroke-linecap="round"/>
<path d="M79.3906 24.1094C80.3455 25.9228 81.9703 27.3737 83.8799 28.118C85.9043 28.907 88.2301 28.8906 90.2432 28.073" stroke="#FF6F11" stroke-width="1.37953" stroke-linecap="round"/>
<path d="M85.5511 28.6221C85.4188 29.9318 85.7733 31.2852 86.5304 32.3621C87.5418 33.8007 89.2188 34.6914 90.955 34.9707C92.5316 35.2243 94.1814 35.0047 95.636 34.3446" stroke="#FF6F11" stroke-width="1.37953" stroke-linecap="round"/>
<path d="M55.9019 39.0359C57.2965 40.2238 59.1059 40.9151 60.9373 40.9598C63.0235 41.0108 65.1181 40.2138 66.6429 38.7891" stroke="#FF6F11" stroke-width="1.37953" stroke-linecap="round"/>
<path d="M36.185 55.1508C37.7873 55.3477 39.1361 55.8001 39.9362 56.4089C40.7362 57.0177 40.9221 57.7333 40.4531 58.3989C39.9841 59.0645 38.8984 59.6258 37.434 59.9598C35.9697 60.2938 34.2459 60.3734 32.6404 60.181C31.035 59.9886 29.6787 59.54 28.8688 58.9334C28.0589 58.3269 27.8615 57.6118 28.3197 56.9449C28.7778 56.2781 29.8543 55.7137 31.3132 55.3756C32.7722 55.0375 34.4946 54.9531 36.1031 55.141" fill="#FF6F11"/>
<path d="M36.185 55.1508C37.7873 55.3477 39.1361 55.8001 39.9362 56.4089C40.7362 57.0177 40.9221 57.7333 40.4531 58.3989C39.9841 59.0645 38.8984 59.6258 37.434 59.9598C35.9697 60.2938 34.2459 60.3734 32.6404 60.181C31.035 59.9886 29.6787 59.54 28.8688 58.9334C28.0589 58.3269 27.8615 57.6118 28.3197 56.9449C28.7778 56.2781 29.8543 55.7137 31.3132 55.3756C32.7722 55.0375 34.4946 54.9531 36.1031 55.141" stroke="#FF6600" stroke-width="0.888189" stroke-linecap="round" stroke-linejoin="round"/>
<path d="M91.0746 55.2651C92.6769 55.4619 94.0258 55.9143 94.8258 56.5231C95.6258 57.132 95.8117 57.8475 95.3427 58.5131C94.8737 59.1787 93.7881 59.74 92.3237 60.074C90.8593 60.408 89.1355 60.4876 87.5301 60.2952C85.9246 60.1029 84.5684 59.6543 83.7585 59.0477C82.9486 58.4411 82.7511 57.7261 83.2093 57.0592C83.6674 56.3923 84.7439 55.828 86.2028 55.4899C87.6617 55.1517 89.3842 55.0674 90.9927 55.2552" fill="#FF6F11"/>
<path d="M91.0746 55.2651C92.6769 55.4619 94.0258 55.9143 94.8258 56.5231C95.6258 57.132 95.8117 57.8475 95.3427 58.5131C94.8737 59.1787 93.7881 59.74 92.3237 60.074C90.8593 60.408 89.1355 60.4876 87.5301 60.2952C85.9246 60.1029 84.5684 59.6543 83.7585 59.0477C82.9486 58.4411 82.7511 57.7261 83.2093 57.0592C83.6674 56.3923 84.7439 55.828 86.2028 55.4899C87.6617 55.1517 89.3842 55.0674 90.9927 55.2552" stroke="#FF6600" stroke-width="0.888189" stroke-linecap="round" stroke-linejoin="round"/>
<path d="M67.4707 73.9937C69.1656 75.6916 71.5336 76.6983 73.9322 76.7408C76.8057 76.7918 79.6575 75.445 81.4996 73.2391C82.592 71.9309 83.3515 70.2878 83.3497 68.5835C83.3489 67.9389 83.24 67.2945 83.0284 66.6855" stroke="#FF6F11" stroke-width="1.37953" stroke-linecap="round"/>
<path d="M82.104 72.4387C83.036 73.4417 84.3492 74.0816 85.7135 74.1974C87.1123 74.316 88.5543 73.8795 89.6396 72.9889C90.4505 72.3235 91.0543 71.4236 91.4338 70.4457C91.8519 69.3681 92.0041 68.1885 91.8733 67.04" stroke="#FF6F11" stroke-width="1.37953" stroke-linecap="round"/>
<path d="M31.3721 66.8516C32.0785 68.9283 33.6426 70.6986 35.6165 71.6554C37.7407 72.685 40.3246 72.7469 42.4707 71.7635C44.0623 71.0342 45.3935 69.7507 46.1803 68.1866" stroke="#FF6F11" stroke-width="1.37953" stroke-linecap="round"/>
<path d="M86.1898 31.5903C89.9619 32.7072 93.137 35.2737 95.0204 38.7275C96.9038 42.1813 97.3416 46.2406 96.2375 50.0165C95.1334 53.7923 92.5771 56.9767 89.1297 58.8717C85.6822 60.7667 81.6251 61.2178 77.8455 60.1264C74.066 59.035 70.8726 56.4901 68.966 53.049C67.0594 49.608 66.5947 45.5515 67.6733 41.7684C68.7519 37.9852 71.2857 34.7838 74.7202 32.8656C78.1548 30.9474 82.2102 30.4687 85.997 31.5345" fill="url(#paint0_linear_101_1364)"/>
<path d="M86.1898 31.5903C89.9619 32.7072 93.137 35.2737 95.0204 38.7275C96.9038 42.1813 97.3416 46.2406 96.2375 50.0165C95.1334 53.7923 92.5771 56.9767 89.1297 58.8717C85.6822 60.7667 81.6251 61.2178 77.8455 60.1264C74.066 59.035 70.8726 56.4901 68.966 53.049C67.0594 49.608 66.5947 45.5515 67.6733 41.7684C68.7519 37.9852 71.2857 34.7838 74.7202 32.8656C78.1548 30.9474 82.2102 30.4687 85.997 31.5345" stroke="black" stroke-width="0.944882" stroke-linecap="round" stroke-linejoin="round"/>
<path d="M45.8324 31.4788C49.6045 32.5957 52.7796 35.1624 54.663 38.6162C56.5464 42.07 56.9842 46.1294 55.8801 49.9052C54.776 53.681 52.2197 56.8654 48.7723 58.7605C45.3248 60.6555 41.2667 61.1067 37.4872 60.0154C33.7077 58.924 30.5152 56.3788 28.6086 52.9378C26.702 49.4967 26.2372 45.4403 27.3159 41.6571C28.3945 37.8739 30.9291 34.6725 34.3637 32.7543C37.7984 30.8361 41.8527 30.3573 45.6396 31.4232" fill="url(#paint1_linear_101_1364)"/>
<path d="M45.8324 31.4788C49.6045 32.5957 52.7796 35.1624 54.663 38.6162C56.5464 42.07 56.9842 46.1294 55.8801 49.9052C54.776 53.681 52.2197 56.8654 48.7723 58.7605C45.3248 60.6555 41.2667 61.1067 37.4872 60.0154C33.7077 58.924 30.5152 56.3788 28.6086 52.9378C26.702 49.4967 26.2372 45.4403 27.3159 41.6571C28.3945 37.8739 30.9291 34.6725 34.3637 32.7543C37.7984 30.8361 41.8527 30.3573 45.6396 31.4232" stroke="black" stroke-width="0.944882" stroke-linecap="round" stroke-linejoin="round"/>
<path d="M56.4766 45.7333C57.6905 44.8689 59.1213 44.3119 60.6003 44.1282C62.8797 43.8451 65.2599 44.4728 67.1028 45.8442" stroke="black" stroke-width="0.999999"/>
<path d="M18.3746 58.9912C19.6658 62.0464 21.4077 64.9114 23.5261 67.4635C25.9208 70.3483 28.8322 72.8549 32.225 74.4507C35.8737 76.1669 40.0326 76.78 44.0213 76.1895" stroke="#131313" stroke-width="2.51339" stroke-linecap="round"/>
<path d="M41.5458 70.7058C41.535 70.0594 41.7808 69.4349 42.2295 68.9695C42.6782 68.5041 43.293 68.2353 43.9393 68.2224C44.5857 68.2094 45.2108 68.4535 45.6778 68.9006C46.1447 69.3478 46.4154 69.9619 46.4305 70.6082C46.4455 71.2544 46.2037 71.8803 45.7582 72.3486C45.3126 72.817 44.6997 73.0895 44.0535 73.1067C43.4073 73.124 42.7805 72.8844 42.3106 72.4405C41.8408 71.9966 41.5661 71.3845 41.5466 70.7384M42.5193 74.9555C42.4986 73.7016 42.9756 72.4904 43.846 71.5876C44.7164 70.6849 45.9093 70.1642 47.163 70.1391C48.4168 70.1141 49.6292 70.5868 50.5349 71.4541C51.4406 72.3214 51.9657 73.5129 51.995 74.7665C52.0243 76.0202 51.5553 77.2341 50.691 78.1427C49.8268 79.0513 48.6377 79.5806 47.3841 79.6141C46.1306 79.6476 44.9148 79.1825 44.0032 78.3213C43.0917 77.4601 42.5587 76.2732 42.5209 75.0198" fill="#131313"/>
<defs>
<linearGradient id="paint0_linear_101_1364" x1="67.9455" y1="27.1627" x2="90.0037" y2="56.458" gradientUnits="userSpaceOnUse">
<stop stop-color="#FF6600" stop-opacity="0.8"/>
<stop offset="1" stop-color="white" stop-opacity="0"/>
</linearGradient>
<linearGradient id="paint1_linear_101_1364" x1="24.809" y1="25.5264" x2="49.7053" y2="56.6917" gradientUnits="userSpaceOnUse">
<stop stop-color="#FF6600" stop-opacity="0.8"/>
<stop offset="1" stop-color="white" stop-opacity="0"/>
</linearGradient>
</defs>
</svg>
