<svg width="146" height="107" viewBox="0 0 146 107" fill="none" xmlns="http://www.w3.org/2000/svg">
<path d="M52.4479 93.1685C52.2287 94.8401 52.123 96.5259 52.1268 98.2117C52.1302 99.5594 52.206 100.907 52.3496 102.247C51.3193 102.146 50.2954 101.983 49.2848 101.759C48.7568 101.642 48.209 101.508 47.6829 101.632C47.4183 101.694 47.168 101.824 46.9881 102.026C46.8067 102.228 46.7044 102.505 46.7422 102.773C46.78 102.978 46.8782 103.167 47.0181 103.321C47.1579 103.476 47.328 103.598 47.5011 103.712C48.3549 104.272 49.3598 104.65 50.3791 104.599C50.852 104.576 51.3268 104.456 51.7263 104.202C52.1262 103.949 52.4451 103.552 52.5536 103.091C52.5914 102.938 52.6027 102.779 52.5914 102.621" fill="#131313"/>
<path d="M50.93 90.6787C49.8729 91.5419 50.007 96.3379 50.1124 98.2179C50.1502 98.7696 50.4224 99.9296 50.4451 100.482C49.3025 100.474 48.3408 100.443 47.6114 100.622C47.0184 100.767 45.8435 101.166 45.221 101.655C44.6567 102.098 44.0459 102.531 44.14 103.489C44.2648 104.774 47.4789 106.107 50.5558 106.181C52.5809 106.373 57.32 104.751 56.041 102.244C54.8361 100.072 54.1753 99.9191 54.1319 98.2032C54.0903 96.6132 54.1698 93.3538 54.5443 91.7352L50.93 90.6787Z" fill="#131313"/>
<path d="M53.2284 90.1043C50.4686 89.1864 48.1554 87.5949 45.7104 84.9322C43.8199 82.8733 43.1839 81.8669 43.4326 81.3282C43.6216 80.9171 43.8649 79.5233 43.9715 78.231C44.1302 76.3287 44.0168 75.8229 43.3796 75.5758C42.3239 75.1658 41.2078 76.1552 41.4893 77.2511C42.3484 80.5916 37.8308 82.215 32.3086 80.5499C26.5512 78.8138 23.8926 75.635 23.5135 70.0341C23.3094 66.997 23.3284 66.9288 24.4127 66.9333C26.3006 66.9446 28.9119 64.7583 28.947 63.1429C28.9848 61.6815 27.6556 61.7322 25.9016 63.2596C24.4895 64.4894 23.9549 64.687 22.6332 64.467C17.8529 63.6712 13.2931 56.385 13.9946 50.6629C14.5891 45.8144 18.3396 40.9705 22.6766 39.4509C24.7584 38.7215 24.9384 38.5454 24.678 37.4982C22.9644 30.6127 24.1382 25.0752 28.1498 21.1171C30.6639 18.6363 33.7545 17.2343 37.3144 16.9599C40.1853 16.7385 40.1903 16.7405 40.1851 17.9722C40.1851 19.468 42.1144 21.5792 43.1364 21.1918C43.9354 20.8891 44.1117 19.3908 43.4008 18.9473C42.6199 18.4603 42.8835 17.3764 44.7249 13.5011C46.8169 9.09746 49.0444 6.8924 53.5209 4.7939C56.2346 3.52159 57.0064 3.3693 60.482 3.4204C63.3265 3.46236 65.0939 3.75435 66.9693 4.4917C70.5062 5.88219 71.2503 6.81269 71.0889 9.6408C71.0171 10.8911 71.0895 12.3324 71.2513 12.8436C71.6296 14.0531 74.0294 14.0554 73.6476 12.8738C73.0561 11.0421 73.5115 11.2735 74.7258 12.4182C76.6288 14.2108 81.22 12.1896 80.534 10.3804C80.2279 9.57076 79.241 9.55521 77.3792 10.3305C76.4698 10.7092 74.0769 8.59245 74.3812 7.67837C74.6987 6.72075 77.4098 5.16234 80.5465 4.13276C90.1215 0.989738 100.039 6.68661 103.023 17.0439C103.152 17.4965 103.59 17.5583 104.696 17.2806C109.424 16.0946 114.557 17.9058 118.361 22.103C122.726 26.9182 124.075 35.9126 120.846 38.6752C119.463 39.8584 119.3 41.3637 120.521 41.6879C121.026 41.8221 121.718 42.8148 122.203 44.099C122.908 45.9686 122.946 46.5754 122.467 48.3309C121.846 50.6185 122.024 51.2354 123.312 51.2407C125.406 51.2521 125.99 46.1274 124.327 42.326C123.791 41.1029 123.469 39.9178 123.61 39.6922C124.359 38.4905 129.758 43.5584 131.186 46.8052C132.641 50.1107 132.644 54.8589 131.186 57.5843C129.905 59.9898 127.575 62.6555 125.842 63.7C124.581 64.4598 124.492 64.4554 123.631 63.5872C123.028 62.9791 122.252 62.7272 121.265 62.8185C120.046 62.9316 119.796 63.1488 119.792 64.0982C119.792 64.8781 120.08 65.2973 120.707 65.4163C122.16 65.6922 122.679 66.3378 122.996 68.2666C123.413 70.7986 122.196 74.5473 120.208 76.8504C118.112 79.2793 113.608 81.5569 110.924 81.5459C109.075 81.5346 105.698 80.335 105.7 79.6848C105.701 79.5257 106.418 79.0571 107.293 78.6439C109.243 77.7241 110.416 75.6153 110.237 73.3516C110.12 71.8851 109.946 71.6533 108.952 71.6491C107.974 71.6491 107.795 71.8644 107.751 73.1237C107.691 74.8433 107.001 75.798 105.129 76.7565C103.925 77.3729 103.704 77.3691 102.99 76.7177C101.97 75.7868 100.706 75.7811 100.347 76.7064C100.169 77.168 100.702 78.0835 101.832 79.2495L103.596 81.0714L102.721 82.68C101.506 84.9153 97.7769 88.2625 95.1815 89.4483C93.4316 90.2479 92.1568 90.438 88.6389 90.4236C83.2787 90.4009 81.3554 89.621 77.2717 85.8092C74.4434 83.169 74.4322 83.1484 75.1148 81.8419C76.0597 80.0324 76.033 76.9863 75.0696 76.6116C73.9867 76.191 73.0556 77.1588 73.0492 78.7111C73.0492 80.5987 71.9194 82.5413 69.171 85.4235C65.7297 89.0327 63.1131 90.2208 58.2836 90.368C56.1334 90.4341 53.8567 90.3152 53.2252 90.1055L53.2284 90.1043ZM76.8735 40.9377C78.9904 39.8689 79.493 39.2179 78.767 38.4862C78.3648 38.0805 77.8012 38.1994 76.4375 38.9767C74.1501 40.2807 71.2473 40.2998 68.8941 39.0265C66.8925 37.9429 65.6646 38.3944 66.8148 39.7914C68.5549 41.9059 73.7784 42.5014 76.8735 40.9382V40.9377ZM107.042 35.5325C109.345 34.6676 108.105 33.9299 104.322 33.9145C100.879 33.8994 100.714 33.8484 99.4219 32.3925C97.6274 30.3688 97.6835 29.5179 99.6106 29.5258C101.398 29.5371 102.987 28.5487 102.492 27.7405C102.269 27.3743 101.651 27.2916 100.698 27.4999C97.2428 28.2541 93.9031 27.1089 92.2832 24.6145C91.5307 23.4554 89.8366 23.094 89.8324 24.0918C89.8324 25.1711 92.4814 27.9345 94.3326 28.7783C95.7768 29.4367 96.223 29.9277 96.4369 31.0933C96.7317 32.7053 98.5504 34.7227 100.365 35.4527C101.881 36.0629 105.513 36.1064 107.041 35.5328L107.042 35.5325ZM58.5775 26.8122C59.302 26.4415 60.4743 25.4172 61.1833 24.5363C62.2416 23.2211 62.7786 22.9361 64.1873 22.9418C66.6595 22.9531 69.6061 21.6871 69.6106 20.6142C69.6106 19.5745 68.4882 19.4963 66.8517 20.423C64.9589 21.4948 61.3788 21.2545 58.6315 19.8714C56.9579 19.029 56.0645 18.8002 55.7327 19.1295C55.0044 19.852 55.6947 20.5954 58.1752 21.7568L60.4262 22.8106L58.8525 24.1806C56.6656 26.0851 54.4905 26.4044 51.8244 25.212C49.1958 24.0363 48.8993 24.0312 48.8948 25.1628C48.8948 27.527 55.1102 28.5874 58.5775 26.8122V26.8122Z" fill="#0E3BAE" stroke="#0E3BAE" stroke-width="1.85134" stroke-linecap="round" stroke-linejoin="round"/>
<path d="M108.959 72.6914C109.33 73.8666 109.088 75.2176 108.331 76.1904C107.881 76.7697 107.272 77.2084 106.628 77.5602C105.984 77.9121 105.299 78.1837 104.63 78.4843C104.278 78.6427 103.929 78.8089 103.584 78.9835" stroke="#0E1CA4" stroke-width="2.13543" stroke-linecap="round"/>
<path d="M93.9646 93.3232C94.1838 94.9949 94.2895 96.6807 94.2857 98.3665C94.2823 99.7142 94.2065 101.062 94.0629 102.402C95.0932 102.301 96.1171 102.138 97.1277 101.914C97.6557 101.797 98.204 101.662 98.7301 101.787C98.9946 101.849 99.2445 101.979 99.4244 102.181C99.6058 102.382 99.7081 102.66 99.6703 102.927C99.6325 103.133 99.5343 103.322 99.3944 103.476C99.2546 103.63 99.0845 103.753 98.9114 103.867C98.0576 104.426 97.0527 104.805 96.0334 104.754C95.5606 104.731 95.0857 104.611 94.6862 104.357C94.2863 104.103 93.9679 103.707 93.8594 103.246C93.8216 103.092 93.8102 102.933 93.8216 102.776" fill="#131313"/>
<path d="M95.483 90.8335C96.5402 91.6967 96.4056 96.4927 96.3001 98.3727C96.2623 98.9244 95.9901 100.085 95.9675 100.637C97.11 100.629 98.0717 100.598 98.8012 100.777C99.3942 100.922 100.569 101.321 101.192 101.81C101.756 102.253 102.367 102.686 102.273 103.643C102.148 104.929 98.9341 106.262 95.8572 106.335C93.8321 106.528 89.0925 104.906 90.3715 102.399C91.5764 100.226 92.2372 100.074 92.2807 98.3582C92.3222 96.7682 92.2432 93.5088 91.8687 91.8903L95.483 90.8335Z" fill="#131313"/>
<path d="M27.6504 63.2828C27.2169 64.1188 26.5316 64.8224 25.7076 65.2782C24.6131 65.8837 23.2929 66.0396 22.0683 65.7836C20.8959 65.5387 19.8255 64.9382 18.8568 64.2341C16.2512 62.3405 14.2502 59.6151 13.2747 56.5454C12.0841 52.7988 12.4673 48.5782 14.3174 45.1095C15.5385 42.8199 17.3716 40.865 19.5622 39.4739C20.7399 38.7258 22.0197 38.138 23.3546 37.7315C23.211 37.2234 23.0821 36.7104 22.9717 36.1938C22.2014 32.5872 22.3017 28.738 23.6665 25.3119C25.0529 21.8312 27.7453 18.8886 31.089 17.1983C34.4328 15.5081 38.3985 15.0854 42.0234 16.0329M42.7372 76.7254C43.0962 77.7306 43.0247 78.8804 42.5485 79.8348C42.0874 80.7573 41.2725 81.4746 40.3491 81.9343C38.6109 82.7998 36.5637 82.7806 34.6429 82.4967C32.3325 82.1554 30.0638 81.4524 28.0297 80.3052C26.2552 79.3044 24.6429 77.9368 23.6319 76.1681C22.5755 74.3204 22.2329 72.1528 22.0923 70.0291C21.9978 68.6163 21.9865 67.1979 22.0545 65.7836M74.4604 77.7533C74.5889 78.3081 74.6193 78.8855 74.5513 79.451C74.3812 80.8408 73.6261 82.085 72.8271 83.2349C71.8135 84.6935 70.6954 86.0857 69.4066 87.308C67.9136 88.7242 66.1903 89.9083 64.296 90.7116C61.9912 91.6888 59.4583 92.089 56.957 91.9907C54.6012 91.8981 52.2517 91.3632 50.1394 90.3159C47.4782 88.9966 45.262 86.9042 43.4255 84.5698C42.6284 83.5565 41.895 82.4927 41.2317 81.3871M101.544 77.2523C102.248 77.8005 102.929 78.3783 103.584 78.9836C103.856 79.2338 104.122 79.4908 104.34 79.7882C104.56 80.0857 104.726 80.428 104.772 80.794C104.829 81.2349 104.704 81.6787 104.549 82.0948C103.951 83.6933 102.862 85.0601 101.688 86.2988C100.389 87.6688 98.9523 88.9275 97.3143 89.8659C95.2249 91.0627 92.849 91.7099 90.4528 91.9446C87.3354 92.25 84.1077 91.8529 81.2882 90.4885C79.3024 89.5277 77.5669 88.1173 75.9723 86.5929C74.8634 85.5326 73.8125 84.411 72.8271 83.2349M120.751 64.0814C121.301 63.923 121.914 63.9954 122.412 64.2777C122.965 64.5907 123.353 65.1326 123.632 65.7036C124.055 66.5736 124.259 67.5368 124.349 68.5004C124.579 70.9881 124.046 73.5509 122.788 75.709C121.512 77.8966 119.54 79.6169 117.363 80.9109C115.415 82.0691 113.227 82.9247 110.961 82.9636C108.729 83.0017 106.492 82.2175 104.772 80.794M123.302 37.6042C124.517 38.1137 125.678 38.7513 126.759 39.5027C128.104 40.4367 129.327 41.5485 130.362 42.8174C131.436 44.1358 132.307 45.6262 132.877 47.2288C133.145 47.9814 133.346 48.7571 133.489 49.543C133.852 51.5406 133.837 53.616 133.349 55.5874C132.646 58.4384 130.985 60.9884 128.937 63.0929C127.995 64.0609 126.934 64.9658 125.658 65.4099C125.01 65.6359 124.318 65.7361 123.632 65.7036M121.645 39.8238C122.169 40.7332 122.643 41.6713 123.065 42.6324C123.606 43.8646 124.065 45.1586 124.129 46.5028C124.189 47.7437 123.899 48.999 123.303 50.089M72.5545 12.5491C72.2143 11.5583 72.1165 10.4856 72.2707 9.44964C72.4597 8.18947 73.0237 6.98468 73.8911 6.05144C74.9996 4.85869 76.5282 4.15592 78.0415 3.55498C80.1637 2.71218 82.3651 2.00522 84.64 1.80777C88.11 1.50655 91.6286 2.42238 94.6775 4.10631C97.6547 5.75056 100.233 8.13828 102.007 11.0397C102.969 12.6132 103.694 14.3313 104.15 16.1183C104.97 15.7928 105.834 15.5801 106.711 15.4873C108.996 15.2458 111.305 15.8252 113.409 16.7476C116.313 18.0204 118.956 19.9914 120.743 22.6109C122.472 25.1457 123.34 28.1782 123.79 31.2135C123.994 32.5851 124.119 33.9817 123.941 35.3571C123.767 36.7324 123.272 38.0947 122.36 39.1391C121.905 39.6598 121.353 40.0944 120.74 40.4134M42.7459 19.9831C42.3944 19.7832 42.0952 19.4926 41.885 19.1471C41.6772 18.8017 41.5564 18.4021 41.5413 17.9981C41.5413 17.5904 41.6166 17.1846 41.7489 16.7992C41.8812 16.4139 42.0629 16.046 42.2311 15.6749C43.0021 13.9857 43.5989 12.2107 44.5347 10.6068C46.3398 7.51231 49.3157 5.2349 52.5408 3.67516C54.1875 2.8787 55.9273 2.24593 57.7358 1.97041C61.0217 1.46981 64.3874 2.16966 67.5126 3.30076C68.4885 3.65377 69.4551 4.0526 70.3274 4.61428C71.2001 5.17595 71.98 5.91092 72.4751 6.82285C73.0077 7.8031 73.1956 8.95112 73.7969 9.89071C74.1409 10.4296 74.6173 10.8845 75.1737 11.2005C75.73 11.5165 76.3658 11.6927 77.0053 11.7027C77.8432 11.7141 78.6827 11.4396 79.349 10.9318" stroke="#0F1FB4" stroke-width="2.13543" stroke-linecap="round"/>
<path d="M49.6367 25.2416C50.9112 26.2308 52.4967 26.8132 54.1083 26.8843C55.7131 26.955 57.337 26.5189 58.6897 25.6529C60.0428 24.787 61.1187 23.4957 61.7269 22.0088" stroke="#0F1EB3" stroke-width="1.37953" stroke-linecap="round"/>
<path d="M56.3188 19.6719C57.52 20.5683 58.884 21.2459 60.324 21.6618C61.6525 22.0455 63.0496 22.2066 64.4265 22.08C66.0037 21.9349 67.5447 21.4097 68.8819 20.5609" stroke="#0F1EB3" stroke-width="1.37953" stroke-linecap="round"/>
<path d="M90.8618 24.25C91.8165 26.0635 93.442 27.5146 95.3514 28.2588C97.3757 29.0478 99.7016 29.0314 101.715 28.2138" stroke="#0F1EB3" stroke-width="1.37953" stroke-linecap="round"/>
<path d="M97.0218 28.7627C96.8895 30.0725 97.245 31.4256 98.0012 32.5025C99.0126 33.9411 100.689 34.8319 102.426 35.1111C104.002 35.3647 105.652 35.1453 107.107 34.4853" stroke="#0F1EB3" stroke-width="1.37953" stroke-linecap="round"/>
<path d="M67.373 39.1755C68.7677 40.3635 70.5769 41.0548 72.4084 41.0994C74.4947 41.1505 76.589 40.3534 78.1137 38.9287" stroke="#0F1EB3" stroke-width="1.37953" stroke-linecap="round"/>
<path d="M55.3716 38.1424C57.4175 38.7481 59.14 40.14 60.1615 42.0133C61.183 43.8865 61.4201 46.0884 60.8213 48.1363C60.2225 50.1843 58.8364 51.9113 56.9666 52.9391C55.0967 53.9669 52.8955 54.2114 50.8456 53.6194C48.7957 53.0275 47.0644 51.6474 46.0303 49.7811C44.9962 47.9148 44.744 45.7145 45.329 43.6626C45.914 41.6107 47.2882 39.8744 49.151 38.834C51.0138 37.7936 53.213 37.5341 55.2669 38.1122" fill="#131313"/>
<path opacity="0.96" d="M51.2471 40.2927C51.9437 40.499 52.5298 40.973 52.8776 41.6108C53.2253 42.2487 53.3062 42.9983 53.1023 43.6955C52.8984 44.3929 52.4263 44.9809 51.7897 45.3309C51.153 45.6808 50.4037 45.7643 49.7057 45.5627C49.0077 45.3611 48.4181 44.8911 48.066 44.2556C47.7139 43.6202 47.6283 42.871 47.8274 42.1723C48.0266 41.4737 48.4942 40.8825 49.1285 40.5282C49.7628 40.174 50.5118 40.0855 51.2111 40.2823" fill="white"/>
<path opacity="0.96" d="M56.4281 47.878C56.8551 48.0044 57.2147 48.2947 57.4279 48.6856C57.6411 49.0766 57.6908 49.5362 57.5658 49.9636C57.4409 50.3911 57.1515 50.7517 56.7612 50.9662C56.3709 51.1807 55.9115 51.2317 55.4837 51.108C55.0559 50.9845 54.6946 50.6964 54.4788 50.3069C54.263 49.9174 54.2105 49.4583 54.3326 49.03C54.4547 48.6018 54.7415 48.2393 55.1303 48.0222C55.5191 47.8051 55.9778 47.7509 56.4064 47.8716" fill="white"/>
<path d="M73.3807 60.6811C72.7003 60.7076 72.0044 60.6007 71.3502 60.327C70.694 60.0523 70.1025 59.6152 69.6523 59.0278C69.062 58.257 68.7784 57.3013 68.8551 56.3334C68.9004 55.7469 69.4127 55.3078 69.9993 55.3517C70.5859 55.3974 71.1513 55.9545 71.1075 56.5413C71.1453 57.5278 71.4362 57.8481 72.1792 58.1994C72.5156 58.34 72.902 58.4002 73.2939 58.384C73.6681 58.3689 74.0396 58.2981 74.3348 58.1254C75.0827 57.6874 75.2291 57.2937 75.3595 56.562C75.3028 55.9749 75.7337 55.4526 76.3191 55.3957C76.9087 55.3386 77.4322 55.7725 77.4854 56.3627C77.5686 57.245 77.3417 58.1247 76.8432 58.8578C76.4441 59.4458 75.9015 59.8973 75.293 60.2013C74.6872 60.5041 74.027 60.6542 73.3811 60.6811H73.3807Z" fill="#131313"/>
<path d="M47.6558 55.2914C49.2582 55.4882 50.6072 55.9407 51.4072 56.5495C52.2072 57.1583 52.3934 57.8738 51.9244 58.5394C51.4554 59.205 50.3696 59.7664 48.9052 60.1004C47.4408 60.4345 45.7171 60.5141 44.1116 60.3217C42.5061 60.1293 41.1498 59.6805 40.3399 59.0739C39.53 58.4673 39.3327 57.7523 39.7909 57.0854C40.2491 56.4185 41.3253 55.8542 42.7842 55.5161C44.2432 55.1779 45.9656 55.0938 47.5742 55.2817" fill="#0F1FB4"/>
<path d="M47.6558 55.2914C49.2582 55.4882 50.6072 55.9407 51.4072 56.5495C52.2072 57.1583 52.3934 57.8738 51.9244 58.5394C51.4554 59.205 50.3696 59.7664 48.9052 60.1004C47.4408 60.4345 45.7171 60.5141 44.1116 60.3217C42.5061 60.1293 41.1498 59.6805 40.3399 59.0739C39.53 58.4673 39.3327 57.7523 39.7909 57.0854C40.2491 56.4185 41.3253 55.8542 42.7842 55.5161C44.2432 55.1779 45.9656 55.0938 47.5742 55.2817" stroke="#0E1CA9" stroke-width="0.888189" stroke-linecap="round" stroke-linejoin="round"/>
<path d="M102.546 55.4058C104.149 55.6027 105.497 56.0551 106.297 56.6639C107.097 57.2728 107.283 57.9883 106.814 58.6538C106.345 59.3194 105.26 59.8806 103.795 60.2146C102.331 60.5487 100.607 60.6284 99.0016 60.4361C97.3961 60.2437 96.0399 59.7951 95.2299 59.1886C94.4199 58.582 94.2222 57.8667 94.6804 57.1998C95.1386 56.5329 96.2153 55.9686 97.6742 55.6305C99.1332 55.2924 100.856 55.208 102.464 55.3959" fill="#0F1FB4"/>
<path d="M102.546 55.4058C104.149 55.6027 105.497 56.0551 106.297 56.6639C107.097 57.2728 107.283 57.9883 106.814 58.6538C106.345 59.3194 105.26 59.8806 103.795 60.2146C102.331 60.5487 100.607 60.6284 99.0016 60.4361C97.3961 60.2437 96.0399 59.7951 95.2299 59.1886C94.4199 58.582 94.2222 57.8667 94.6804 57.1998C95.1386 56.5329 96.2153 55.9686 97.6742 55.6305C99.1332 55.2924 100.856 55.208 102.464 55.3959" stroke="#0E1CA9" stroke-width="0.888189" stroke-linecap="round" stroke-linejoin="round"/>
<path d="M95.73 38.2537C97.7759 38.8594 99.498 40.2513 100.519 42.1246C101.541 43.9978 101.779 46.1997 101.18 48.2476C100.581 50.2956 99.1943 52.0227 97.3245 53.0505C95.4546 54.0783 93.2539 54.323 91.204 53.731C89.154 53.1391 87.4223 51.7587 86.3882 49.8924C85.3541 48.0261 85.1019 45.8259 85.6869 43.774C86.2719 41.7221 87.6465 39.9857 89.5094 38.9453C91.3722 37.9049 93.5714 37.6454 95.6253 38.2235" fill="#131313"/>
<path opacity="0.96" d="M91.6046 40.4036C92.3012 40.6098 92.8877 41.0836 93.2355 41.7214C93.5833 42.3593 93.6641 43.1091 93.4602 43.8064C93.2563 44.5037 92.7843 45.0917 92.1476 45.4417C91.5109 45.7917 90.7616 45.8751 90.0636 45.6735C89.3656 45.472 88.776 45.0019 88.4239 44.3665C88.0718 43.731 87.9862 42.9818 88.1854 42.2832C88.3846 41.5845 88.8526 40.9933 89.4869 40.6391C90.1211 40.2848 90.8697 40.1964 91.569 40.3932" fill="white"/>
<path opacity="0.96" d="M96.786 47.9888C97.2131 48.1152 97.5726 48.4055 97.7858 48.7965C97.9991 49.1874 98.0487 49.647 97.9238 50.0745C97.7988 50.5019 97.5094 50.8625 97.1191 51.077C96.7288 51.2915 96.2695 51.3425 95.8416 51.2189C95.4138 51.0953 95.0525 50.8072 94.8367 50.4177C94.621 50.0282 94.5684 49.5691 94.6905 49.1409C94.8126 48.7126 95.0994 48.3502 95.4882 48.133C95.877 47.9159 96.3362 47.8617 96.7648 47.9824" fill="white"/>
<path d="M29.2615 58.8311C25.9597 59.147 22.7047 59.9502 19.635 61.2062C16.165 62.626 12.9005 64.6518 10.361 67.4102C7.62996 70.3766 5.79882 74.1607 5.1665 78.143" stroke="#131313" stroke-width="2.51339" stroke-linecap="round"/>
<path d="M11.14 77.4249C11.7599 77.6084 12.2819 78.0301 12.5914 78.5977C12.901 79.1652 12.9731 79.8321 12.7917 80.4526C12.6102 81.0731 12.19 81.5966 11.6235 81.908C11.057 82.2194 10.3899 82.2934 9.76879 82.114C9.14776 81.9346 8.62322 81.5163 8.30995 80.9509C7.99668 80.3854 7.92047 79.719 8.09772 79.0973C8.27496 78.4757 8.69143 77.9498 9.25575 77.6346C9.82008 77.3194 10.4864 77.2406 11.1086 77.4156M6.79389 77.0798C7.99629 77.4358 9.00884 78.2538 9.60916 79.3548C10.2095 80.4557 10.3487 81.7499 9.99671 82.9534C9.64475 84.157 8.83031 85.172 7.73139 85.7761C6.63248 86.3802 5.33889 86.524 4.13411 86.1761C2.92931 85.8282 1.91138 85.0169 1.30361 83.92C0.695848 82.8231 0.547778 81.5301 0.89161 80.3241C1.23545 79.1182 2.04321 78.0977 3.13801 77.4862C4.23282 76.8748 5.52543 76.7223 6.73253 77.062" fill="#131313"/>
<path d="M116.971 58.8037C120.273 59.1197 123.528 59.9226 126.598 61.1786C130.068 62.5984 133.332 64.6245 135.872 67.3829C138.603 70.3493 140.434 74.1331 141.066 78.1154" stroke="#131313" stroke-width="2.51339" stroke-linecap="round"/>
<path d="M135.093 77.3975C134.473 77.5809 133.951 78.0027 133.641 78.5703C133.332 79.1378 133.26 79.8049 133.442 80.4254C133.623 81.0459 134.043 81.5692 134.609 81.8806C135.176 82.192 135.843 82.2662 136.464 82.0868C137.085 81.9074 137.61 81.4891 137.923 80.9237C138.236 80.3583 138.312 79.6918 138.135 79.0702C137.958 78.4485 137.542 77.9224 136.977 77.6072C136.413 77.292 135.747 77.2134 135.125 77.3885M139.439 77.0524C138.236 77.4084 137.224 78.2266 136.624 79.3276C136.023 80.4286 135.884 81.7227 136.236 82.9263C136.588 84.1299 137.402 85.1448 138.501 85.7489C139.6 86.353 140.894 86.4968 142.099 86.1489C143.303 85.801 144.321 84.9897 144.929 83.8928C145.537 82.7959 145.685 81.5029 145.341 80.2969C144.997 79.091 144.19 78.0705 143.095 77.4591C142 76.8476 140.707 76.6949 139.5 77.0346" fill="#131313"/>
<g style="mix-blend-mode:color-dodge" opacity="0.9">
<path d="M47.9128 24.5852C48.4371 26.0599 48.2287 28.0341 47.3329 30.075C46.4371 32.1158 44.9271 34.0568 43.1339 35.4731C41.3407 36.8893 39.4107 37.6654 37.7663 37.6309C36.1218 37.5963 34.8972 36.7541 34.361 35.2889C33.8247 33.8237 34.0201 31.8545 34.9048 29.8135C35.7895 27.7725 37.2913 25.8257 39.0809 24.3996C40.8705 22.9734 42.8021 22.1846 44.4525 22.2054C46.1029 22.2262 47.3372 23.0549 47.8855 24.5106" fill="white"/>
</g>
<g style="mix-blend-mode:color-dodge" opacity="0.9">
<path d="M35.0843 37.3861C35.7268 37.849 36.1443 38.6595 36.2442 39.6396C36.3441 40.6197 36.1184 41.6897 35.6174 42.6153C35.1165 43.5408 34.3804 44.2463 33.5709 44.5774C32.7613 44.9085 31.9447 44.8384 31.2988 44.3819C30.6528 43.9253 30.2307 43.1198 30.1253 42.1419C30.0199 41.164 30.2396 40.0933 30.7362 39.1645C31.2328 38.2358 31.9659 37.5247 32.7748 37.187C33.5838 36.8493 34.4025 36.9126 35.0517 37.3629" fill="white"/>
</g>
<path d="M42.8438 66.9922C43.5501 69.0689 45.1138 70.8391 47.0879 71.796C49.212 72.8256 51.7959 72.8873 53.942 71.9039C55.5335 71.1746 56.8649 69.8912 57.6518 68.3272" stroke="#0F1EB3" stroke-width="1.37953" stroke-linecap="round"/>
<path d="M78.9424 74.1338C80.6371 75.8316 83.0054 76.8385 85.4038 76.881C88.2774 76.932 91.1291 75.5851 92.9712 73.3792C94.0635 72.071 94.8232 70.4281 94.8213 68.7238C94.8205 68.0791 94.7118 67.4346 94.5002 66.8257" stroke="#0F1EB3" stroke-width="1.37953" stroke-linecap="round"/>
<path d="M93.5757 72.5794C94.5077 73.5824 95.8206 74.2221 97.185 74.3379C98.5838 74.4565 100.026 74.02 101.111 73.1293C101.922 72.464 102.526 71.5641 102.905 70.5863C103.323 69.5086 103.476 68.3291 103.345 67.1807" stroke="#0F1EB3" stroke-width="1.37953" stroke-linecap="round"/>
<path d="M42.8438 66.9922C43.5501 69.0689 45.1138 70.8391 47.0879 71.796C49.212 72.8256 51.7959 72.8873 53.942 71.9039C55.5335 71.1746 56.8649 69.8912 57.6518 68.3272" stroke="#0F1EB3" stroke-width="1.37953" stroke-linecap="round"/>
<path d="M97.5736 30.7993C101.346 31.9162 104.521 34.4826 106.404 37.9365C108.288 41.3903 108.725 45.4496 107.621 49.2255C106.517 53.0013 103.961 56.1857 100.513 58.0807C97.066 59.9757 93.0088 60.4268 89.2293 59.3354C85.4498 58.244 82.2564 55.6991 80.3498 52.258C78.4432 48.817 77.9785 44.7605 79.0571 40.9773C80.1357 37.1942 82.6695 33.9928 86.104 32.0746C89.5386 30.1563 93.594 29.6777 97.3808 30.7435" fill="url(#paint0_linear_101_1080)"/>
<path d="M97.5736 30.7993C101.346 31.9162 104.521 34.4826 106.404 37.9365C108.288 41.3903 108.725 45.4496 107.621 49.2255C106.517 53.0013 103.961 56.1857 100.513 58.0807C97.066 59.9757 93.0088 60.4268 89.2293 59.3354C85.4498 58.244 82.2564 55.6991 80.3498 52.258C78.4432 48.817 77.9785 44.7605 79.0571 40.9773C80.1357 37.1942 82.6695 33.9928 86.104 32.0746C89.5386 30.1563 93.594 29.6777 97.3808 30.7435" stroke="black" stroke-width="0.944882" stroke-linecap="round" stroke-linejoin="round"/>
<path d="M57.2152 30.6878C60.9873 31.8047 64.1624 34.3714 66.0458 37.8252C67.9292 41.279 68.367 45.3383 67.2629 49.1142C66.1588 52.89 63.6025 56.0744 60.1551 57.9694C56.7076 59.8645 52.6495 60.3157 48.87 59.2244C45.0905 58.133 41.898 55.5878 39.9914 52.1467C38.0848 48.7057 37.62 44.6493 38.6987 40.8661C39.7773 37.0828 42.3119 33.8815 45.7465 31.9633C49.1812 30.0451 53.2355 29.5663 57.0224 30.6322" fill="url(#paint1_linear_101_1080)"/>
<path d="M57.2152 30.6878C60.9873 31.8047 64.1624 34.3714 66.0458 37.8252C67.9292 41.279 68.367 45.3383 67.2629 49.1142C66.1588 52.89 63.6025 56.0744 60.1551 57.9694C56.7076 59.8645 52.6495 60.3157 48.87 59.2244C45.0905 58.133 41.898 55.5878 39.9914 52.1467C38.0848 48.7057 37.62 44.6493 38.6987 40.8661C39.7773 37.0828 42.3119 33.8815 45.7465 31.9633C49.1812 30.0451 53.2355 29.5663 57.0224 30.6322" stroke="black" stroke-width="0.944882" stroke-linecap="round" stroke-linejoin="round"/>
<path d="M67.8594 44.9422C69.0734 44.0779 70.5042 43.5209 71.9831 43.3371C74.2625 43.054 76.6427 43.6818 78.4856 45.0532" stroke="black" stroke-width="0.999999"/>
<defs>
<linearGradient id="paint0_linear_101_1080" x1="79.3293" y1="26.3717" x2="101.387" y2="55.667" gradientUnits="userSpaceOnUse">
<stop stop-color="#0E3BAE" stop-opacity="0.8"/>
<stop offset="1" stop-color="white" stop-opacity="0"/>
</linearGradient>
<linearGradient id="paint1_linear_101_1080" x1="42.0116" y1="30.986" x2="61.0881" y2="55.9007" gradientUnits="userSpaceOnUse">
<stop stop-color="#0E3BAE" stop-opacity="0.8"/>
<stop offset="1" stop-color="white" stop-opacity="0"/>
</linearGradient>
</defs>
</svg>
