<svg width="146" height="106" viewBox="0 0 146 106" fill="none" xmlns="http://www.w3.org/2000/svg">
<path d="M52.1845 92.5312C51.9653 94.2029 51.8595 95.8888 51.8633 97.5746C51.8667 98.9223 51.9426 100.27 52.0862 101.61C51.0559 101.509 50.0321 101.346 49.0215 101.122C48.4935 101.005 47.9454 100.871 47.4193 100.995C47.1547 101.057 46.9046 101.187 46.7247 101.389C46.5433 101.59 46.4412 101.868 46.479 102.135C46.5168 102.341 46.6151 102.53 46.7549 102.684C46.8947 102.838 47.0649 102.961 47.238 103.075C48.0918 103.635 49.0963 104.013 50.1156 103.962C50.5884 103.939 51.0636 103.819 51.4631 103.565C51.8629 103.311 52.1815 102.915 52.2899 102.454C52.3277 102.3 52.3391 102.141 52.3278 101.984" fill="#131313"/>
<path d="M50.6663 90.042C49.6092 90.9052 49.7438 95.7011 49.8492 97.5812C49.887 98.1328 50.1591 99.2929 50.1818 99.845C49.0392 99.8374 48.0774 99.806 47.3479 99.9852C46.7549 100.131 45.5802 100.529 44.9577 101.018C44.3934 101.462 43.7822 101.894 43.8764 102.852C44.0011 104.138 47.2152 105.471 50.2921 105.544C52.3172 105.736 57.0568 104.114 55.7778 101.607C54.5729 99.4349 53.9118 99.2824 53.8683 97.5665C53.8267 95.9766 53.9061 92.7172 54.2807 91.0987L50.6663 90.042Z" fill="#131313"/>
<path d="M52.9647 89.4675C50.2049 88.5496 47.8918 86.9582 45.4468 84.2954C43.5563 82.2366 42.9201 81.2301 43.1688 80.6914C43.3578 80.2803 43.6012 78.8866 43.7078 77.5943C43.8666 75.6919 43.7532 75.1863 43.116 74.9391C42.0604 74.5291 40.9442 75.5183 41.2258 76.6143C42.0849 79.9548 37.5673 81.5783 32.045 79.9132C26.2877 78.1771 23.6292 74.9984 23.2501 69.3975C23.046 66.3604 23.0648 66.292 24.1492 66.2965C26.037 66.3079 28.6483 64.1216 28.6835 62.5062C28.7213 61.0448 27.392 61.0956 25.6379 62.623C24.2259 63.8528 23.6911 64.0501 22.3694 63.8302C17.5891 63.0344 13.0294 55.7484 13.7309 50.0262C14.3254 45.1778 18.0758 40.3338 22.4128 38.8142C24.4946 38.0848 24.6749 37.9086 24.4145 36.8615C22.7008 29.9759 23.8744 24.4385 27.886 20.4803C30.4002 17.9995 33.491 16.5976 37.051 16.3233C39.9219 16.1018 39.9268 16.1037 39.9215 17.3354C39.9215 18.8312 41.8505 20.9426 42.8725 20.5551C43.6715 20.2524 43.848 18.754 43.1371 18.3104C42.3563 17.8235 42.6197 16.7397 44.4611 12.8644C46.5531 8.46077 48.7808 6.25577 53.2572 4.15726C55.9709 2.88496 56.7427 2.73267 60.2183 2.78377C63.0628 2.82572 64.8301 3.11751 66.7055 3.85486C70.2424 5.24535 70.9866 6.17585 70.8252 9.00396C70.7534 10.2543 70.826 11.6956 70.9877 12.2068C71.3661 13.4163 73.7657 13.4186 73.384 12.237C72.7925 10.4053 73.2479 10.6368 74.4623 11.7815C76.3653 13.5741 80.9562 11.5528 80.2702 9.74362C79.9641 8.93401 78.9773 8.9184 77.1155 9.69374C76.2061 10.0724 73.8133 7.95561 74.1175 7.04153C74.435 6.08391 77.146 4.52561 80.2827 3.49603C89.8577 0.353016 99.7757 6.04991 102.76 16.4072C102.888 16.8598 103.326 16.9215 104.432 16.6438C109.161 15.4578 114.293 17.2691 118.098 21.4663C122.462 26.2814 123.811 35.2759 120.582 38.0385C119.199 39.2218 119.036 40.727 120.257 41.0512C120.763 41.1854 121.455 42.178 121.939 43.4622C122.644 45.3317 122.683 45.9387 122.204 47.6942C121.582 49.9818 121.761 50.5986 123.048 50.6039C125.143 50.6153 125.726 45.4905 124.063 41.6891C123.528 40.4661 123.205 39.281 123.346 39.0554C124.095 37.8537 129.494 42.9216 130.922 46.1684C132.377 49.474 132.38 54.2221 130.922 56.9475C129.641 59.353 127.312 62.0188 125.578 63.0633C124.318 63.8231 124.228 63.8185 123.367 62.9503C122.764 62.3422 121.988 62.0904 121.001 62.1817C119.782 62.2947 119.532 62.5121 119.529 63.4614C119.529 64.2414 119.816 64.6605 120.443 64.7794C121.896 65.0554 122.415 65.701 122.733 67.6298C123.15 70.1618 121.932 73.9106 119.944 76.2136C117.848 78.6426 113.345 80.9201 110.66 80.9091C108.811 80.8978 105.434 79.6983 105.437 79.048C105.437 78.8889 106.154 78.4204 107.03 78.0072C108.979 77.0874 110.152 74.9785 109.973 72.7147C109.856 71.2483 109.682 71.0164 108.689 71.0123C107.71 71.0123 107.531 71.2278 107.487 72.487C107.427 74.2066 106.738 75.1614 104.865 76.1198C103.661 76.7362 103.44 76.7322 102.726 76.0809C101.706 75.1499 100.443 75.1442 100.083 76.0696C99.9057 76.5311 100.439 77.4467 101.568 78.6128L103.333 80.4348L102.458 82.0431C101.242 84.2785 97.5132 87.6258 94.9178 88.8116C93.1679 89.6112 91.893 89.8012 88.3751 89.7868C83.0149 89.7641 81.0919 88.9842 77.0081 85.1724C74.1799 82.5322 74.1686 82.5117 74.8512 81.2052C75.7961 79.3957 75.7692 76.3497 74.8058 75.975C73.7229 75.5544 72.7921 76.522 72.7857 78.0743C72.7857 79.9619 71.6555 81.9045 68.9071 84.7867C65.4658 88.396 62.8493 89.5842 58.0198 89.7314C55.8696 89.7975 53.5932 89.6784 52.9616 89.4687L52.9647 89.4675ZM76.6097 40.3011C78.7266 39.2323 79.2293 38.5812 78.5033 37.8495C78.1011 37.4437 77.5373 37.5626 76.1736 38.3399C73.8862 39.644 70.9836 39.663 68.6305 38.3898C66.6288 37.3061 65.4012 37.7578 66.5513 39.1547C68.2914 41.2692 73.5147 41.8645 76.6097 40.3013V40.3011ZM106.779 34.8959C109.082 34.0309 107.841 33.2932 104.058 33.2777C100.615 33.2626 100.45 33.2116 99.158 31.7557C97.3635 29.732 97.4198 28.8811 99.347 28.889C101.135 28.9004 102.723 27.9121 102.229 27.1039C102.006 26.7376 101.388 26.6549 100.434 26.8631C96.9792 27.6173 93.6395 26.4722 92.0196 23.9778C91.2671 22.8187 89.5728 22.4573 89.5686 23.4551C89.5686 24.5344 92.2177 27.2977 94.0689 28.1416C95.5131 28.8 95.9594 29.291 96.1733 30.4565C96.4681 32.0686 98.2864 34.0859 100.101 34.8159C101.617 35.4261 105.249 35.4697 106.777 34.896L106.779 34.8959ZM58.3138 26.1754C59.0384 25.8047 60.2108 24.7806 60.9199 23.8997C61.9781 22.5845 62.5152 22.2992 63.9238 22.3049C66.396 22.3163 69.3424 21.0504 69.347 19.9775C69.347 18.9378 68.2245 18.8596 66.588 19.7862C64.6952 20.858 61.1153 20.6177 58.3679 19.2346C56.6943 18.3922 55.8009 18.1635 55.469 18.4928C54.7407 19.2153 55.4312 19.9586 57.9117 21.12L60.1624 22.1739L58.589 23.5439C56.4022 25.4484 54.2271 25.7676 51.561 24.5752C48.9323 23.3995 48.6356 23.3945 48.6311 24.5261C48.6311 26.8903 54.8465 27.9508 58.3138 26.1756V26.1754Z" fill="#0E3BAE" stroke="#0E3BAE" stroke-width="1.85134" stroke-linecap="round" stroke-linejoin="round"/>
<path d="M108.696 72.0547C109.067 73.2299 108.825 74.5809 108.068 75.5537C107.618 76.133 107.008 76.5716 106.364 76.9234C105.72 77.2752 105.036 77.5468 104.366 77.8475C104.014 78.0059 103.665 78.1722 103.32 78.3468" stroke="#0E1CA4" stroke-width="2.13543" stroke-linecap="round"/>
<path d="M93.7007 92.6865C93.9199 94.3581 94.0258 96.0441 94.022 97.7299C94.0186 99.0776 93.9426 100.425 93.7989 101.765C94.8292 101.664 95.8532 101.502 96.8638 101.277C97.3918 101.16 97.9398 101.026 98.4659 101.15C98.7305 101.212 98.9807 101.342 99.1606 101.544C99.342 101.746 99.4441 102.023 99.4063 102.291C99.3685 102.496 99.2702 102.685 99.1304 102.839C98.9906 102.994 98.8204 103.116 98.6473 103.23C97.7935 103.79 96.789 104.168 95.7697 104.117C95.2969 104.094 94.8217 103.974 94.4222 103.72C94.0224 103.467 93.7037 103.07 93.5952 102.609C93.5574 102.456 93.5461 102.297 93.5574 102.139" fill="#131313"/>
<path d="M95.2193 90.1963C96.2765 91.0595 96.1419 95.8554 96.0364 97.7354C95.9986 98.2871 95.7265 99.4473 95.7038 99.9993C96.8463 99.9917 97.8083 99.9603 98.5377 100.139C99.1307 100.285 100.305 100.683 100.928 101.173C101.492 101.616 102.103 102.049 102.009 103.006C101.884 104.292 98.6704 105.625 95.5935 105.698C93.5684 105.891 88.8289 104.269 90.1079 101.762C91.3128 99.5892 91.9738 99.4367 92.0172 97.7208C92.0588 96.1309 91.9794 92.8715 91.6049 91.253L95.2193 90.1963Z" fill="#131313"/>
<path d="M27.3869 62.6461C26.9534 63.4821 26.2684 64.1857 25.4442 64.6415C24.3495 65.247 23.0295 65.403 21.805 65.147C20.6327 64.9017 19.5623 64.3016 18.5935 63.5975C15.988 61.704 13.9869 58.9784 13.0115 55.9087C11.821 52.1621 12.2039 47.9414 14.0539 44.4727C15.275 42.1831 17.1087 40.2283 19.2992 38.8371C20.477 38.0891 21.7564 37.5012 23.0911 37.0948C22.9464 36.5867 22.819 36.0737 22.7087 35.557C21.9386 31.9504 22.0386 28.1014 23.4034 24.6753C24.7899 21.1946 27.4818 18.2519 30.8256 16.5616C34.1694 14.8714 38.1353 14.4487 41.7602 15.3963M42.474 76.0887C42.8319 77.0939 42.7621 78.2438 42.2851 79.1982C41.8239 80.1207 41.009 80.8379 40.0858 81.2976C38.3476 82.1632 36.3006 82.1438 34.3798 81.8599C32.0694 81.5186 29.8006 80.8157 27.7664 79.6684C25.9919 78.6676 24.3796 77.3 23.3685 75.5313C22.3123 73.6836 21.9698 71.5161 21.8292 69.3924C21.7358 67.9796 21.7229 66.5613 21.7914 65.147M74.1971 77.1166C74.3264 77.6714 74.3571 78.2489 74.2879 78.8143C74.1178 80.2042 73.363 81.4482 72.564 82.5981C71.5504 84.0568 70.4319 85.4491 69.1432 86.6714C67.6503 88.0875 65.9269 89.2716 64.0325 90.0748C61.7278 91.0521 59.1951 91.4524 56.6937 91.3541C54.338 91.2615 51.9881 90.7265 49.8759 89.6792C47.2149 88.3599 44.9986 86.2676 43.1623 83.9332C42.3651 82.9198 41.632 81.8561 40.9687 80.7504M101.281 76.6156C101.985 77.1638 102.665 77.7416 103.32 78.3469C103.591 78.5971 103.859 78.854 104.077 79.1514C104.295 79.4489 104.463 79.7915 104.509 80.1574C104.565 80.5983 104.442 81.0421 104.286 81.4582C103.687 83.0567 102.598 84.4234 101.424 85.662C100.125 87.0321 98.6893 88.2908 97.0512 89.2291C94.9619 90.4259 92.5859 91.0733 90.1895 91.3079C87.0721 91.6133 83.8446 91.2161 81.0249 89.8517C79.0392 88.891 77.3035 87.4806 75.709 85.9563C74.6 84.8959 73.5494 83.7743 72.564 82.5981M120.488 63.4448C121.038 63.2864 121.651 63.3586 122.149 63.641C122.702 63.9539 123.09 64.4959 123.368 65.0669C123.792 65.9369 123.996 66.9002 124.085 67.8638C124.316 70.3515 123.784 72.9141 122.525 75.0723C121.249 77.2599 119.277 78.9802 117.1 80.2742C115.151 81.4324 112.964 82.288 110.698 82.3269C108.466 82.365 106.229 81.581 104.509 80.1574M123.039 36.9675C124.253 37.477 125.414 38.1145 126.496 38.8659C127.84 39.7999 129.064 40.9118 130.098 42.1807C131.173 43.4991 132.044 44.9894 132.614 46.592C132.881 47.3446 133.083 48.1203 133.225 48.9062C133.589 50.9039 133.572 52.9794 133.086 54.9508C132.383 57.8018 130.722 60.3517 128.674 62.4562C127.732 63.4242 126.671 64.3292 125.395 64.7733C124.746 64.999 124.054 65.0995 123.368 65.067M121.381 39.1872C121.905 40.0966 122.38 41.0346 122.802 41.9957C123.343 43.2279 123.802 44.5219 123.866 45.866C123.924 47.1069 123.635 48.3624 123.039 49.4524M72.2911 11.9124C71.9517 10.9216 71.8536 9.84899 72.0077 8.81302C72.1952 7.55286 72.7607 6.34796 73.628 5.41472C74.7365 4.22198 76.2649 3.51926 77.7783 2.91832C79.9007 2.07553 82.1019 1.36849 84.377 1.17103C87.8469 0.869879 91.3654 1.78568 94.4143 3.46963C97.3912 5.11387 99.9694 7.50155 101.743 10.403C102.705 11.9765 103.431 13.6946 103.887 15.4816C104.706 15.1563 105.57 14.9433 106.447 14.8506C108.733 14.6091 111.041 15.1885 113.146 16.1109C116.05 17.3838 118.692 19.3547 120.479 21.9741C122.209 24.5089 123.077 27.5415 123.527 30.5768C123.73 31.9484 123.854 33.3451 123.678 34.7204C123.502 36.0958 123.009 37.458 122.097 38.5024C121.642 39.0231 121.089 39.4578 120.476 39.7768M42.4823 19.3464C42.1308 19.1467 41.8315 18.856 41.6215 18.5105C41.4114 18.1651 41.2912 17.7655 41.2757 17.3615C41.2606 16.9538 41.3494 16.548 41.4836 16.1626C41.6174 15.7773 41.7957 15.4093 41.9653 15.0381C42.7364 13.3489 43.3332 11.5741 44.2689 9.97013C46.074 6.87567 49.05 4.59823 52.2751 3.03851C53.922 2.24204 55.6615 1.60936 57.47 1.33384C60.7558 0.833246 64.1217 1.53286 67.247 2.66411C68.2227 3.0173 69.1895 3.41586 70.062 3.97753C70.9346 4.53921 71.7142 5.27422 72.2094 6.18613C72.7418 7.16639 72.9299 8.31437 73.5311 9.25394C73.8758 9.79278 74.3518 10.2478 74.908 10.5639C75.4642 10.8799 76.1 11.056 76.7396 11.066C77.5775 11.0793 78.4171 10.8031 79.0836 10.2951" stroke="#0F1FB4" stroke-width="2.13543" stroke-linecap="round"/>
<path d="M49.373 24.6049C50.6475 25.5941 52.2329 26.1766 53.8446 26.2477C55.4495 26.3185 57.073 25.882 58.426 25.0162C59.779 24.1503 60.8554 22.8589 61.4634 21.3721" stroke="#0F1EB3" stroke-width="1.37953" stroke-linecap="round"/>
<path d="M56.0557 19.0352C57.2568 19.9316 58.6206 20.6092 60.0605 21.0252C61.3888 21.4089 62.7863 21.5699 64.1632 21.4434C65.7404 21.2984 67.2813 20.773 68.6185 19.9242" stroke="#0F1EB3" stroke-width="1.37953" stroke-linecap="round"/>
<path d="M90.5981 23.6133C91.553 25.4267 93.1779 26.8776 95.0875 27.6219C97.1118 28.4109 99.4377 28.3945 101.451 27.5769" stroke="#0F1EB3" stroke-width="1.37953" stroke-linecap="round"/>
<path d="M96.7586 28.126C96.6263 29.4357 96.9808 30.7891 97.7379 31.866C98.7494 33.3046 100.426 34.1953 102.163 34.4746C103.739 34.7281 105.389 34.5075 106.844 33.8486" stroke="#0F1EB3" stroke-width="1.37953" stroke-linecap="round"/>
<path d="M67.1094 38.5388C68.5041 39.7267 70.3133 40.418 72.1447 40.4627C74.2309 40.5136 76.3256 39.7167 77.8504 38.292" stroke="#0F1EB3" stroke-width="1.37953" stroke-linecap="round"/>
<path d="M55.1085 37.5056C57.1544 38.1113 58.8768 39.5033 59.8982 41.3766C60.9197 43.2498 61.1571 45.4516 60.5582 47.4995C59.9594 49.5474 58.5732 51.2744 56.7034 52.3022C54.8336 53.33 52.6327 53.5748 50.5827 52.9828C48.5328 52.3909 46.8012 51.0106 45.7671 49.1442C44.733 47.2779 44.4808 45.0778 45.0658 43.0259C45.6508 40.974 47.0253 39.2377 48.8881 38.1973C50.751 37.1569 52.9502 36.8973 55.004 37.4754" fill="#131313"/>
<path opacity="0.96" d="M50.9831 39.6559C51.6797 39.8622 52.2663 40.3362 52.6141 40.974C52.9619 41.6118 53.0427 42.3615 52.8388 43.0588C52.6349 43.7561 52.1628 44.3441 51.5262 44.6941C50.8895 45.044 50.1402 45.1274 49.4422 44.9258C48.7442 44.7243 48.1546 44.2543 47.8025 43.6188C47.4504 42.9833 47.3645 42.2342 47.5637 41.5356C47.7629 40.8369 48.2308 40.2457 48.8651 39.8915C49.4994 39.5372 50.2483 39.4488 50.9476 39.6456" fill="white"/>
<path opacity="0.96" d="M56.1654 47.2411C56.5923 47.3675 56.9518 47.658 57.165 48.049C57.3782 48.44 57.4277 48.8995 57.3028 49.3269C57.1778 49.7543 56.8885 50.1147 56.4982 50.3292C56.108 50.5437 55.6487 50.5948 55.2208 50.4713C54.793 50.3477 54.4316 50.0597 54.2157 49.6702C53.9999 49.2806 53.9473 48.8215 54.0694 48.3932C54.1915 47.965 54.4783 47.6026 54.8671 47.3855C55.2559 47.1683 55.7149 47.1142 56.1436 47.2348" fill="white"/>
<path d="M73.1172 60.0445C72.4369 60.0709 71.7411 59.964 71.0869 59.6904C70.4307 59.4156 69.8392 58.9785 69.389 58.3911C68.7987 57.6203 68.5152 56.6647 68.5919 55.6968C68.6373 55.1102 69.1494 54.6711 69.736 54.7149C70.3226 54.7607 70.888 55.3178 70.8442 55.9046C70.882 56.8911 71.173 57.2115 71.9161 57.5628C72.2524 57.7034 72.6387 57.7635 73.0306 57.7473C73.4048 57.7322 73.7763 57.6615 74.0715 57.4888C74.8194 57.0508 74.9658 56.6569 75.0962 55.9253C75.0395 55.3382 75.4704 54.8159 76.0558 54.759C76.6454 54.7019 77.1689 55.1358 77.2221 55.726C77.3053 56.6083 77.0786 57.488 76.58 58.2211C76.1809 58.8091 75.6381 59.2605 75.0296 59.5646C74.4238 59.8673 73.7639 60.0175 73.1179 60.0445L73.1172 60.0445Z" fill="#131313"/>
<path d="M47.393 54.6547C48.9953 54.8516 50.3442 55.304 51.1442 55.9128C51.9442 56.5216 52.13 57.2372 51.661 57.9028C51.192 58.5683 50.1065 59.1296 48.6421 59.4637C47.1777 59.7977 45.4539 59.8773 43.8485 59.6849C42.243 59.4925 40.8868 59.0439 40.0769 58.4373C39.267 57.8308 39.0695 57.1157 39.5276 56.4488C39.9858 55.782 41.0623 55.2176 42.5212 54.8795C43.9802 54.5414 45.7026 54.457 47.3111 54.6449" fill="#0F1FB4"/>
<path d="M47.393 54.6547C48.9953 54.8516 50.3442 55.304 51.1442 55.9128C51.9442 56.5216 52.13 57.2372 51.661 57.9028C51.192 58.5683 50.1065 59.1296 48.6421 59.4637C47.1777 59.7977 45.4539 59.8773 43.8485 59.6849C42.243 59.4925 40.8868 59.0439 40.0769 58.4373C39.267 57.8308 39.0695 57.1157 39.5276 56.4488C39.9858 55.782 41.0623 55.2176 42.5212 54.8795C43.9802 54.5414 45.7026 54.457 47.3111 54.6449" stroke="#0E1CA9" stroke-width="0.888189" stroke-linecap="round" stroke-linejoin="round"/>
<path d="M102.283 54.769C103.885 54.9658 105.234 55.4182 106.034 56.0271C106.834 56.6359 107.02 57.3514 106.551 58.017C106.082 58.6826 104.996 59.2439 103.532 59.5779C102.067 59.912 100.344 59.9915 98.7381 59.7991C97.1327 59.6068 95.7764 59.1582 94.9665 58.5516C94.1567 57.945 93.9591 57.23 94.4173 56.5631C94.8755 55.8962 95.9519 55.3319 97.4109 54.9938C98.8698 54.6556 100.592 54.5713 102.201 54.7592" fill="#0F1FB4"/>
<path d="M102.283 54.769C103.885 54.9658 105.234 55.4182 106.034 56.0271C106.834 56.6359 107.02 57.3514 106.551 58.017C106.082 58.6826 104.996 59.2439 103.532 59.5779C102.067 59.912 100.344 59.9915 98.7381 59.7991C97.1327 59.6068 95.7764 59.1582 94.9665 58.5516C94.1567 57.945 93.9591 57.23 94.4173 56.5631C94.8755 55.8962 95.9519 55.3319 97.4109 54.9938C98.8698 54.6556 100.592 54.5713 102.201 54.7592" stroke="#0E1CA9" stroke-width="0.888189" stroke-linecap="round" stroke-linejoin="round"/>
<path d="M95.4665 37.616C97.5123 38.2217 99.2347 39.6137 100.256 41.4869C101.278 43.3602 101.515 45.5619 100.916 47.6098C100.317 49.6577 98.9312 51.3848 97.0614 52.4126C95.1916 53.4404 92.9906 53.6851 90.9407 53.0932C88.8908 52.5013 87.1591 51.1209 86.125 49.2546C85.0909 47.3883 84.8387 45.1882 85.4237 43.1363C86.0087 41.0844 87.3832 39.348 89.2461 38.3077C91.1089 37.2673 93.3081 37.0077 95.362 37.5858" fill="#131313"/>
<path opacity="0.96" d="M91.341 39.7663C92.0377 39.9725 92.6241 40.4465 92.9719 41.0843C93.3197 41.7221 93.4006 42.4718 93.1967 43.1691C92.9928 43.8664 92.5207 44.4545 91.8841 44.8044C91.2474 45.1544 90.4981 45.2377 89.8001 45.0362C89.1021 44.8346 88.5125 44.3646 88.1604 43.7292C87.8083 43.0937 87.7224 42.3446 87.9216 41.6459C88.1208 40.9473 88.5888 40.3561 89.223 40.0018C89.8573 39.6476 90.6062 39.5592 91.3055 39.756" fill="white"/>
<path opacity="0.96" d="M96.5233 47.3515C96.9503 47.4779 97.3098 47.7684 97.5229 48.1593C97.7361 48.5503 97.7856 49.0098 97.6607 49.4372C97.5357 49.8646 97.2464 50.2251 96.8561 50.4396C96.4659 50.6541 96.0066 50.7052 95.5787 50.5816C95.1509 50.4581 94.7895 50.17 94.5736 49.7805C94.3578 49.391 94.3052 48.9318 94.4273 48.5036C94.5494 48.0753 94.8362 47.7129 95.225 47.4958C95.6138 47.2787 96.0728 47.2245 96.5015 47.3452" fill="white"/>
<path d="M28.9987 57.457C25.6969 57.1411 22.4416 56.3382 19.3718 55.0821C15.9018 53.6624 12.6378 51.6365 10.0983 48.8781C7.36724 45.9117 5.53564 42.1276 4.90332 38.1453" stroke="#131313" stroke-width="2.51339" stroke-linecap="round"/>
<path d="M10.8766 38.8633C11.4965 38.6798 12.0186 38.258 12.3281 37.6905C12.6376 37.1229 12.7098 36.4558 12.5283 35.8353C12.3469 35.2148 11.9267 34.6916 11.3602 34.3802C10.7936 34.0688 10.1265 33.9948 9.50545 34.1742C8.88442 34.3535 8.35987 34.7716 8.04661 35.337C7.73334 35.9025 7.65713 36.5692 7.83438 37.1908C8.01162 37.8124 8.42808 38.3384 8.99241 38.6536C9.55674 38.9688 10.223 39.0476 10.8453 38.8725M6.53055 39.2084C7.73294 38.8523 8.7455 38.0341 9.34582 36.9331C9.94614 35.8322 10.0853 34.5383 9.73337 33.3347C9.38141 32.1311 8.56697 31.1161 7.46805 30.5121C6.36913 29.908 5.07509 29.764 3.8703 30.1118C2.66551 30.4597 1.64803 31.271 1.04027 32.3679C0.432506 33.4648 0.283973 34.7578 0.627806 35.9638C0.971643 37.1697 1.77987 38.1902 2.87467 38.8017C3.96947 39.4132 5.26163 39.5659 6.46873 39.2261" fill="#131313"/>
<path d="M116.707 56.7998C120.009 56.4838 123.264 55.6809 126.333 54.4249C129.803 53.0051 133.068 50.979 135.607 48.2207C138.339 45.2542 140.17 41.4704 140.802 37.4881" stroke="#131313" stroke-width="2.51339" stroke-linecap="round"/>
<path d="M134.829 38.2061C134.209 38.0226 133.687 37.6008 133.377 37.0333C133.068 36.4657 132.996 35.7986 133.177 35.1781C133.359 34.5576 133.779 34.0343 134.345 33.7229C134.912 33.4115 135.579 33.3373 136.2 33.5167C136.821 33.6961 137.345 34.1144 137.659 34.6798C137.972 35.2453 138.048 35.9117 137.871 36.5334C137.694 37.155 137.278 37.6812 136.713 37.9964C136.149 38.3116 135.483 38.3901 134.86 38.215M139.175 38.5512C137.972 38.1951 136.96 37.3769 136.359 36.2759C135.759 35.1749 135.62 33.8808 135.972 32.6772C136.324 31.4737 137.138 30.4587 138.237 29.8546C139.336 29.2505 140.63 29.1067 141.834 29.4546C143.039 29.8025 144.057 30.6138 144.665 31.7107C145.273 32.8076 145.421 34.1006 145.077 35.3066C144.733 36.5125 143.925 37.533 142.831 38.1445C141.736 38.7559 140.443 38.9086 139.236 38.5689" fill="#131313"/>
<g style="mix-blend-mode:color-dodge" opacity="0.9">
<path d="M47.6497 23.949C48.1739 25.4237 47.9653 27.3978 47.0695 29.4386C46.1737 31.4794 44.6637 33.4205 42.8706 34.8368C41.0774 36.253 39.1471 37.0288 37.5026 36.9942C35.8582 36.9596 34.6338 36.1176 34.0975 34.6524C33.5613 33.1872 33.7569 31.2184 34.6416 29.1773C35.5264 27.1363 37.028 25.1895 38.8176 23.7634C40.6071 22.3373 42.5387 21.5482 44.1891 21.569C45.8395 21.5898 47.074 22.4188 47.6224 23.8743" fill="white"/>
</g>
<g style="mix-blend-mode:color-dodge" opacity="0.9">
<path d="M34.8206 36.7485C35.4632 37.2114 35.88 38.0216 35.98 39.0018C36.0799 39.9819 35.8547 41.0521 35.3538 41.9777C34.8528 42.9033 34.1168 43.609 33.3072 43.9401C32.4976 44.2712 31.6802 44.2007 31.0343 43.7441C30.3884 43.2875 29.9665 42.482 29.8611 41.5041C29.7557 40.5262 29.9754 39.4556 30.4721 38.5269C30.9687 37.5982 31.7018 36.8871 32.5107 36.5494C33.3196 36.2117 34.1384 36.2749 34.7877 36.7253" fill="white"/>
</g>
<path d="M42.5801 66.3555C43.2865 68.4322 44.8507 70.2025 46.8245 71.1593C48.9488 72.1889 51.5326 72.2508 53.6786 71.2674C55.2703 70.5381 56.6015 69.2545 57.3883 67.6905" stroke="#0F1EB3" stroke-width="1.37953" stroke-linecap="round"/>
<path d="M78.6782 73.4965C80.373 75.1944 82.7412 76.2013 85.1397 76.2438C88.0133 76.2948 90.8649 74.9479 92.707 72.742C93.7993 71.4338 94.559 69.7909 94.5571 68.0865C94.5564 67.4419 94.4477 66.7974 94.236 66.1885" stroke="#0F1EB3" stroke-width="1.37953" stroke-linecap="round"/>
<path d="M93.3115 71.9422C94.2436 72.9452 95.5564 73.5849 96.9208 73.7007C98.3196 73.8193 99.7616 73.3828 100.847 72.4921C101.658 71.8268 102.262 70.9269 102.641 69.949C103.059 68.8714 103.212 67.6919 103.081 66.5435" stroke="#0F1EB3" stroke-width="1.37953" stroke-linecap="round"/>
<path d="M42.5801 66.355C43.2865 68.4317 44.8502 70.2019 46.8242 71.1587C48.9483 72.1884 51.5323 72.2501 53.6783 71.2667C55.2698 70.5374 56.6013 69.254 57.3881 67.6899" stroke="#0F1EB3" stroke-width="1.37953" stroke-linecap="round"/>
<path d="M97.3083 30.1625C101.08 31.2793 104.256 33.8458 106.139 37.2996C108.023 40.7534 108.46 44.813 107.356 48.5888C106.252 52.3647 103.696 55.5489 100.249 57.4439C96.8014 59.3389 92.7434 59.7902 88.9639 58.6988C85.1843 57.6074 81.9915 55.0624 80.0849 51.6214C78.1782 48.1803 77.7133 44.1239 78.7919 40.3407C79.8705 36.5575 82.4047 33.356 85.8393 31.4378C89.2739 29.5196 93.3288 29.041 97.1156 30.1068" fill="url(#paint0_linear_101_1369)"/>
<path d="M97.3083 30.1625C101.08 31.2793 104.256 33.8458 106.139 37.2996C108.023 40.7534 108.46 44.813 107.356 48.5888C106.252 52.3647 103.696 55.5489 100.249 57.4439C96.8014 59.3389 92.7434 59.7902 88.9639 58.6988C85.1843 57.6074 81.9915 55.0624 80.0849 51.6214C78.1782 48.1803 77.7133 44.1239 78.7919 40.3407C79.8705 36.5575 82.4047 33.356 85.8393 31.4378C89.2739 29.5196 93.3288 29.041 97.1156 30.1068" stroke="black" stroke-width="0.944882" stroke-linecap="round" stroke-linejoin="round"/>
<path d="M56.9509 30.0512C60.723 31.168 63.8986 33.7345 65.7819 37.1883C67.6653 40.6421 68.1029 44.7017 66.9988 48.4775C65.8947 52.2533 63.3389 55.4376 59.8914 57.3326C56.444 59.2276 52.386 59.6788 48.6065 58.5875C44.8269 57.4961 41.6341 54.9511 39.7274 51.5101C37.8208 48.069 37.3558 44.0125 38.4345 40.2293C39.5131 36.4461 42.0473 33.2447 45.4818 31.3265C48.9164 29.4083 52.9714 28.9296 56.7583 29.9955" fill="url(#paint1_linear_101_1369)"/>
<path d="M56.9509 30.0512C60.723 31.168 63.8986 33.7345 65.7819 37.1883C67.6653 40.6421 68.1029 44.7017 66.9988 48.4775C65.8947 52.2533 63.3389 55.4376 59.8914 57.3326C56.444 59.2276 52.386 59.6788 48.6065 58.5875C44.8269 57.4961 41.6341 54.9511 39.7274 51.5101C37.8208 48.069 37.3558 44.0125 38.4345 40.2293C39.5131 36.4461 42.0473 33.2447 45.4818 31.3265C48.9164 29.4083 52.9714 28.9296 56.7583 29.9955" stroke="black" stroke-width="0.944882" stroke-linecap="round" stroke-linejoin="round"/>
<path d="M67.5962 44.3056C68.81 43.4412 70.2409 42.8842 71.7197 42.7005C73.9993 42.4172 76.3793 43.0453 78.2223 44.4166" stroke="black" stroke-width="0.999999"/>
<defs>
<linearGradient id="paint0_linear_101_1369" x1="79.0644" y1="25.735" x2="101.122" y2="55.0303" gradientUnits="userSpaceOnUse">
<stop stop-color="#0E3BAE" stop-opacity="0.8"/>
<stop offset="1" stop-color="white" stop-opacity="0"/>
</linearGradient>
<linearGradient id="paint1_linear_101_1369" x1="41.7475" y1="30.3493" x2="60.8239" y2="55.2639" gradientUnits="userSpaceOnUse">
<stop stop-color="#0E3BAE" stop-opacity="0.8"/>
<stop offset="1" stop-color="white" stop-opacity="0"/>
</linearGradient>
</defs>
</svg>
