<svg width="151" height="118" viewBox="0 0 151 118" fill="none" xmlns="http://www.w3.org/2000/svg">
<path d="M55.1022 104.168C54.883 105.84 54.7773 107.525 54.7811 109.211C54.7845 110.559 54.8603 111.906 55.0039 113.246C53.9736 113.146 52.9497 112.983 51.9391 112.759C51.4111 112.641 50.8633 112.507 50.3372 112.632C50.0726 112.694 49.8223 112.823 49.6424 113.025C49.461 113.227 49.3587 113.504 49.3965 113.772C49.4343 113.978 49.5325 114.167 49.6724 114.321C49.8122 114.475 49.9823 114.598 50.1554 114.712C51.0092 115.271 52.0141 115.65 53.0334 115.598C53.5063 115.576 53.9811 115.455 54.3806 115.202C54.7805 114.948 55.0994 114.552 55.2079 114.091C55.2457 113.937 55.257 113.778 55.2457 113.621" fill="#131313"/>
<path d="M53.5838 101.678C52.5267 102.541 52.6608 107.337 52.7662 109.217C52.804 109.769 53.0762 110.929 53.0989 111.481C51.9563 111.474 50.9946 111.442 50.2652 111.621C49.6722 111.767 48.4973 112.165 47.8748 112.654C47.3105 113.098 46.6997 113.531 46.7938 114.488C46.9186 115.774 50.1327 117.107 53.2096 117.18C55.2347 117.373 59.9738 115.75 58.6948 113.244C57.4899 111.071 56.8292 110.919 56.7857 109.203C56.7441 107.613 56.8236 104.354 57.1982 102.735L53.5838 101.678Z" fill="#131313"/>
<path d="M55.8822 101.104C53.1224 100.186 50.8097 98.5944 48.3647 95.9316C46.4742 93.8728 45.8378 92.8664 46.0865 92.3277C46.2754 91.9166 46.5192 90.5228 46.6258 89.2305C46.7845 87.3282 46.6711 86.8227 46.0339 86.5756C44.9782 86.1656 43.8621 87.1546 44.1436 88.2506C45.0027 91.5911 40.4851 93.2147 34.9629 91.5496C29.2055 89.8136 26.5469 86.6348 26.1678 81.0338C25.9637 77.9968 25.9827 77.9285 27.067 77.933C28.9549 77.9443 31.5662 75.758 31.6013 74.1426C31.6391 72.6812 30.3099 72.732 28.5559 74.2593C27.1438 75.4892 26.6088 75.6865 25.2871 75.4665C20.5067 74.6707 15.9474 67.3847 16.6489 61.6626C17.2434 56.8141 20.9934 51.97 25.3304 50.4504C27.4122 49.721 27.5927 49.5449 27.3323 48.4977C25.6187 41.6122 26.7921 36.0747 30.8036 32.1166C33.3178 29.6358 36.4088 28.234 39.9687 27.9597C42.8397 27.7382 42.8446 27.74 42.8394 28.9717C42.8394 30.4675 44.7683 32.579 45.7903 32.1916C46.5893 31.8888 46.766 30.3903 46.0551 29.9468C45.2742 29.4598 45.5374 28.3762 47.3788 24.5008C49.4707 20.0972 51.6983 17.8921 56.1747 15.7936C58.8884 14.5213 59.6602 14.369 63.1359 14.4201C65.9803 14.4621 67.7482 14.7538 69.6236 15.4912C73.1605 16.8817 73.9041 17.8122 73.7427 20.6403C73.6709 21.8906 73.7434 23.3319 73.9051 23.8431C74.2834 25.0526 76.6832 25.0549 76.3015 23.8733C75.71 22.0416 76.1658 22.273 77.3801 23.4177C79.2831 25.2103 83.8738 23.1891 83.1878 21.3799C82.8817 20.5702 81.8948 20.5547 80.033 21.33C79.1237 21.7087 76.7308 19.5919 77.035 18.6779C77.3525 17.7202 80.0641 16.1618 83.2008 15.1322C92.7758 11.9892 102.694 17.6863 105.678 28.0436C105.806 28.4962 106.243 28.5578 107.35 28.2801C112.078 27.0941 117.211 28.9056 121.015 33.1028C125.38 37.9179 126.729 46.9123 123.5 49.6749C122.117 50.8582 121.953 52.3634 123.175 52.6876C123.68 52.8218 124.372 53.8143 124.857 55.0985C125.562 56.9681 125.6 57.5751 125.122 59.3306C124.5 61.6182 124.679 62.2349 125.966 62.2402C128.061 62.2516 128.644 57.1269 126.981 53.3254C126.446 52.1024 126.123 50.9173 126.264 50.6917C127.013 49.49 132.412 54.5581 133.841 57.8049C135.296 61.1104 135.298 65.8584 133.841 68.5838C132.559 70.9893 130.229 73.6552 128.496 74.6997C127.235 75.4595 127.146 75.4549 126.285 74.5867C125.682 73.9786 124.906 73.7266 123.919 73.818C122.7 73.931 122.45 74.1485 122.447 75.0979C122.447 75.8779 122.734 76.2968 123.361 76.4158C124.815 76.6917 125.332 77.3373 125.65 79.2661C126.067 81.7981 124.849 85.547 122.862 87.8501C120.766 90.279 116.262 92.5564 113.578 92.5454C111.729 92.5341 108.352 91.3345 108.355 90.6843C108.355 90.5252 109.072 90.0568 109.947 89.6437C111.897 88.7238 113.069 86.6148 112.891 84.3511C112.774 82.8846 112.6 82.6527 111.606 82.6486C110.628 82.6486 110.449 82.8641 110.405 84.1234C110.344 85.843 109.655 86.7977 107.782 87.7562C106.579 88.3726 106.358 88.3685 105.644 87.7172C104.623 86.7862 103.36 86.7806 103.001 87.7059C102.823 88.1675 103.356 89.0832 104.486 90.2492L106.251 92.0711L105.375 93.6795C104.16 95.9148 100.431 99.2623 97.8354 100.448C96.0854 101.248 94.8111 101.437 91.2932 101.423C85.933 101.4 84.0097 100.621 79.926 96.8087C77.0977 94.1685 77.086 94.1479 77.7686 92.8414C78.7135 91.0319 78.6868 87.986 77.7234 87.6113C76.6406 87.1907 75.71 88.1583 75.7035 89.7106C75.7035 91.5982 74.5737 93.5408 71.8253 96.423C68.384 100.032 65.7674 101.221 60.9379 101.368C58.7877 101.434 56.511 101.315 55.8795 101.105L55.8822 101.104ZM79.5273 51.9374C81.6443 50.8686 82.1468 50.2174 81.4208 49.4857C81.0187 49.08 80.4555 49.1989 79.0918 49.9761C76.8044 51.2802 73.9016 51.2993 71.5484 50.026C69.5468 48.9423 68.3194 49.3942 69.4695 50.7912C71.2096 52.9056 76.4323 53.5009 79.5273 51.9377V51.9374ZM109.696 46.5323C111.999 45.6674 110.759 44.9294 106.976 44.914C103.534 44.8989 103.368 44.8479 102.076 43.392C100.282 41.3683 100.337 40.5176 102.264 40.5255C104.052 40.5368 105.641 39.5484 105.146 38.7402C104.923 38.374 104.306 38.2911 103.352 38.4994C99.8972 39.2536 96.5569 38.1086 94.937 35.6142C94.1845 34.4551 92.4904 34.0937 92.4863 35.0915C92.4863 36.1708 95.1352 38.9339 96.9864 39.7778C98.4306 40.4362 98.8773 40.9272 99.0912 42.0928C99.386 43.7048 101.204 45.7222 103.018 46.4522C104.535 47.0624 108.167 47.1059 109.695 46.5323H109.696ZM61.2313 37.8117C61.9559 37.4409 63.1281 36.4169 63.8371 35.536C64.8954 34.2208 65.4329 33.9356 66.8416 33.9413C69.3138 33.9526 72.26 32.6866 72.2645 31.6137C72.2645 30.574 71.142 30.4958 69.5055 31.4225C67.6127 32.4943 64.0331 32.254 61.2858 30.8709C59.6122 30.0285 58.7184 29.7999 58.3865 30.1292C57.6582 30.8517 58.3485 31.5949 60.829 32.7563L63.0805 33.8103L61.5063 35.1803C59.3195 37.0848 57.1448 37.4039 54.4787 36.2115C51.8501 35.0358 51.5531 35.0307 51.5486 36.1623C51.5486 38.5265 57.764 39.5872 61.2313 37.8119V37.8117Z" fill="#0E3BAE" stroke="#0E3BAE" stroke-width="1.85134" stroke-linecap="round" stroke-linejoin="round"/>
<path d="M111.614 83.6914C111.984 84.8666 111.742 86.2176 110.985 87.1904C110.535 87.7697 109.926 88.2082 109.282 88.56C108.638 88.9119 107.954 89.1835 107.284 89.4841C106.933 89.6425 106.582 89.8087 106.238 89.9833" stroke="#0E1CA4" stroke-width="2.13543" stroke-linecap="round"/>
<path d="M96.6185 104.323C96.8377 105.994 96.9434 107.68 96.9396 109.366C96.9362 110.714 96.8604 112.061 96.7168 113.401C97.7471 113.301 98.771 113.138 99.7816 112.913C100.31 112.796 100.857 112.662 101.383 112.786C101.648 112.848 101.898 112.978 102.078 113.18C102.26 113.382 102.362 113.659 102.324 113.927C102.286 114.132 102.188 114.321 102.048 114.476C101.908 114.63 101.738 114.753 101.565 114.866C100.711 115.426 99.7066 115.804 98.6873 115.753C98.2144 115.73 97.7396 115.61 97.3401 115.356C96.9402 115.103 96.6213 114.706 96.5128 114.245C96.475 114.092 96.4637 113.933 96.475 113.776" fill="#131313"/>
<path d="M98.1369 101.833C99.194 102.696 99.0599 107.492 98.9545 109.372C98.9167 109.924 98.6445 111.084 98.6218 111.636C99.7644 111.629 100.726 111.597 101.456 111.776C102.049 111.922 103.223 112.32 103.846 112.809C104.41 113.253 105.021 113.685 104.927 114.643C104.802 115.929 101.588 117.262 98.5111 117.335C96.486 117.527 91.7469 115.905 93.0259 113.398C94.2308 111.226 94.8915 111.073 94.935 109.357C94.9766 107.768 94.8971 104.508 94.5226 102.89L98.1369 101.833Z" fill="#131313"/>
<path d="M30.3044 74.2825C29.8709 75.1185 29.1855 75.8219 28.3616 76.2777C27.267 76.8832 25.9469 77.0394 24.7223 76.7834C23.5499 76.5384 22.4799 75.9379 21.5112 75.2339C18.9056 73.3403 16.9046 70.6146 15.9291 67.5449C14.7386 63.7983 15.1213 59.5777 16.9713 56.109C18.1925 53.8194 20.026 51.8645 22.2166 50.4734C23.3943 49.7253 24.6737 49.1375 26.0086 48.731C25.865 48.2229 25.7365 47.7099 25.6261 47.1933C24.8559 43.5867 24.9562 39.7378 26.321 36.3117C27.7073 32.831 30.3992 29.8881 33.743 28.1978C37.0867 26.5076 41.0525 26.0849 44.6774 27.0324M45.3916 87.7249C45.7507 88.7301 45.6787 89.8801 45.2025 90.8346C44.7414 91.757 43.9265 92.4743 43.0031 92.934C41.2649 93.7995 39.2181 93.7801 37.2974 93.4962C34.987 93.1549 32.7183 92.452 30.6841 91.3047C28.9096 90.3039 27.2969 88.9363 26.2859 87.1676C25.2295 85.3199 24.8874 83.1523 24.7468 81.0286C24.6523 79.6158 24.6409 78.1977 24.7089 76.7834M77.1144 88.7529C77.2429 89.3077 77.2738 89.8853 77.2057 90.4507C77.0356 91.8405 76.2801 93.0845 75.4811 94.2344C74.4675 95.693 73.3494 97.0854 72.0605 98.3078C70.5676 99.7239 68.8447 100.908 66.9504 101.711C64.6457 102.688 62.1123 103.089 59.611 102.99C57.2552 102.898 54.9057 102.363 52.7934 101.315C50.1322 99.9961 47.9165 97.904 46.08 95.5696C45.2829 94.5562 44.5495 93.4925 43.8862 92.3868M104.199 88.2518C104.902 88.8 105.583 89.3778 106.238 89.9831C106.51 90.2333 106.776 90.4903 106.994 90.7877C107.214 91.0852 107.38 91.4278 107.426 91.7937C107.483 92.2346 107.359 92.6784 107.204 93.0946C106.606 94.693 105.516 96.0597 104.342 97.2983C103.043 98.6684 101.607 99.927 99.9687 100.865C97.8794 102.062 95.5035 102.71 93.1072 102.944C89.9899 103.25 86.7621 102.852 83.9426 101.488C81.9569 100.527 80.2213 99.1168 78.6267 97.5924C77.5178 96.5321 76.4665 95.4105 75.4811 94.2344M123.405 75.0811C123.956 74.9228 124.568 74.9949 125.066 75.2772C125.619 75.5902 126.008 76.1321 126.286 76.7031C126.71 77.5731 126.914 78.5365 127.003 79.5001C127.234 81.9878 126.701 84.5504 125.443 86.7085C124.167 88.8961 122.194 90.6164 120.017 91.9105C118.069 93.0687 115.881 93.9242 113.615 93.9631C111.383 94.0013 109.146 93.2173 107.426 91.7937M125.957 48.6039C127.171 49.1134 128.332 49.7508 129.413 50.5022C130.758 51.4362 131.981 52.5481 133.016 53.8169C134.09 55.1353 134.961 56.6257 135.531 58.2283C135.799 58.9809 136 59.7566 136.143 60.5425C136.506 62.5401 136.491 64.6158 136.003 66.5871C135.3 69.4382 133.639 71.9879 131.591 74.0924C130.649 75.0604 129.588 75.9655 128.312 76.4097C127.664 76.6357 126.972 76.7358 126.286 76.7033M124.298 50.8236C124.823 51.7329 125.298 52.6708 125.72 53.6319C126.26 54.8641 126.72 56.1581 126.783 57.5023C126.84 58.7432 126.553 59.9987 125.957 61.0888M75.2089 23.5486C74.8688 22.5578 74.7705 21.4854 74.9247 20.4494C75.1137 19.1892 75.6776 17.9842 76.545 17.051C77.6536 15.8582 79.1822 15.1557 80.6955 14.5547C82.8177 13.7119 85.0191 13.0047 87.294 12.8073C90.764 12.5061 94.2826 13.4219 97.3315 15.1058C100.309 16.7501 102.887 19.1378 104.661 22.0393C105.623 23.6127 106.349 25.331 106.804 27.118C107.624 26.7926 108.488 26.5796 109.365 26.4869C111.65 26.2453 113.959 26.8249 116.063 27.7473C118.967 29.0202 121.61 30.9909 123.397 33.6104C125.126 36.1452 125.994 39.1777 126.444 42.213C126.648 43.5846 126.769 44.9815 126.595 46.3568C126.421 47.7322 125.927 49.0942 125.015 50.1387C124.56 50.6594 124.007 51.0942 123.394 51.4132M45.4004 30.9827C45.0489 30.7827 44.7496 30.4924 44.5395 30.1469C44.3316 29.8014 44.2104 29.4018 44.1953 28.9978C44.1953 28.5902 44.2711 28.1843 44.4034 27.799C44.5357 27.4137 44.7168 27.0455 44.885 26.6744C45.6561 24.9852 46.2528 23.2105 47.1887 21.6065C48.9938 18.512 51.9697 16.2346 55.1948 14.6749C56.8415 13.8784 58.5813 13.2457 60.3898 12.9701C63.6757 12.4696 67.0418 13.1694 70.1671 14.3005C71.143 14.6535 72.1091 15.0521 72.9814 15.6138C73.8541 16.1755 74.6344 16.9104 75.1296 17.8224C75.6621 18.8026 75.8496 19.9506 76.4509 20.8902C76.7949 21.4291 77.2713 21.8842 77.8276 22.2003C78.384 22.5162 79.0198 22.6922 79.6593 22.7022C80.4972 22.7136 81.3367 22.4392 82.003 21.9313" stroke="#0F1FB4" stroke-width="2.13543" stroke-linecap="round"/>
<path d="M76.035 66.3525C75.3547 66.3261 74.6592 66.433 74.005 66.7066C73.3488 66.9814 72.7573 67.4185 72.3071 68.0058C71.7168 68.7767 71.4332 69.7323 71.5099 70.7002C71.5552 71.2868 72.0675 71.7259 72.6541 71.682C73.2407 71.6363 73.8061 71.0792 73.7623 70.4924C73.8001 69.5059 74.0905 69.1856 74.8336 68.8342C75.17 68.6936 75.5563 68.6334 75.9482 68.6497C76.3224 68.6648 76.6939 68.7356 76.9891 68.9083C77.7371 69.3463 77.8839 69.74 78.0142 70.4716C77.9576 71.0587 78.3884 71.5811 78.9739 71.638C79.5635 71.695 80.0869 71.2612 80.1402 70.6709C80.2234 69.7886 79.9965 68.909 79.498 68.1759C79.0989 67.5878 78.5563 67.1364 77.9478 66.8324C77.3419 66.5296 76.6818 66.3795 76.0359 66.3525H76.035Z" fill="#131313"/>
<path d="M50.3109 66.2911C51.9131 66.4879 53.2619 66.9404 54.0618 67.5492C54.8618 68.158 55.0476 68.8735 54.5786 69.5391C54.1096 70.2046 53.0242 70.7659 51.5598 71.0999C50.0955 71.4339 48.3716 71.5135 46.7662 71.3211C45.1607 71.1288 43.8045 70.6804 42.9945 70.0738C42.1846 69.4672 41.9869 68.7522 42.4451 68.0853C42.9032 67.4184 43.9799 66.8539 45.4389 66.5157C46.8978 66.1776 48.6202 66.0932 50.2288 66.2811" fill="#0F1FB4"/>
<path d="M50.3109 66.2911C51.9131 66.4879 53.2619 66.9404 54.0618 67.5492C54.8618 68.158 55.0476 68.8735 54.5786 69.5391C54.1096 70.2046 53.0242 70.7659 51.5598 71.0999C50.0955 71.4339 48.3716 71.5135 46.7662 71.3211C45.1607 71.1288 43.8045 70.6804 42.9945 70.0738C42.1846 69.4672 41.9869 68.7522 42.4451 68.0853C42.9032 67.4184 43.9799 66.8539 45.4389 66.5157C46.8978 66.1776 48.6202 66.0932 50.2288 66.2811" stroke="#0E1CA9" stroke-width="0.888189" stroke-linecap="round" stroke-linejoin="round"/>
<path d="M105.201 66.4053C106.803 66.6022 108.152 67.0546 108.952 67.6635C109.752 68.2723 109.937 68.9878 109.468 69.6533C108.999 70.3189 107.914 70.8803 106.449 71.2144C104.985 71.5484 103.261 71.6278 101.656 71.4354C100.05 71.243 98.6942 70.7944 97.8843 70.1878C97.0745 69.5813 96.8772 68.8662 97.3353 68.1993C97.7935 67.5324 98.8697 66.9681 100.329 66.63C101.788 66.2919 103.51 66.2075 105.119 66.3954" fill="#0F1FB4"/>
<path d="M105.201 66.4053C106.803 66.6022 108.152 67.0546 108.952 67.6635C109.752 68.2723 109.937 68.9878 109.468 69.6533C108.999 70.3189 107.914 70.8803 106.449 71.2144C104.985 71.5484 103.261 71.6278 101.656 71.4354C100.05 71.243 98.6942 70.7944 97.8843 70.1878C97.0745 69.5813 96.8772 68.8662 97.3353 68.1993C97.7935 67.5324 98.8697 66.9681 100.329 66.63C101.788 66.2919 103.51 66.2075 105.119 66.3954" stroke="#0E1CA9" stroke-width="0.888189" stroke-linecap="round" stroke-linejoin="round"/>
<path d="M31.9158 69.8306C28.614 70.1465 25.3586 70.9494 22.2888 72.2055C18.8189 73.6252 15.5548 75.6513 13.0153 78.4097C10.2843 81.3761 8.45312 85.16 7.8208 89.1423" stroke="#131313" stroke-width="2.51339" stroke-linecap="round"/>
<path d="M13.7943 88.4243C14.4142 88.6078 14.9362 89.0296 15.2457 89.5971C15.5553 90.1647 15.6269 90.8318 15.4455 91.4523C15.2641 92.0728 14.8443 92.596 14.2778 92.9074C13.7112 93.2188 13.0442 93.2931 12.4231 93.1137C11.8021 92.9343 11.2775 92.516 10.9642 91.9506C10.651 91.3851 10.5748 90.7187 10.752 90.097C10.9293 89.4754 11.3453 88.9492 11.9096 88.634C12.4739 88.3188 13.1402 88.2403 13.7624 88.4153M9.44819 88.0792C10.6506 88.4353 11.6627 89.2535 12.263 90.3545C12.8633 91.4554 13.003 92.7495 12.651 93.9531C12.299 95.1567 11.4846 96.1717 10.3857 96.7758C9.28677 97.3798 7.99319 97.5236 6.7884 97.1758C5.58361 96.8279 4.56567 96.0166 3.95791 94.9197C3.35015 93.8228 3.20207 92.5298 3.54591 91.3238C3.88974 90.1179 4.6975 89.0974 5.79231 88.4859C6.88711 87.8744 8.17973 87.7217 9.38683 88.0615" fill="#131313"/>
<path d="M119.625 69.8027C122.927 70.1187 126.182 70.9216 129.252 72.1776C132.722 73.5974 135.986 75.6235 138.525 78.3819C141.256 81.3483 143.087 85.1322 143.72 89.1145" stroke="#131313" stroke-width="2.51339" stroke-linecap="round"/>
<path d="M137.746 88.3965C137.126 88.58 136.604 89.0017 136.295 89.5693C135.985 90.1368 135.914 90.804 136.095 91.4244C136.276 92.0449 136.696 92.5682 137.263 92.8796C137.829 93.191 138.496 93.2652 139.117 93.0858C139.738 92.9065 140.263 92.4882 140.576 91.9227C140.89 91.3573 140.966 90.6908 140.789 90.0692C140.611 89.4476 140.195 88.9214 139.631 88.6062C139.067 88.291 138.4 88.2124 137.778 88.3875M142.092 88.0514C140.89 88.4074 139.878 89.2257 139.278 90.3266C138.677 91.4276 138.538 92.7217 138.89 93.9253C139.241 95.1289 140.056 96.1439 141.155 96.7479C142.254 97.352 143.547 97.4958 144.752 97.1479C145.957 96.8 146.975 95.9888 147.583 94.8919C148.19 93.795 148.338 92.5019 147.995 91.296C147.651 90.09 146.843 89.0695 145.748 88.4581C144.653 87.8466 143.361 87.6939 142.154 88.0336" fill="#131313"/>
<g style="mix-blend-mode:color-dodge" opacity="0.9">
<path d="M50.5676 35.5857C51.0919 37.0604 50.8835 39.0346 49.9877 41.0754C49.0919 43.1163 47.5819 45.0573 45.7886 46.4736C43.9954 47.8898 42.0655 48.6659 40.4211 48.6313C38.7766 48.5968 37.552 47.7546 37.0157 46.2894C36.4795 44.8242 36.6748 42.855 37.5596 40.814C38.4443 38.7729 39.9461 36.8262 41.7357 35.4001C43.5253 33.9739 45.4569 33.1851 47.1073 33.2059C48.7576 33.2267 49.9919 34.0554 50.5403 35.511" fill="white"/>
</g>
<g style="mix-blend-mode:color-dodge" opacity="0.9">
<path d="M37.7376 48.3852C38.3802 48.8479 38.7976 49.6582 38.8976 50.6384C38.9975 51.6186 38.7717 52.6886 38.2708 53.6143C37.7698 54.54 37.0338 55.2456 36.2241 55.5767C35.4145 55.9078 34.5971 55.8373 33.9512 55.3807C33.3052 54.9241 32.8841 54.1188 32.7786 53.1409C32.6732 52.163 32.8929 51.0923 33.3895 50.1636C33.8862 49.2348 34.6192 48.5237 35.4282 48.186C36.2371 47.8483 37.0558 47.9116 37.7051 48.362" fill="white"/>
</g>
<path d="M1.96045 28.9909L7.04611 26.7978L7.40505 30.7137L12.4916 28.5519M5.86455 11.6854L11.1163 14.6797L8.61384 17.4835L14.1973 20.7746M15.4163 2.11621L13.5265 5.13264L18.387 6.68122L15.4684 10.0344L20.328 10.9235L19.4002 15.0507" stroke="#101FB4" stroke-opacity="0.949945" stroke-width="2.51339" stroke-linecap="round" stroke-linejoin="round"/>
<path d="M52.3793 50.556C53.5298 50.4657 54.6833 50.8058 55.7011 51.3498C56.719 51.8938 57.6166 52.6347 58.4837 53.3964C60.8784 55.5002 63.0977 57.8039 65.1103 60.2756C64.6171 60.1842 64.1217 60.1044 63.6247 60.0364C62.111 59.8293 60.5816 59.7325 59.0539 59.7582C57.6177 59.7809 56.1736 59.9174 54.7941 60.3179C53.3159 60.7471 51.9273 61.4813 50.7405 62.4614C50.7783 61.0485 51.428 59.6602 52.5029 58.7427C53.588 57.8165 55.002 57.3982 56.3452 56.9173C56.5984 56.8274 56.8463 56.7345 57.0954 56.6389C56.8762 56.1993 56.6255 55.7767 56.342 55.3761C54.8593 53.2802 52.4915 51.8326 49.9502 51.4679C50.6532 50.9448 51.5058 50.6247 52.3793 50.556V50.556Z" fill="black"/>
<path d="M98.4493 50.5781C97.2988 50.4874 96.1452 50.8278 95.1274 51.3718C94.1096 51.9158 93.2115 52.6568 92.3444 53.4185C89.9497 55.5222 87.7309 57.826 85.7183 60.2977C86.2115 60.2062 86.7069 60.1265 87.2039 60.0585C88.7176 59.8514 90.2474 59.7546 91.7751 59.7803C93.2113 59.803 94.6549 59.9395 96.0345 60.3399C97.5126 60.7691 98.9013 61.5036 100.088 62.4837C100.05 61.0708 99.4005 59.6825 98.3256 58.765C97.2405 57.8388 95.8266 57.4202 94.4833 56.9394C94.2301 56.8495 93.9822 56.7566 93.7331 56.661C93.9524 56.2214 94.2026 55.7988 94.4861 55.3982C95.9688 53.3023 98.3375 51.8546 100.879 51.49C100.176 50.9668 99.3227 50.6468 98.4493 50.5781Z" fill="black"/>
<path opacity="0.5" d="M48.3053 59.1406C46.3369 57.0006 43.3627 55.8277 40.4634 56.0478C38.8492 56.1702 37.2123 56.7425 36.1026 57.9212C35.0995 58.9866 34.6084 60.4735 34.5967 61.9369C34.5967 62.7654 34.74 63.6257 35.2223 64.2998C35.6588 64.9104 36.3396 65.3207 37.0645 65.5153C37.9924 65.7644 38.995 65.6759 39.8964 65.3437C40.7786 65.0182 41.5606 64.4736 42.3218 63.9215C44.3892 62.4221 46.3868 60.8261 48.3053 59.1406V59.1406Z" fill="#3A6CEF"/>
<path opacity="0.8001" d="M39.7115 58.3966C40.3591 58.3083 40.9046 58.4698 41.2279 58.8463C41.5512 59.2227 41.6262 59.7832 41.4366 60.4048C41.247 61.0262 40.808 61.6582 40.2162 62.1622C39.6245 62.6661 38.9282 63.001 38.2795 63.0936C37.6307 63.1861 37.0827 63.0286 36.7553 62.6557C36.428 62.2827 36.3482 61.7246 36.5333 61.1037C36.7185 60.4828 37.1533 59.85 37.7429 59.3435C38.3324 58.837 39.0283 58.4983 39.6784 58.4015" fill="white"/>
<path opacity="0.5" d="M103.994 57.094C106.354 55.3965 109.504 54.8495 112.299 55.6515C113.855 56.0979 115.342 56.9895 116.191 58.3683C116.958 59.6146 117.138 61.1701 116.853 62.6056C116.686 63.417 116.371 64.2305 115.763 64.7931C115.212 65.3027 114.462 65.5669 113.713 65.6108C112.753 65.667 111.789 65.3776 110.974 64.8699C110.176 64.3727 109.52 63.6811 108.886 62.9865C107.165 61.0999 105.531 59.1328 103.994 57.094V57.094Z" fill="#3A6CEF"/>
<path opacity="0.8001" d="M112.56 58.1045C111.944 57.887 111.377 57.9348 110.984 58.2381C110.592 58.5414 110.405 59.0751 110.465 59.7222C110.525 60.3691 110.827 61.0769 111.304 61.6901C111.782 62.3033 112.396 62.7722 113.013 62.994C113.629 63.2159 114.198 63.1725 114.594 62.8735C114.99 62.5744 115.181 62.044 115.125 61.3985C115.07 60.753 114.772 60.0454 114.297 59.43C113.822 58.8147 113.209 58.3422 112.592 58.116" fill="white"/>
<path opacity="0.5" d="M104.38 50.7391C104.557 48.5375 105.788 46.4439 107.626 45.2189C108.649 44.5369 109.897 44.1133 111.112 44.2995C112.211 44.4677 113.201 45.1277 113.892 45.9979C114.28 46.4937 114.597 47.0756 114.624 47.7047C114.648 48.2743 114.433 48.8384 114.09 49.2941C113.651 49.8773 113.01 50.2935 112.315 50.5165C111.635 50.7345 110.912 50.7745 110.198 50.8003C108.259 50.8704 106.317 50.8501 104.38 50.7391V50.7391Z" fill="#3A6CEF"/>
<path opacity="0.8001" d="M109.176 46.2729C108.747 46.523 108.496 46.875 108.479 47.2515C108.461 47.6281 108.679 47.9986 109.083 48.2818C109.487 48.565 110.046 48.7378 110.636 48.7625C111.225 48.7872 111.799 48.6618 112.23 48.4136C112.662 48.1654 112.916 47.8147 112.938 47.4384C112.959 47.062 112.746 46.6907 112.344 46.4057C111.943 46.1208 111.387 45.9456 110.797 45.9184C110.207 45.8911 109.632 46.0141 109.198 46.2604" fill="white"/>
<path d="M149.679 28.8745L144.592 26.6816L144.233 30.5974L139.146 28.4357M145.774 11.569L140.522 14.5635L143.025 17.3672L137.441 20.6584M136.222 2L138.112 5.01619L133.251 6.56501L136.17 9.91823L131.311 10.8073L132.239 14.9345" stroke="#0F1FB4" stroke-width="2.51339" stroke-linecap="round" stroke-linejoin="round"/>
<path d="M52.291 36.2406C53.5655 37.2299 55.151 37.8125 56.7626 37.8836C58.3674 37.9542 59.9913 37.5179 61.344 36.6519C62.6971 35.786 63.7726 34.4947 64.3807 33.0078" stroke="#0F1EB3" stroke-width="1.37953" stroke-linecap="round"/>
<path d="M58.9731 30.6709C60.1743 31.5673 61.5378 32.2451 62.9778 32.661C64.3063 33.0447 65.7034 33.2058 67.0803 33.0792C68.6575 32.9341 70.199 32.4089 71.5362 31.5602" stroke="#0F1EB3" stroke-width="1.37953" stroke-linecap="round"/>
<path d="M93.5161 35.2495C94.4708 37.063 96.0958 38.5138 98.0052 39.2581C100.03 40.0471 102.355 40.0307 104.368 39.2131" stroke="#0F1EB3" stroke-width="1.37953" stroke-linecap="round"/>
<path d="M99.6766 39.7617C99.5443 41.0715 99.8993 42.4249 100.656 43.5018C101.667 44.9404 103.344 45.8311 105.08 46.1104C106.657 46.364 108.306 46.1443 109.761 45.4843" stroke="#0F1EB3" stroke-width="1.37953" stroke-linecap="round"/>
<path d="M70.0269 50.1755C71.4215 51.3635 73.2307 52.0548 75.0622 52.0994C77.1485 52.1505 79.2438 51.3534 80.7684 49.9287" stroke="#0F1EB3" stroke-width="1.37953" stroke-linecap="round"/>
<path d="M81.5962 85.1333C83.2909 86.8311 85.6592 87.838 88.0577 87.8805C90.9312 87.9315 93.7829 86.5846 95.625 84.3787C96.7173 83.0705 97.477 81.4274 97.4751 79.723C97.4743 79.0784 97.3656 78.4342 97.154 77.8252" stroke="#0F1EB3" stroke-width="1.37953" stroke-linecap="round"/>
<path d="M96.229 83.5789C97.161 84.5819 98.4739 85.2216 99.8383 85.3374C101.237 85.4561 102.679 85.0195 103.765 84.1288C104.576 83.4635 105.179 82.5636 105.559 81.5858C105.977 80.5081 106.129 79.3286 105.998 78.1802" stroke="#0F1EB3" stroke-width="1.37953" stroke-linecap="round"/>
<path d="M45.4971 77.9912C46.2035 80.0679 47.7676 81.8384 49.7417 82.7952C51.8658 83.8249 54.4497 83.8865 56.5957 82.9032C58.1873 82.1739 59.5187 80.8904 60.3056 79.3264" stroke="#0F1EB3" stroke-width="1.37953" stroke-linecap="round"/>
<path d="M100.227 44.4541C104 45.571 107.175 48.1374 109.058 51.5912C110.941 55.0451 111.379 59.1044 110.275 62.8802C109.171 66.6561 106.615 69.8405 103.167 71.7355C99.7198 73.6305 95.6627 74.0816 91.8831 72.9902C88.1036 71.8988 84.9102 69.3538 83.0036 65.9128C81.097 62.4718 80.6323 58.4153 81.7109 54.6321C82.7895 50.849 85.3233 47.6475 88.7578 45.7293C92.1924 43.8111 96.2478 43.3325 100.035 44.3983" fill="url(#paint0_linear_101_1366)"/>
<path d="M100.227 44.4541C104 45.571 107.175 48.1374 109.058 51.5912C110.941 55.0451 111.379 59.1044 110.275 62.8802C109.171 66.6561 106.615 69.8405 103.167 71.7355C99.7198 73.6305 95.6627 74.0816 91.8831 72.9902C88.1036 71.8988 84.9102 69.3538 83.0036 65.9128C81.097 62.4718 80.6323 58.4153 81.7109 54.6321C82.7895 50.849 85.3233 47.6475 88.7578 45.7293C92.1924 43.8111 96.2478 43.3325 100.035 44.3983" stroke="black" stroke-width="0.944882" stroke-linecap="round" stroke-linejoin="round"/>
<path d="M59.869 44.3431C63.6411 45.4599 66.8163 48.0266 68.6996 51.4805C70.583 54.9343 71.0208 58.9936 69.9167 62.7694C68.8126 66.5453 66.2563 69.7297 62.8089 71.6247C59.3614 73.5197 55.3033 73.971 51.5238 72.8796C47.7443 71.7882 44.5518 69.2431 42.6452 65.802C40.7386 62.361 40.2739 58.3045 41.3525 54.5213C42.4311 50.7381 44.9657 47.5368 48.4003 45.6185C51.835 43.7003 55.8894 43.2216 59.6762 44.2875" fill="url(#paint1_linear_101_1366)"/>
<path d="M59.869 44.3431C63.6411 45.4599 66.8163 48.0266 68.6996 51.4805C70.583 54.9343 71.0208 58.9936 69.9167 62.7694C68.8126 66.5453 66.2563 69.7297 62.8089 71.6247C59.3614 73.5197 55.3033 73.971 51.5238 72.8796C47.7443 71.7882 44.5518 69.2431 42.6452 65.802C40.7386 62.361 40.2739 58.3045 41.3525 54.5213C42.4311 50.7381 44.9657 47.5368 48.4003 45.6185C51.835 43.7003 55.8894 43.2216 59.6762 44.2875" stroke="black" stroke-width="0.944882" stroke-linecap="round" stroke-linejoin="round"/>
<path d="M70.5132 58.597C71.7272 57.7327 73.158 57.1757 74.6369 56.9919C76.9163 56.7088 79.2965 57.3366 81.1394 58.708" stroke="black" stroke-width="0.999999"/>
<defs>
<linearGradient id="paint0_linear_101_1366" x1="81.9831" y1="40.0265" x2="104.041" y2="69.3218" gradientUnits="userSpaceOnUse">
<stop stop-color="#0E3BAE" stop-opacity="0.8"/>
<stop offset="1" stop-color="white" stop-opacity="0"/>
</linearGradient>
<linearGradient id="paint1_linear_101_1366" x1="44.6654" y1="44.6413" x2="63.7419" y2="69.5559" gradientUnits="userSpaceOnUse">
<stop stop-color="#0E3BAE" stop-opacity="0.8"/>
<stop offset="1" stop-color="white" stop-opacity="0"/>
</linearGradient>
</defs>
</svg>
