<?xml version="1.0" encoding="iso-8859-1"?>
<!-- Uploaded to: SVG Repo, www.svgrepo.com, Generator: SVG Repo Mixer Tools -->
<svg fill="#000000" height="800px" width="800px" version="1.1" id="Capa_1" xmlns="http://www.w3.org/2000/svg" xmlns:xlink="http://www.w3.org/1999/xlink" 
	 viewBox="0 0 490.896 490.896" xml:space="preserve">
<g>
	<path d="M85.8,225.348c11.1,0,20.1,9,20.1,20.1c0,11.1-9,20.1-20.1,20.1s-20.1-9-20.1-20.1C65.7,234.348,74.7,225.348,85.8,225.348
		z M33.2,364.048h239.2c-0.8-2.4-1.2-5-1.2-7.7v-20.6H67.3c0.4-2,0.6-4.1,0.6-6.2c0-18.6-15-33.6-33.6-33.6c-2,0-4,0.2-5.9,0.5v-102
		c1.9,0.3,3.9,0.5,5.9,0.5c18.6,0,33.6-15,33.6-33.6c0-2.1-0.2-4.2-0.6-6.2h246.5c-0.7,2.6-1,5.4-1,8.2c0,18.6,15,33.6,33.6,33.6
		c2.9,0,5.7-0.4,8.3-1v34.1c2.5-0.8,5.1-1.3,7.9-1.3h20.5v-68.7c0-18.3-14.9-33.2-33.2-33.2H33.2c-18.3,0-33.2,14.9-33.2,33.2v170.8
		C0.1,349.148,14.9,364.048,33.2,364.048z M354.9,254.048v102.2c0,4.3,3.5,7.7,7.7,7.7h34.2c4.3,0,7.7-3.5,7.7-7.7v-102.2
		c0-4.3-3.5-7.7-7.7-7.7h-34.2C358.3,246.248,354.9,249.748,354.9,254.048z M296.5,281.948c-4.3,0-7.7,3.5-7.7,7.7v66.6
		c0,4.3,3.5,7.7,7.7,7.7h34.2c4.3,0,7.7-3.5,7.7-7.7v-66.6c0-4.3-3.5-7.7-7.7-7.7H296.5z M406.5,209.948H421v146.3
		c0,4.3,3.5,7.7,7.7,7.7h34.2c4.3,0,7.7-3.5,7.7-7.7v-146.3h14.5c4.6,0,7.4-5.2,4.8-9l-39.3-57.4c-2.3-3.3-7.2-3.3-9.5,0l-39.3,57.4
		C399.2,204.748,401.9,209.948,406.5,209.948z M191.6,172.748c40.1,0,72.7,32.6,72.7,72.7s-32.6,72.7-72.7,72.7
		s-72.7-32.6-72.7-72.7S151.5,172.748,191.6,172.748z M144.2,219.148h14.3c2.9-9.5,7.2-17.3,11.6-23.5
		C159.1,200.448,150,208.748,144.2,219.148z M155.9,260.848c-0.8-4.8-1.3-9.9-1.3-15.4s0.5-10.6,1.3-15.4h-16.3
		c-1.4,4.9-2.2,10-2.2,15.4c0,5.3,0.8,10.5,2.2,15.4H155.9z M170.1,295.248c-4.4-6.2-8.7-14-11.6-23.5h-14.3
		C150,282.148,159.1,290.448,170.1,295.248z M186.1,271.748H170c4.3,11.8,10.9,20.3,16.1,25.6V271.748z M186.1,230.048H167
		c-0.9,4.7-1.4,9.8-1.4,15.4c0,5.5,0.5,10.7,1.5,15.4h19.1v-30.8H186.1z M186.1,193.548c-5.3,5.3-11.9,13.7-16.2,25.7h16.2V193.548z
		 M239,271.748h-14.3c-2.9,9.5-7.2,17.3-11.6,23.5C224,290.448,233.2,282.148,239,271.748z M227.2,230.048c0.8,4.8,1.3,9.9,1.3,15.4
		s-0.5,10.6-1.3,15.4h16.3c1.4-4.9,2.2-10,2.2-15.4c0-5.3-0.8-10.5-2.2-15.4H227.2z M213,195.648c4.4,6.2,8.7,14,11.6,23.5h14.3
		C233.2,208.748,224,200.448,213,195.648z M197,219.148h16.1c-4.3-11.8-10.9-20.3-16.1-25.6V219.148z M197,260.848h19.1
		c0.9-4.7,1.4-9.8,1.4-15.4c0-5.5-0.5-10.7-1.5-15.4h-19.1v30.8H197z M197,297.348c5.3-5.3,11.9-13.7,16.2-25.7H197V297.348z"/>
</g>
</svg>