<?xml version="1.0" encoding="iso-8859-1"?>
<!-- Uploaded to: SVG Repo, www.svgrepo.com, Generator: SVG Repo Mixer Tools -->
<!DOCTYPE svg PUBLIC "-//W3C//DTD SVG 1.1//EN" "http://www.w3.org/Graphics/SVG/1.1/DTD/svg11.dtd">
<svg fill="#000000" version="1.1" id="Capa_1" xmlns="http://www.w3.org/2000/svg" xmlns:xlink="http://www.w3.org/1999/xlink" 
	 width="800px" height="800px" viewBox="0 0 123.539 123.538"
	 xml:space="preserve">
<g>
	<g>
		<path d="M80.2,25.566c7.063,0,12.784-5.724,12.784-12.784S87.261,0,80.2,0c-7.058,0-12.781,5.723-12.781,12.782
			C67.417,19.842,73.142,25.566,80.2,25.566z"/>
		<path d="M95.14,68.551v2.448H84.54v26.208h35.493V70.999h-10.6v-2.448c0-1.191-0.97-2.162-2.162-2.162h-0.203
			c0.18-0.645,0.232-1.334,0.13-2.039c-2.97-20.24-7.464-28.908-18.494-35.672c-0.216-0.131-0.438-0.225-0.663-0.321
			c-1.425-0.95-3.023-1.648-4.656-2.05L80.2,29.513l-3.087-3.241c-0.01,0.002-0.021,0.002-0.031,0.007
			c-2.361,0.564-4.658,1.761-6.454,3.443c-1.403,0.945-2.672,1.943-3.854,3.004c-3.172,2.143-5.846,4.86-8.435,7.501
			c-5.956,6.072-9.975,9.756-17.081,9.149c-3.115-0.261-5.835,2.029-6.102,5.13c-0.114,1.315,0.237,2.562,0.912,3.585
			c-0.312-0.01-0.62-0.024-0.933-0.024c-17.44,0-31.629,14.188-31.629,31.628c0,17.439,14.188,31.629,31.629,31.629
			c17.439,0,31.628-14.188,31.628-31.629c0-13.258-8.203-24.629-19.795-29.323c8.826-1.458,14.603-7.34,19.418-12.252
			c0.069-0.072,0.141-0.143,0.211-0.215c0.279,0.892,0.519,2.105,0.519,2.105v15.626c0,1.334,0.258,2.58,0.715,3.727
			c-0.036,0.258-0.06,0.52-0.06,0.785l0.002,47.524c0,3.239,2.627,5.865,5.865,5.865c3.241,0,5.865-2.626,5.865-5.867l-0.002-40.784
			c0.232,0.01,0.464,0.029,0.696,0.029c0.048,0,0.092-0.007,0.141-0.007l-0.004,40.764c0,3.239,2.628,5.865,5.865,5.865
			c3.239,0,5.866-2.626,5.866-5.865V99.195h-9.332V69.377h9.828c0.461-1.148,0.722-2.396,0.722-3.74V48.542
			c1.589,3.965,2.942,9.411,4.091,17.247c0.029,0.207,0.091,0.402,0.145,0.6h-0.22C96.109,66.389,95.14,67.359,95.14,68.551z
			 M19.25,112.122l-0.001-14.487c0.082,0.006,0.165,0.012,0.249,0.012c0.016,0,0.031-0.004,0.048-0.004v14.494
			c0,0.071,0.014,0.141,0.021,0.211C19.459,112.273,19.355,112.195,19.25,112.122z M19.507,89.785h-0.021l-1.096-1.499l1.096-7.326
			h0.021l1.096,7.326L19.507,89.785z M22.417,114.064c0.761-0.311,1.3-1.057,1.3-1.93l0.001-16.605
			c0.127,0.138,0.278,0.26,0.454,0.354c0.268,0.146,0.556,0.215,0.841,0.215c0.582,0,1.145-0.291,1.478-0.805
			c0.079,0.15,0.149,0.301,0.234,0.454c0.378,0.696,1.095,1.091,1.836,1.091c0.336,0,0.678-0.082,0.995-0.254
			c0.111-0.061,0.212-0.13,0.306-0.206l0.002,19.433c0,0.32,0.066,0.623,0.177,0.902C27.339,116.206,24.779,115.303,22.417,114.064z
			 M24.725,90.039c-0.094,0.615-0.278,1.284-0.576,2.014v-5.416c0.213,0.37,0.379,0.771,0.49,1.203
			C24.594,88.529,24.62,89.262,24.725,90.039z M29.587,85.631v6.434C28.446,89.266,28.671,87.223,29.587,85.631z M35.136,117.193
			c-0.252,0-0.501-0.01-0.75-0.018c0.261-0.393,0.412-0.861,0.412-1.365l-0.001-17.156c0.099,0.004,0.195,0.012,0.293,0.012
			c0.02,0,0.039,0,0.059,0v17.146c0,0.506,0.153,0.979,0.417,1.373C35.421,117.186,35.279,117.193,35.136,117.193z M35.104,89.37
			h-0.025l-1.297-1.774l1.297-8.668h0.025l1.296,8.668L35.104,89.37z M39.887,116.775c0.126-0.297,0.195-0.623,0.195-0.965
			l0.001-19.646c0.15,0.164,0.33,0.309,0.536,0.421c0.318,0.172,0.659,0.254,0.996,0.254c0.74,0,1.458-0.396,1.836-1.091
			c0.082-0.152,0.152-0.299,0.23-0.447c0.334,0.51,0.893,0.799,1.474,0.799c0.284,0,0.573-0.068,0.842-0.215
			c0.092-0.052,0.178-0.109,0.258-0.175l0.002,16.427c0,0.941,0.627,1.729,1.484,1.986C45.311,115.382,42.67,116.289,39.887,116.775
			z M40.595,92.051v-6.406C41.502,87.229,41.727,89.264,40.595,92.051z M45.535,87.816c0.112-0.428,0.278-0.823,0.488-1.188v5.437
			c-0.295-0.725-0.48-1.387-0.575-1.998C45.557,89.271,45.582,88.521,45.535,87.816z M50.381,112.568
			c0.03-0.141,0.046-0.283,0.046-0.434l-0.001-14.5c0.082,0.004,0.165,0.01,0.249,0.01c0.016,0,0.031-0.002,0.048-0.002
			l-0.001,14.492c0,0.064,0.014,0.125,0.02,0.186C50.623,112.402,50.503,112.486,50.381,112.568z M50.686,89.785h-0.021
			l-1.097-1.499l1.097-7.326h0.021l1.097,7.326L50.686,89.785z M62.634,89.695c0,7.414-2.955,14.146-7.74,19.098l0.001-13.264
			c0.127,0.138,0.278,0.26,0.452,0.354c0.27,0.146,0.557,0.215,0.843,0.215c0.625,0,1.231-0.332,1.551-0.922
			c4.979-9.15-1.812-13.314-4.043-14.683c-0.077-0.048-0.157-0.081-0.236-0.114c-0.507-0.339-1.075-0.588-1.654-0.729l-1.132,1.139
			l-1.099-1.154c-0.003,0.004-0.009,0.004-0.011,0.004c-0.593,0.143-1.173,0.396-1.688,0.741c-0.078,0.034-0.157,0.065-0.232,0.113
			c-0.836,0.512-2.31,1.415-3.566,2.825c-1.614-2.609-4.14-4.164-5.412-4.943c-0.091-0.057-0.186-0.096-0.279-0.137
			c-0.6-0.396-1.271-0.693-1.958-0.86l-1.341,1.349l-1.298-1.363c-0.005,0.003-0.01,0.003-0.013,0.004
			c-0.701,0.166-1.388,0.467-1.996,0.877c-0.093,0.04-0.186,0.076-0.275,0.132c-1.273,0.781-3.802,2.336-5.417,4.949
			c-1.257-1.412-2.732-2.318-3.57-2.831c-0.077-0.049-0.156-0.081-0.236-0.114c-0.505-0.339-1.074-0.588-1.654-0.729L19.5,80.79
			l-1.098-1.153c-0.005,0.002-0.009,0.002-0.013,0.004c-0.591,0.142-1.171,0.396-1.687,0.74c-0.078,0.034-0.158,0.066-0.232,0.113
			c-2.231,1.367-9.022,5.531-4.043,14.684c0.319,0.588,0.925,0.922,1.551,0.922c0.285,0,0.574-0.068,0.842-0.215
			c0.094-0.052,0.18-0.109,0.259-0.175l0.001,12.771c-4.61-4.92-7.441-11.525-7.441-18.785c0-15.163,12.334-27.498,27.499-27.498
			C50.299,62.197,62.634,74.531,62.634,89.695z M55.328,92.051v-5.416C56.095,87.977,56.284,89.695,55.328,92.051z M14.845,86.627
			v5.436C13.88,89.695,14.071,87.971,14.845,86.627z M80.23,54.813h-0.059l-3.083-4.22l2.386-15.961
			c0.24-0.642,0.342-1.324,0.303-2.013l0.396-2.632h0.058l3.086,20.605L80.23,54.813z M98.431,68.195
			c0.922,1.135,2.325,1.838,3.85,1.838c0.24,0,0.482-0.018,0.725-0.053c1.283-0.188,2.374-0.854,3.129-1.785h1.137
			c0.199,0,0.356,0.16,0.356,0.355v2.448H96.945v-2.448c0-0.195,0.16-0.355,0.355-0.355H98.431z"/>
		<circle cx="35.09" cy="71.688" r="5.376"/>
		<circle cx="50.675" cy="74.841" r="4.545"/>
		<circle cx="19.499" cy="74.841" r="4.545"/>
	</g>
</g>
</svg>